{
classes = (
{
automatic = 1;
code = "S A B C D E F G H I J K L M N O P Q R T U V W X Y Z Agrave Aacute Acircumflex Atilde Adieresis Aring AE Ccedilla Egrave Eacute Ecircumflex Edieresis Igrave Iacute Icircumflex Idieresis Eth Ntilde Ograve Oacute Ocircumflex Otilde Odieresis Oslash Ugrave Uacute Ucircumflex Udieresis Yacute Thorn Amacron Abreve Aogonek Cacute Ccircumflex Cdotaccent Ccaron Dcaron Dcroat Emacron Ebreve Edotaccent Eogonek Ecaron Gcircumflex Gbreve Gdotaccent Gcommaaccent Hcircumflex Hbar Itilde Imacron Ibreve Iogonek Idotaccent IJ Jcircumflex Kcommaaccent Lacute Lcommaaccent Lcaron Ldot Lslash Nacute Ncommaaccent Ncaron Eng Omacron Obreve Ohungarumlaut OE Racute Rcommaaccent Rcaron Sacute Scircumflex uni015E Scaron uni0162 Tcaron Tbar Utilde Umacron Ubreve Uring Uhungarumlaut Uogonek Wcircumflex Ycircumflex Ydieresis Zacute Zdotaccent Zcaron Schwa uni01C4 uni01C5 uni01C7 uni01C8 uni01CA uni01CB Oogonek uni01F1 uni01F2 Gacute Aringacute AEacute Oslashacute Adblgrave Ainvertedbreve Edblgrave Einvertedbreve Idblgrave Iinvertedbreve Odblgrave Oinvertedbreve Rdblgrave Rinvertedbreve Udblgrave Uinvertedbreve uni0218 uni021A uni0394 uni03A9 Ddotbelow Hdotbelow Ndotaccent Rdotbelow Sdotbelow Tdotbelow Wgrave Wacute Wdieresis Zdotbelow Edotbelow Etilde Idotbelow Odotbelow Udotbelow Ygrave Ytilde Omega Delta W.alt G.alt uni0406 uni0407 uni0408 uni0409 uni040A uni040B uni040C uni041A uni040D uni0418 uni040E uni040F uni0410 uni0411 uni0412 uni0415 uni0416 uni041C uni041D uni041E uni041F uni0420 uni0421 uni0422 uni0423 uni0424 uni0425 uni0426 uni0427 uni0428 uni0429 uni042A uni042B uni042C uni042D uni042E uni042F uni0400 uni0401 uni0402 uni0403 uni0413 uni0404 uni0405 uni0414 uni0417 uni0419 uni041B uni0490 uni04B0";
name = Uppercase;
}
);

glyphs = (
{
color = 4;
glyphname = exclam;
lastChange = "2014-12-08 09:27:43 +0000";
layers = (
{
layerId = "643E1A31-2BD5-4D48-BA91-7A3195B2D7C3";
name = Bold;
paths = (
{
closed = 1;
nodes = (
"197 253 LINE",
"197 717 LINE",
"87 717 LINE",
"87 253 LINE"
);
},
{
closed = 1;
nodes = (
"183 -7 OFFCURVE",
"216 26 OFFCURVE",
"216 66 CURVE SMOOTH",
"216 106 OFFCURVE",
"183 139 OFFCURVE",
"143 139 CURVE SMOOTH",
"102 139 OFFCURVE",
"70 106 OFFCURVE",
"70 66 CURVE SMOOTH",
"70 26 OFFCURVE",
"102 -7 OFFCURVE",
"143 -7 CURVE SMOOTH"
);
}
);
width = 284;
}
);
leftKerningGroup = exclam;
unicode = 0021;
},
{
color = 4;
glyphname = quotedbl;
lastChange = "2014-12-08 11:24:34 +0000";
layers = (
{
layerId = "643E1A31-2BD5-4D48-BA91-7A3195B2D7C3";
name = Bold;
paths = (
{
closed = 1;
nodes = (
"148 486 LINE",
"148 721 LINE",
"54 721 LINE",
"54 486 LINE"
);
},
{
closed = 1;
nodes = (
"313 486 LINE",
"313 721 LINE",
"219 721 LINE",
"219 486 LINE"
);
}
);
width = 357;
}
);
leftKerningGroup = quotedbl;
rightKerningGroup = quotedbl;
unicode = 0022;
},
{
glyphname = numbersign;
layers = (
{
layerId = "643E1A31-2BD5-4D48-BA91-7A3195B2D7C3";
name = Bold;
paths = (
{
closed = 1;
nodes = (
"669 514 LINE",
"549 514 LINE",
"598 710 LINE",
"508 710 LINE",
"460 514 LINE",
"316 514 LINE",
"364 710 LINE",
"274 710 LINE",
"227 514 LINE",
"82 514 LINE",
"82 436 LINE",
"207 436 LINE",
"169 278 LINE",
"37 278 LINE",
"37 194 LINE",
"150 194 LINE",
"101 0 LINE",
"191 0 LINE",
"238 194 LINE",
"383 194 LINE",
"335 0 LINE",
"425 0 LINE",
"472 194 LINE",
"624 194 LINE",
"624 278 LINE",
"492 278 LINE",
"530 436 LINE",
"669 436 LINE"
);
},
{
closed = 1;
nodes = (
"258 278 LINE",
"296 436 LINE",
"441 436 LINE",
"403 278 LINE"
);
}
);
width = 706;
}
);
unicode = 0023;
},
{
glyphname = dollar;
layers = (
{
layerId = "643E1A31-2BD5-4D48-BA91-7A3195B2D7C3";
name = Bold;
paths = (
{
closed = 1;
nodes = (
"560 635 LINE",
"504 676 OFFCURVE",
"429 709 OFFCURVE",
"343 714 CURVE",
"343 815 LINE",
"291 815 LINE",
"291 714 LINE",
"159 704 OFFCURVE",
"62 629 OFFCURVE",
"62 499 CURVE SMOOTH",
"62 388 OFFCURVE",
"133 346 OFFCURVE",
"273 309 CURVE",
"281 306 OFFCURVE",
"290 304 OFFCURVE",
"298 302 CURVE",
"298 95 LINE",
"202 105 OFFCURVE",
"116 153 OFFCURVE",
"86 185 CURVE",
"35 89 LINE",
"107 34 OFFCURVE",
"196 1 OFFCURVE",
"291 -5 CURVE",
"291 -112 LINE",
"343 -112 LINE",
"343 -7 LINE",
"479 -3 OFFCURVE",
"588 57 OFFCURVE",
"588 197 CURVE SMOOTH",
"588 326 OFFCURVE",
"498 368 OFFCURVE",
"354 403 CURVE SMOOTH",
"335 407 LINE",
"335 614 LINE",
"413 609 OFFCURVE",
"485 570 OFFCURVE",
"509 543 CURVE"
);
},
{
closed = 1;
nodes = (
"468 127 OFFCURVE",
"420 95 OFFCURVE",
"335 94 CURVE",
"335 292 LINE",
"419 268 OFFCURVE",
"468 244 OFFCURVE",
"468 185 CURVE SMOOTH"
);
},
{
closed = 1;
nodes = (
"179 574 OFFCURVE",
"217 610 OFFCURVE",
"298 614 CURVE",
"298 417 LINE",
"218 439 OFFCURVE",
"179 461 OFFCURVE",
"179 517 CURVE SMOOTH"
);
}
);
width = 628;
}
);
unicode = 0024;
},
{
glyphname = S;
lastChange = "2014-12-07 21:38:26 +0000";
layers = (
{
anchors = (
{
name = bottom;
position = "{306, 0}";
},
{
name = top;
position = "{306, 710}";
}
);
layerId = "643E1A31-2BD5-4D48-BA91-7A3195B2D7C3";
name = Bold;
paths = (
{
closed = 1;
nodes = (
"551 635 LINE",
"490 680 OFFCURVE",
"407 715 OFFCURVE",
"311 715 CURVE SMOOTH",
"165 715 OFFCURVE",
"53 639 OFFCURVE",
"53 499 CURVE SMOOTH",
"53 388 OFFCURVE",
"124 346 OFFCURVE",
"264 309 CURVE SMOOTH",
"386 277 OFFCURVE",
"459 257 OFFCURVE",
"459 185 CURVE SMOOTH",
"459 126 OFFCURVE",
"409 94 OFFCURVE",
"321 94 CURVE SMOOTH",
"213 94 OFFCURVE",
"111 150 OFFCURVE",
"77 185 CURVE",
"26 89 LINE",
"107 27 OFFCURVE",
"211 -7 OFFCURVE",
"319 -7 CURVE SMOOTH",
"462 -7 OFFCURVE",
"579 52 OFFCURVE",
"579 197 CURVE SMOOTH",
"579 326 OFFCURVE",
"489 368 OFFCURVE",
"345 403 CURVE SMOOTH",
"227 432 OFFCURVE",
"170 449 OFFCURVE",
"170 517 CURVE SMOOTH",
"170 578 OFFCURVE",
"214 615 OFFCURVE",
"308 615 CURVE SMOOTH",
"393 615 OFFCURVE",
"474 572 OFFCURVE",
"500 543 CURVE"
);
}
);
width = 611;
}
);
leftKerningGroup = S;
rightKerningGroup = S;
unicode = 0053;
},
{
glyphname = percent;
layers = (
{
layerId = "643E1A31-2BD5-4D48-BA91-7A3195B2D7C3";
name = Bold;
paths = (
{
closed = 1;
nodes = (
"284 423 OFFCURVE",
"354 489 OFFCURVE",
"354 571 CURVE SMOOTH",
"354 654 OFFCURVE",
"284 720 OFFCURVE",
"195 720 CURVE SMOOTH",
"107 720 OFFCURVE",
"36 654 OFFCURVE",
"36 571 CURVE SMOOTH",
"36 489 OFFCURVE",
"107 423 OFFCURVE",
"195 423 CURVE SMOOTH"
);
},
{
closed = 1;
nodes = (
"151 480 OFFCURVE",
"114 521 OFFCURVE",
"114 571 CURVE SMOOTH",
"114 620 OFFCURVE",
"150 663 OFFCURVE",
"195 663 CURVE SMOOTH",
"239 663 OFFCURVE",
"276 622 OFFCURVE",
"276 571 CURVE SMOOTH",
"276 523 OFFCURVE",
"240 480 OFFCURVE",
"195 480 CURVE SMOOTH"
);
},
{
closed = 1;
nodes = (
"652 -10 OFFCURVE",
"722 56 OFFCURVE",
"722 139 CURVE SMOOTH",
"722 221 OFFCURVE",
"652 287 OFFCURVE",
"563 287 CURVE SMOOTH",
"475 287 OFFCURVE",
"404 221 OFFCURVE",
"404 139 CURVE SMOOTH",
"404 56 OFFCURVE",
"475 -10 OFFCURVE",
"563 -10 CURVE SMOOTH"
);
},
{
closed = 1;
nodes = (
"519 47 OFFCURVE",
"482 88 OFFCURVE",
"482 139 CURVE SMOOTH",
"482 187 OFFCURVE",
"518 230 OFFCURVE",
"563 230 CURVE SMOOTH",
"606 230 OFFCURVE",
"644 189 OFFCURVE",
"644 139 CURVE SMOOTH",
"644 89 OFFCURVE",
"608 47 OFFCURVE",
"563 47 CURVE SMOOTH"
);
},
{
closed = 1;
nodes = (
"132 -6 LINE",
"402 342 LINE",
"678 671 LINE",
"626 716 LINE",
"362 373 LINE",
"81 40 LINE"
);
}
);
width = 758;
}
);
unicode = 0025;
},
{
glyphname = fraction;
layers = (
{
layerId = "643E1A31-2BD5-4D48-BA91-7A3195B2D7C3";
name = Bold;
paths = (
{
closed = 1;
nodes = (
"-156 -6 LINE",
"114 342 LINE",
"390 671 LINE",
"338 716 LINE",
"74 373 LINE",
"-207 40 LINE"
);
}
);
width = 184;
}
);
unicode = 2044;
},
{
glyphname = ampersand;
layers = (
{
layerId = "643E1A31-2BD5-4D48-BA91-7A3195B2D7C3";
name = Bold;
paths = (
{
closed = 1;
nodes = (
"693 0 LINE",
"551 148 LINE",
"590 209 OFFCURVE",
"612 287 OFFCURVE",
"613 377 CURVE",
"523 377 LINE",
"523 316 OFFCURVE",
"509 261 OFFCURVE",
"487 215 CURVE",
"327 383 LINE",
"403 435 OFFCURVE",
"461 489 OFFCURVE",
"461 568 CURVE SMOOTH",
"461 665 OFFCURVE",
"377 719 OFFCURVE",
"280 719 CURVE SMOOTH",
"173 719 OFFCURVE",
"92 651 OFFCURVE",
"92 554 CURVE SMOOTH",
"92 504 OFFCURVE",
"114 464 OFFCURVE",
"174 396 CURVE",
"104 347 OFFCURVE",
"43 286 OFFCURVE",
"43 194 CURVE SMOOTH",
"43 81 OFFCURVE",
"139 -10 OFFCURVE",
"277 -10 CURVE SMOOTH",
"353 -10 OFFCURVE",
"425 18 OFFCURVE",
"483 68 CURVE",
"548 0 LINE"
);
},
{
closed = 1;
nodes = (
"213 77 OFFCURVE",
"149 124 OFFCURVE",
"149 193 CURVE SMOOTH",
"149 246 OFFCURVE",
"186 287 OFFCURVE",
"240 326 CURVE",
"424 131 LINE",
"385 97 OFFCURVE",
"338 77 OFFCURVE",
"289 77 CURVE SMOOTH"
);
},
{
closed = 1;
nodes = (
"193 601 OFFCURVE",
"229 637 OFFCURVE",
"280 637 CURVE SMOOTH",
"326 637 OFFCURVE",
"360 608 OFFCURVE",
"360 566 CURVE SMOOTH",
"360 523 OFFCURVE",
"322 491 OFFCURVE",
"261 452 CURVE",
"207 510 OFFCURVE",
"193 530 OFFCURVE",
"193 557 CURVE SMOOTH"
);
}
);
width = 696;
}
);
leftKerningGroup = ampersand;
rightKerningGroup = ampersand;
unicode = 0026;
},
{
color = 4;
glyphname = quotesingle;
lastChange = "2014-12-08 11:23:02 +0000";
layers = (
{
layerId = "643E1A31-2BD5-4D48-BA91-7A3195B2D7C3";
name = Bold;
paths = (
{
closed = 1;
nodes = (
"158 486 LINE",
"158 721 LINE",
"64 721 LINE",
"64 486 LINE"
);
}
);
width = 222;
}
);
leftKerningGroup = quotedbl;
rightKerningGroup = quotedbl;
unicode = 0027;
},
{
glyphname = parenleft;
layers = (
{
layerId = "643E1A31-2BD5-4D48-BA91-7A3195B2D7C3";
name = Bold;
paths = (
{
closed = 1;
nodes = (
"38 214 OFFCURVE",
"101 77 OFFCURVE",
"185 -47 CURVE",
"265 -6 LINE",
"190 116 OFFCURVE",
"141 238 OFFCURVE",
"141 343 CURVE SMOOTH",
"141 477 OFFCURVE",
"221 644 OFFCURVE",
"268 714 CURVE",
"183 750 LINE",
"102 613 OFFCURVE",
"38 482 OFFCURVE",
"38 346 CURVE SMOOTH"
);
}
);
width = 296;
}
);
rightKerningGroup = parenleft;
unicode = 0028;
},
{
glyphname = parenright;
layers = (
{
layerId = "643E1A31-2BD5-4D48-BA91-7A3195B2D7C3";
name = Bold;
paths = (
{
closed = 1;
nodes = (
"257 482 OFFCURVE",
"193 613 OFFCURVE",
"112 750 CURVE",
"28 714 LINE",
"74 644 OFFCURVE",
"155 477 OFFCURVE",
"155 343 CURVE SMOOTH",
"155 238 OFFCURVE",
"105 116 OFFCURVE",
"30 -6 CURVE",
"111 -47 LINE",
"195 77 OFFCURVE",
"257 214 OFFCURVE",
"257 346 CURVE SMOOTH"
);
}
);
width = 296;
}
);
leftKerningGroup = parenright;
unicode = 0029;
},
{
glyphname = asterisk;
layers = (
{
layerId = "643E1A31-2BD5-4D48-BA91-7A3195B2D7C3";
name = Bold;
paths = (
{
closed = 1;
nodes = (
"124 500 LINE",
"169 571 LINE",
"213 500 LINE",
"257 530 LINE",
"212 597 LINE",
"281 619 LINE",
"266 669 LINE",
"195 640 LINE",
"199 716 LINE",
"138 716 LINE",
"142 640 LINE",
"71 669 LINE",
"55 619 LINE",
"125 597 LINE",
"80 530 LINE"
);
}
);
width = 337;
}
);
leftKerningGroup = asterisk;
rightKerningGroup = asterisk;
unicode = 002A;
},
{
glyphname = plus;
layers = (
{
layerId = "643E1A31-2BD5-4D48-BA91-7A3195B2D7C3";
name = Bold;
paths = (
{
closed = 1;
nodes = (
"259 399 LINE",
"259 520 LINE",
"160 520 LINE",
"160 399 LINE",
"49 399 LINE",
"49 311 LINE",
"160 311 LINE",
"160 190 LINE",
"259 190 LINE",
"259 311 LINE",
"370 311 LINE",
"370 399 LINE"
);
}
);
width = 419;
}
);
unicode = 002B;
},
{
color = 4;
glyphname = comma;
lastChange = "2014-12-08 16:10:50 +0000";
layers = (
{
guideLines = (
{
position = "{81, -140}";
}
);
layerId = "643E1A31-2BD5-4D48-BA91-7A3195B2D7C3";
name = Bold;
paths = (
{
closed = 1;
nodes = (
"102 -140 LINE",
"22 -140 LINE",
"89 95 LINE",
"198 95 LINE"
);
}
);
width = 221;
}
);
leftKerningGroup = comma;
rightKerningGroup = comma;
unicode = 002C;
},
{
glyphname = hyphen;
layers = (
{
layerId = "643E1A31-2BD5-4D48-BA91-7A3195B2D7C3";
name = Bold;
paths = (
{
closed = 1;
nodes = (
"360 224 LINE",
"360 323 LINE",
"61 323 LINE",
"61 224 LINE"
);
}
);
width = 421;
}
);
leftKerningGroup = hyphen;
rightKerningGroup = hyphen;
unicode = 002D;
},
{
color = 4;
glyphname = period;
lastChange = "2014-12-08 16:16:23 +0000";
layers = (
{
layerId = "643E1A31-2BD5-4D48-BA91-7A3195B2D7C3";
name = Bold;
paths = (
{
closed = 1;
nodes = (
"144 -9 OFFCURVE",
"176 23 OFFCURVE",
"176 61 CURVE SMOOTH",
"176 100 OFFCURVE",
"144 131 OFFCURVE",
"106 131 CURVE SMOOTH",
"67 131 OFFCURVE",
"36 100 OFFCURVE",
"36 61 CURVE SMOOTH",
"36 23 OFFCURVE",
"67 -9 OFFCURVE",
"106 -9 CURVE SMOOTH"
);
}
);
width = 213;
}
);
leftKerningGroup = comma;
rightKerningGroup = comma;
unicode = 002E;
},
{
color = 6;
glyphname = slash;
lastChange = "2015-01-02 09:20:36 +0000";
layers = (
{
layerId = "643E1A31-2BD5-4D48-BA91-7A3195B2D7C3";
name = Bold;
paths = (
{
closed = 1;
nodes = (
"325 745 LINE",
"6 0 LINE",
"107 -37 LINE",
"425 710 LINE"
);
}
);
width = 430;
}
);
leftKerningGroup = slash;
rightKerningGroup = slash;
unicode = 002F;
},
{
color = 4;
glyphname = zero;
lastChange = "2014-12-04 11:12:22 +0000";
layers = (
{
layerId = "643E1A31-2BD5-4D48-BA91-7A3195B2D7C3";
name = Bold;
paths = (
{
closed = 1;
nodes = (
"535 -8 OFFCURVE",
"651 177 OFFCURVE",
"651 350 CURVE SMOOTH",
"651 505 OFFCURVE",
"548 710 OFFCURVE",
"348 710 CURVE SMOOTH",
"160 710 OFFCURVE",
"44 521 OFFCURVE",
"44 350 CURVE SMOOTH",
"44 190 OFFCURVE",
"148 -7 OFFCURVE",
"348 -10 CURVE SMOOTH"
);
},
{
closed = 1;
nodes = (
"158 459 OFFCURVE",
"217 609 OFFCURVE",
"348 609 CURVE SMOOTH",
"470 609 OFFCURVE",
"537 471 OFFCURVE",
"537 350 CURVE SMOOTH",
"537 240 OFFCURVE",
"478 91 OFFCURVE",
"348 91 CURVE SMOOTH",
"222 91 OFFCURVE",
"162 229 OFFCURVE",
"158 350 CURVE"
);
}
);
width = 695;
}
);
leftKerningGroup = zero.lnum;
rightKerningGroup = zero.lnum;
unicode = 0030;
},
{
color = 6;
glyphname = one;
lastChange = "2014-12-26 21:43:21 +0000";
layers = (
{
layerId = "643E1A31-2BD5-4D48-BA91-7A3195B2D7C3";
name = Bold;
paths = (
{
closed = 1;
nodes = (
"316 0 LINE",
"316 717 LINE",
"203 717 LINE",
"14 605 LINE",
"60 523 LINE",
"203 605 LINE",
"203 0 LINE"
);
}
);
width = 465;
}
);
leftKerningGroup = one.lnum;
rightKerningGroup = one.lnum;
unicode = 0031;
},
{
color = 4;
glyphname = two;
lastChange = "2014-12-04 11:12:22 +0000";
layers = (
{
layerId = "643E1A31-2BD5-4D48-BA91-7A3195B2D7C3";
name = Bold;
paths = (
{
closed = 1;
nodes = (
"546 0 LINE",
"546 99 LINE",
"193 99 LINE",
"193 180 OFFCURVE",
"237 225 OFFCURVE",
"356 282 CURVE SMOOTH",
"452 329 OFFCURVE",
"545 380 OFFCURVE",
"545 507 CURVE SMOOTH",
"545 627 OFFCURVE",
"465 719 OFFCURVE",
"313 719 CURVE SMOOTH",
"168 719 OFFCURVE",
"76 634 OFFCURVE",
"48 600 CURVE",
"118 527 LINE",
"151 566 OFFCURVE",
"215 618 OFFCURVE",
"300 618 CURVE SMOOTH",
"380 618 OFFCURVE",
"421 570 OFFCURVE",
"421 505 CURVE SMOOTH",
"421 402 OFFCURVE",
"318 373 OFFCURVE",
"230 330 CURVE SMOOTH",
"100 266 OFFCURVE",
"44 186 OFFCURVE",
"44 0 CURVE"
);
}
);
width = 599;
}
);
rightKerningGroup = two.lnum;
unicode = 0032;
},
{
color = 4;
glyphname = three;
lastChange = "2014-12-04 11:12:22 +0000";
layers = (
{
layerId = "643E1A31-2BD5-4D48-BA91-7A3195B2D7C3";
name = Bold;
paths = (
{
closed = 1;
nodes = (
"410 -9 OFFCURVE",
"537 59 OFFCURVE",
"537 188 CURVE SMOOTH",
"537 277 OFFCURVE",
"478 353 OFFCURVE",
"385 370 CURVE",
"471 390 OFFCURVE",
"521 443 OFFCURVE",
"521 523 CURVE SMOOTH",
"521 634 OFFCURVE",
"418 719 OFFCURVE",
"278 719 CURVE SMOOTH",
"184 719 OFFCURVE",
"87 679 OFFCURVE",
"44 612 CURVE",
"116 533 LINE",
"139 578 OFFCURVE",
"195 622 OFFCURVE",
"279 622 CURVE SMOOTH",
"341 622 OFFCURVE",
"405 586 OFFCURVE",
"405 518 CURVE SMOOTH",
"405 445 OFFCURVE",
"326 411 OFFCURVE",
"210 411 CURVE SMOOTH",
"176 411 LINE",
"176 318 LINE",
"210 318 LINE SMOOTH",
"342 318 OFFCURVE",
"423 278 OFFCURVE",
"423 203 CURVE SMOOTH",
"423 135 OFFCURVE",
"357 93 OFFCURVE",
"275 93 CURVE SMOOTH",
"170 93 OFFCURVE",
"110 161 OFFCURVE",
"104 209 CURVE",
"44 139 LINE",
"69 47 OFFCURVE",
"158 -9 OFFCURVE",
"277 -9 CURVE SMOOTH"
);
}
);
width = 585;
}
);
unicode = 0033;
},
{
color = 4;
glyphname = four;
lastChange = "2014-12-04 11:12:22 +0000";
layers = (
{
layerId = "643E1A31-2BD5-4D48-BA91-7A3195B2D7C3";
name = Bold;
paths = (
{
closed = 1;
nodes = (
"454 0 LINE",
"454 172 LINE",
"542 172 LINE",
"542 271 LINE",
"454 271 LINE",
"454 710 LINE",
"378 710 LINE",
"27 270 LINE",
"27 172 LINE",
"344 172 LINE",
"344 0 LINE"
);
},
{
closed = 1;
nodes = (
"356 543 LINE",
"356 271 LINE",
"139 271 LINE"
);
}
);
width = 581;
}
);
leftKerningGroup = four.lnum;
unicode = 0034;
},
{
color = 4;
glyphname = five;
lastChange = "2014-12-04 11:12:22 +0000";
layers = (
{
layerId = "643E1A31-2BD5-4D48-BA91-7A3195B2D7C3";
name = Bold;
paths = (
{
closed = 1;
nodes = (
"241 456 OFFCURVE",
"202 441 OFFCURVE",
"179 416 CURVE",
"215 609 LINE",
"482 609 LINE",
"482 710 LINE",
"135 710 LINE SMOOTH",
"135 710 OFFCURVE",
"59 319 OFFCURVE",
"54 296 CURVE",
"152 296 LINE",
"179 337 OFFCURVE",
"227 361 OFFCURVE",
"277 361 CURVE SMOOTH",
"353 361 OFFCURVE",
"411 306 OFFCURVE",
"411 226 CURVE SMOOTH",
"411 144 OFFCURVE",
"351 88 OFFCURVE",
"269 88 CURVE SMOOTH",
"203 88 OFFCURVE",
"140 125 OFFCURVE",
"103 182 CURVE",
"37 119 LINE",
"80 40 OFFCURVE",
"166 -10 OFFCURVE",
"268 -10 CURVE SMOOTH",
"414 -10 OFFCURVE",
"524 87 OFFCURVE",
"524 229 CURVE SMOOTH",
"524 362 OFFCURVE",
"424 456 OFFCURVE",
"291 456 CURVE SMOOTH"
);
}
);
width = 563;
}
);
unicode = 0035;
},
{
color = 4;
glyphname = six;
lastChange = "2014-12-04 11:12:22 +0000";
layers = (
{
layerId = "643E1A31-2BD5-4D48-BA91-7A3195B2D7C3";
name = Bold;
paths = (
{
closed = 1;
nodes = (
"564 370 OFFCURVE",
"456 474 OFFCURVE",
"318 474 CURVE SMOOTH",
"243 474 OFFCURVE",
"180 436 OFFCURVE",
"151 377 CURVE",
"153 530 OFFCURVE",
"218 619 OFFCURVE",
"317 619 CURVE SMOOTH",
"382 619 OFFCURVE",
"440 584 OFFCURVE",
"470 528 CURVE",
"535 596 LINE",
"488 671 OFFCURVE",
"409 715 OFFCURVE",
"319 715 CURVE SMOOTH",
"155 715 OFFCURVE",
"48 576 OFFCURVE",
"48 305 CURVE SMOOTH",
"48 108 OFFCURVE",
"151 -10 OFFCURVE",
"308 -10 CURVE SMOOTH",
"453 -10 OFFCURVE",
"564 99 OFFCURVE",
"564 236 CURVE SMOOTH"
);
},
{
closed = 1;
nodes = (
"226 84 OFFCURVE",
"157 153 OFFCURVE",
"157 236 CURVE SMOOTH",
"157 318 OFFCURVE",
"225 386 OFFCURVE",
"308 386 CURVE SMOOTH",
"391 386 OFFCURVE",
"459 318 OFFCURVE",
"459 236 CURVE SMOOTH",
"459 153 OFFCURVE",
"390 84 OFFCURVE",
"308 84 CURVE SMOOTH"
);
}
);
width = 607;
}
);
unicode = 0036;
},
{
color = 4;
glyphname = seven;
lastChange = "2014-12-26 21:42:54 +0000";
layers = (
{
guideLines = (
{
angle = 90;
position = "{71, 0}";
}
);
layerId = "643E1A31-2BD5-4D48-BA91-7A3195B2D7C3";
name = Bold;
paths = (
{
closed = 1;
nodes = (
"71 0 LINE",
"195 0 LINE",
"551 710 LINE",
"33 710 LINE",
"33 609 LINE",
"377 609 LINE"
);
}
);
width = 548;
}
);
leftKerningGroup = seven.lnum;
rightKerningGroup = seven.lnum;
unicode = 0037;
},
{
color = 4;
glyphname = eight;
lastChange = "2014-12-04 11:12:22 +0000";
layers = (
{
layerId = "643E1A31-2BD5-4D48-BA91-7A3195B2D7C3";
name = Bold;
paths = (
{
closed = 1;
nodes = (
"554 290 OFFCURVE",
"496 351 OFFCURVE",
"431 380 CURVE",
"486 404 OFFCURVE",
"532 458 OFFCURVE",
"532 520 CURVE SMOOTH",
"532 643 OFFCURVE",
"408 710 OFFCURVE",
"300 710 CURVE SMOOTH",
"193 710 OFFCURVE",
"70 642 OFFCURVE",
"70 519 CURVE SMOOTH",
"70 457 OFFCURVE",
"115 404 OFFCURVE",
"169 380 CURVE",
"111 354 OFFCURVE",
"46 294 OFFCURVE",
"46 210 CURVE SMOOTH",
"46 84 OFFCURVE",
"157 -8 OFFCURVE",
"299 -8 CURVE SMOOTH",
"437 -8 OFFCURVE",
"554 76 OFFCURVE",
"554 205 CURVE SMOOTH"
);
},
{
closed = 1;
nodes = (
"443 141 OFFCURVE",
"373 91 OFFCURVE",
"301 91 CURVE SMOOTH",
"232 91 OFFCURVE",
"159 137 OFFCURVE",
"159 212 CURVE SMOOTH",
"159 286 OFFCURVE",
"227 334 OFFCURVE",
"300 334 CURVE SMOOTH",
"369 334 OFFCURVE",
"443 289 OFFCURVE",
"443 212 CURVE SMOOTH"
);
},
{
closed = 1;
nodes = (
"181 574 OFFCURVE",
"237 612 OFFCURVE",
"300 612 CURVE SMOOTH",
"363 612 OFFCURVE",
"420 575 OFFCURVE",
"420 517 CURVE SMOOTH",
"420 453 OFFCURVE",
"356 418 OFFCURVE",
"300 418 CURVE SMOOTH",
"245 418 OFFCURVE",
"181 452 OFFCURVE",
"181 515 CURVE SMOOTH"
);
}
);
width = 601;
}
);
unicode = 0038;
},
{
color = 4;
glyphname = nine;
lastChange = "2014-12-04 11:12:22 +0000";
layers = (
{
layerId = "643E1A31-2BD5-4D48-BA91-7A3195B2D7C3";
name = Bold;
paths = (
{
closed = 1;
nodes = (
"42 336 OFFCURVE",
"150 231 OFFCURVE",
"288 231 CURVE SMOOTH",
"364 231 OFFCURVE",
"427 269 OFFCURVE",
"455 328 CURVE",
"454 175 OFFCURVE",
"389 87 OFFCURVE",
"289 87 CURVE SMOOTH",
"225 87 OFFCURVE",
"166 122 OFFCURVE",
"136 178 CURVE",
"71 110 LINE",
"118 34 OFFCURVE",
"197 -10 OFFCURVE",
"288 -10 CURVE SMOOTH",
"452 -10 OFFCURVE",
"558 130 OFFCURVE",
"558 401 CURVE SMOOTH",
"558 598 OFFCURVE",
"456 715 OFFCURVE",
"299 715 CURVE SMOOTH",
"154 715 OFFCURVE",
"42 607 OFFCURVE",
"42 469 CURVE SMOOTH"
);
},
{
closed = 1;
nodes = (
"380 622 OFFCURVE",
"450 552 OFFCURVE",
"450 469 CURVE SMOOTH",
"450 388 OFFCURVE",
"381 320 OFFCURVE",
"299 320 CURVE SMOOTH",
"217 320 OFFCURVE",
"148 388 OFFCURVE",
"148 470 CURVE SMOOTH",
"148 553 OFFCURVE",
"216 622 OFFCURVE",
"298 622 CURVE SMOOTH"
);
}
);
width = 606;
}
);
rightKerningGroup = nine.lnum;
unicode = 0039;
},
{
color = 4;
glyphname = colon;
lastChange = "2014-12-09 16:29:24 +0000";
layers = (
{
layerId = "643E1A31-2BD5-4D48-BA91-7A3195B2D7C3";
name = Bold;
paths = (
{
closed = 1;
nodes = (
"145 396 OFFCURVE",
"174 425 OFFCURVE",
"174 461 CURVE SMOOTH",
"174 496 OFFCURVE",
"145 525 OFFCURVE",
"110 525 CURVE SMOOTH",
"74 525 OFFCURVE",
"45 496 OFFCURVE",
"45 461 CURVE SMOOTH",
"45 425 OFFCURVE",
"74 396 OFFCURVE",
"110 396 CURVE SMOOTH"
);
},
{
closed = 1;
nodes = (
"145 -9 OFFCURVE",
"174 20 OFFCURVE",
"174 56 CURVE SMOOTH",
"174 91 OFFCURVE",
"145 120 OFFCURVE",
"110 120 CURVE SMOOTH",
"74 120 OFFCURVE",
"45 91 OFFCURVE",
"45 56 CURVE SMOOTH",
"45 20 OFFCURVE",
"74 -9 OFFCURVE",
"110 -9 CURVE SMOOTH"
);
}
);
width = 223;
}
);
leftKerningGroup = colon;
rightKerningGroup = colon;
unicode = 003A;
},
{
color = 4;
glyphname = semicolon;
lastChange = "2014-12-08 09:22:32 +0000";
layers = (
{
layerId = "643E1A31-2BD5-4D48-BA91-7A3195B2D7C3";
name = Bold;
paths = (
{
closed = 1;
nodes = (
"72 -140 LINE",
"-8 -140 LINE",
"59 95 LINE",
"168 95 LINE"
);
},
{
closed = 1;
nodes = (
"145 396 OFFCURVE",
"174 425 OFFCURVE",
"174 461 CURVE SMOOTH",
"174 496 OFFCURVE",
"145 525 OFFCURVE",
"110 525 CURVE SMOOTH",
"74 525 OFFCURVE",
"45 496 OFFCURVE",
"45 461 CURVE SMOOTH",
"45 425 OFFCURVE",
"74 396 OFFCURVE",
"110 396 CURVE SMOOTH"
);
}
);
width = 239;
}
);
leftKerningGroup = colon;
rightKerningGroup = colon;
unicode = 003B;
},
{
glyphname = less;
layers = (
{
layerId = "643E1A31-2BD5-4D48-BA91-7A3195B2D7C3";
name = Bold;
paths = (
{
closed = 1;
nodes = (
"33 229 LINE",
"453 -21 LINE",
"453 101 LINE",
"192 259 LINE",
"453 421 LINE",
"453 538 LINE",
"33 284 LINE"
);
}
);
width = 512;
}
);
unicode = 003C;
},
{
glyphname = equal;
layers = (
{
layerId = "643E1A31-2BD5-4D48-BA91-7A3195B2D7C3";
name = Bold;
paths = (
{
closed = 1;
nodes = (
"373 162 LINE",
"373 235 LINE",
"64 235 LINE",
"64 162 LINE"
);
},
{
closed = 1;
nodes = (
"373 317 LINE",
"373 390 LINE",
"64 390 LINE",
"64 317 LINE"
);
}
);
width = 438;
}
);
unicode = 003D;
},
{
glyphname = greater;
layers = (
{
layerId = "643E1A31-2BD5-4D48-BA91-7A3195B2D7C3";
name = Bold;
paths = (
{
closed = 1;
nodes = (
"480 284 LINE",
"59 538 LINE",
"59 421 LINE",
"320 259 LINE",
"59 101 LINE",
"59 -21 LINE",
"480 229 LINE"
);
}
);
width = 512;
}
);
unicode = 003E;
},
{
color = 4;
glyphname = question;
lastChange = "2014-12-08 09:29:40 +0000";
layers = (
{
layerId = "643E1A31-2BD5-4D48-BA91-7A3195B2D7C3";
name = Bold;
paths = (
{
closed = 1;
nodes = (
"225 221 LINE",
"225 296 OFFCURVE",
"276 323 OFFCURVE",
"330 353 CURVE SMOOTH",
"395 389 OFFCURVE",
"446 432 OFFCURVE",
"446 524 CURVE SMOOTH",
"446 660 OFFCURVE",
"343 719 OFFCURVE",
"243 719 CURVE SMOOTH",
"153 719 OFFCURVE",
"70 672 OFFCURVE",
"34 590 CURVE",
"106 541 LINE",
"131 585 OFFCURVE",
"177 629 OFFCURVE",
"240 629 CURVE SMOOTH",
"296 629 OFFCURVE",
"350 593 OFFCURVE",
"350 528 CURVE SMOOTH",
"350 445 OFFCURVE",
"261 409 OFFCURVE",
"216 382 CURVE SMOOTH",
"153 343 OFFCURVE",
"133 290 OFFCURVE",
"133 221 CURVE"
);
},
{
closed = 1;
nodes = (
"220 -7 OFFCURVE",
"253 26 OFFCURVE",
"253 66 CURVE SMOOTH",
"253 106 OFFCURVE",
"220 139 OFFCURVE",
"180 139 CURVE SMOOTH",
"139 139 OFFCURVE",
"107 106 OFFCURVE",
"107 66 CURVE SMOOTH",
"107 26 OFFCURVE",
"139 -7 OFFCURVE",
"180 -7 CURVE SMOOTH"
);
}
);
width = 482;
}
);
leftKerningGroup = question;
unicode = 003F;
},
{
glyphname = at;
layers = (
{
layerId = "643E1A31-2BD5-4D48-BA91-7A3195B2D7C3";
name = Bold;
paths = (
{
closed = 1;
nodes = (
"223 603 OFFCURVE",
"44 463 OFFCURVE",
"44 230 CURVE SMOOTH",
"44 9 OFFCURVE",
"208 -146 OFFCURVE",
"407 -146 CURVE SMOOTH",
"465 -146 OFFCURVE",
"524 -133 OFFCURVE",
"579 -106 CURVE",
"563 -62 LINE",
"514 -84 OFFCURVE",
"470 -100 OFFCURVE",
"408 -100 CURVE SMOOTH",
"222 -100 OFFCURVE",
"93 48 OFFCURVE",
"93 230 CURVE SMOOTH",
"93 419 OFFCURVE",
"231 557 OFFCURVE",
"417 557 CURVE SMOOTH",
"607 557 OFFCURVE",
"742 413 OFFCURVE",
"742 224 CURVE SMOOTH",
"742 162 OFFCURVE",
"725 36 OFFCURVE",
"649 36 CURVE SMOOTH",
"603 36 OFFCURVE",
"599 85 OFFCURVE",
"599 144 CURVE SMOOTH",
"599 252 LINE SMOOTH",
"599 344 OFFCURVE",
"587 459 OFFCURVE",
"423 459 CURVE SMOOTH",
"361 459 OFFCURVE",
"304 441 OFFCURVE",
"255 409 CURVE",
"277 349 LINE",
"312 377 OFFCURVE",
"359 394 OFFCURVE",
"413 394 CURVE SMOOTH",
"507 394 OFFCURVE",
"531 339 OFFCURVE",
"531 258 CURVE",
"511 266 OFFCURVE",
"468 280 OFFCURVE",
"412 280 CURVE SMOOTH",
"323 280 OFFCURVE",
"226 245 OFFCURVE",
"226 138 CURVE SMOOTH",
"226 58 OFFCURVE",
"280 0 OFFCURVE",
"378 0 CURVE SMOOTH",
"447 0 OFFCURVE",
"509 29 OFFCURVE",
"548 70 CURVE",
"553 28 OFFCURVE",
"569 -16 OFFCURVE",
"639 -16 CURVE SMOOTH",
"780 -16 OFFCURVE",
"791 165 OFFCURVE",
"791 222 CURVE SMOOTH",
"791 462 OFFCURVE",
"617 603 OFFCURVE",
"420 603 CURVE SMOOTH"
);
},
{
closed = 1;
nodes = (
"448 69 OFFCURVE",
"413 60 OFFCURVE",
"384 60 CURVE SMOOTH",
"328 60 OFFCURVE",
"294 94 OFFCURVE",
"294 141 CURVE SMOOTH",
"294 203 OFFCURVE",
"347 225 OFFCURVE",
"412 225 CURVE SMOOTH",
"467 225 OFFCURVE",
"512 208 OFFCURVE",
"530 204 CURVE",
"530 166 LINE SMOOTH",
"530 134 OFFCURVE",
"518 102 OFFCURVE",
"474 81 CURVE SMOOTH"
);
}
);
width = 843;
}
);
leftKerningGroup = at;
rightKerningGroup = at;
unicode = 0040;
},
{
glyphname = A;
lastChange = "2014-12-07 20:02:42 +0000";
layers = (
{
anchors = (
{
name = ogonek;
position = "{607, 10}";
},
{
name = top;
position = "{338, 710}";
}
);
layerId = "643E1A31-2BD5-4D48-BA91-7A3195B2D7C3";
name = Bold;
paths = (
{
closed = 1;
nodes = (
"7 0 LINE",
"126 0 LINE",
"200 193 LINE",
"474 193 LINE",
"549 0 LINE",
"667 0 LINE",
"387 710 LINE",
"289 710 LINE"
);
},
{
closed = 1;
nodes = (
"220 276 LINE",
"338 581 LINE",
"452 276 LINE"
);
}
);
width = 675;
}
);
leftKerningGroup = A;
rightKerningGroup = A;
unicode = 0041;
},
{
glyphname = B;
layers = (
{
layerId = "643E1A31-2BD5-4D48-BA91-7A3195B2D7C3";
name = Bold;
paths = (
{
closed = 1;
nodes = (
"638 273 OFFCURVE",
"587 340 OFFCURVE",
"506 364 CURVE",
"571 393 OFFCURVE",
"608 460 OFFCURVE",
"608 529 CURVE SMOOTH",
"608 618 OFFCURVE",
"546 710 OFFCURVE",
"446 710 CURVE SMOOTH",
"80 710 LINE",
"80 0 LINE",
"419 0 LINE SMOOTH",
"539 0 OFFCURVE",
"638 69 OFFCURVE",
"638 183 CURVE SMOOTH"
);
},
{
closed = 1;
nodes = (
"523 146 OFFCURVE",
"478 97 OFFCURVE",
"419 97 CURVE SMOOTH",
"192 97 LINE",
"192 314 LINE",
"426 314 LINE SMOOTH",
"482 314 OFFCURVE",
"523 262 OFFCURVE",
"523 204 CURVE SMOOTH"
);
},
{
closed = 1;
nodes = (
"404 613 LINE SMOOTH",
"457 613 OFFCURVE",
"496 569 OFFCURVE",
"496 508 CURVE SMOOTH",
"496 448 OFFCURVE",
"453 404 OFFCURVE",
"398 404 CURVE SMOOTH",
"192 404 LINE",
"192 613 LINE"
);
}
);
width = 675;
}
);
leftKerningGroup = B;
rightKerningGroup = B;
unicode = 0042;
},
{
glyphname = C;
lastChange = "2014-12-26 21:51:28 +0000";
layers = (
{
anchors = (
{
name = bottom;
position = "{342, 0}";
},
{
name = top;
position = "{379, 710}";
}
);
layerId = "643E1A31-2BD5-4D48-BA91-7A3195B2D7C3";
name = Bold;
paths = (
{
closed = 1;
nodes = (
"35 180 OFFCURVE",
"175 -6 OFFCURVE",
"374 -6 CURVE SMOOTH",
"486 -6 OFFCURVE",
"616 53 OFFCURVE",
"660 159 CURVE",
"567 212 LINE",
"530 129 OFFCURVE",
"447 95 OFFCURVE",
"378 95 CURVE SMOOTH",
"245 95 OFFCURVE",
"149 218 OFFCURVE",
"149 356 CURVE SMOOTH",
"149 480 OFFCURVE",
"227 613 OFFCURVE",
"375 613 CURVE SMOOTH",
"443 613 OFFCURVE",
"522 586 OFFCURVE",
"561 500 CURVE",
"649 559 LINE",
"603 650 OFFCURVE",
"507 714 OFFCURVE",
"379 714 CURVE SMOOTH",
"162 714 OFFCURVE",
"35 532 OFFCURVE",
"35 360 CURVE SMOOTH"
);
}
);
width = 684;
}
);
leftKerningGroup = C;
rightKerningGroup = C;
unicode = 0043;
},
{
glyphname = D;
lastChange = "2014-12-08 10:30:54 +0000";
layers = (
{
anchors = (
{
name = bottom;
position = "{297, -0}";
},
{
name = center;
position = "{358, 355}";
},
{
name = top;
position = "{306, 710}";
}
);
layerId = "643E1A31-2BD5-4D48-BA91-7A3195B2D7C3";
name = Bold;
paths = (
{
closed = 1;
nodes = (
"332 0 LINE SMOOTH",
"542 0 OFFCURVE",
"678 141 OFFCURVE",
"678 356 CURVE SMOOTH",
"678 552 OFFCURVE",
"561 710 OFFCURVE",
"332 710 CURVE SMOOTH",
"80 710 LINE",
"80 0 LINE"
);
},
{
closed = 1;
nodes = (
"564 210 OFFCURVE",
"482 99 OFFCURVE",
"332 99 CURVE SMOOTH",
"192 99 LINE",
"192 611 LINE",
"332 611 LINE SMOOTH",
"479 611 OFFCURVE",
"564 505 OFFCURVE",
"564 356 CURVE SMOOTH"
);
}
);
width = 716;
}
);
leftKerningGroup = B;
rightKerningGroup = D;
unicode = 0044;
},
{
glyphname = E;
lastChange = "2014-12-07 20:12:06 +0000";
layers = (
{
anchors = (
{
name = bottom;
position = "{302, 0}";
},
{
name = ogonek;
position = "{543, 10}";
},
{
name = top;
position = "{320, 710}";
}
);
layerId = "643E1A31-2BD5-4D48-BA91-7A3195B2D7C3";
name = Bold;
paths = (
{
closed = 1;
nodes = (
"192 99 LINE",
"192 316 LINE",
"509 316 LINE",
"509 409 LINE",
"192 409 LINE",
"192 611 LINE",
"558 611 LINE",
"558 710 LINE",
"80 710 LINE",
"80 0 LINE",
"567 0 LINE",
"567 99 LINE"
);
}
);
width = 603;
}
);
leftKerningGroup = B;
rightKerningGroup = E;
unicode = 0045;
},
{
glyphname = F;
layers = (
{
layerId = "643E1A31-2BD5-4D48-BA91-7A3195B2D7C3";
name = Bold;
paths = (
{
closed = 1;
nodes = (
"192 0 LINE",
"192 306 LINE",
"494 306 LINE",
"494 399 LINE",
"192 399 LINE",
"192 611 LINE",
"553 611 LINE",
"553 710 LINE",
"80 710 LINE",
"80 0 LINE"
);
}
);
width = 579;
}
);
leftKerningGroup = B;
rightKerningGroup = F;
unicode = 0046;
},
{
color = 6;
glyphname = G;
lastChange = "2015-01-02 11:54:43 +0000";
layers = (
{
anchors = (
{
name = bottom;
position = "{393, 0}";
},
{
name = top;
position = "{386, 715}";
}
);
layerId = "643E1A31-2BD5-4D48-BA91-7A3195B2D7C3";
name = Bold;
paths = (
{
closed = 1;
nodes = (
"582 -5 OFFCURVE",
"722 140 OFFCURVE",
"732 308 CURVE",
"733 322 OFFCURVE",
"734 353 OFFCURVE",
"733 366 CURVE",
"436 366 LINE",
"436 266 LINE",
"615 266 LINE",
"605 177 OFFCURVE",
"498 96 OFFCURVE",
"379 96 CURVE SMOOTH",
"230 96 OFFCURVE",
"140 224 OFFCURVE",
"140 354 CURVE SMOOTH",
"140 492 OFFCURVE",
"235 614 OFFCURVE",
"379 614 CURVE SMOOTH",
"478 614 OFFCURVE",
"565 551 OFFCURVE",
"593 494 CURVE",
"684 554 LINE",
"629 646 OFFCURVE",
"516 715 OFFCURVE",
"386 715 CURVE SMOOTH",
"175 715 OFFCURVE",
"31 552 OFFCURVE",
"31 359 CURVE SMOOTH",
"31 167 OFFCURVE",
"177 -5 OFFCURVE",
"389 -5 CURVE SMOOTH"
);
}
);
width = 760;
}
);
leftKerningGroup = C;
rightKerningGroup = G.alt;
unicode = 0047;
},
{
glyphname = H;
lastChange = "2014-12-07 21:36:53 +0000";
layers = (
{
anchors = (
{
name = center;
position = "{372, 355}";
},
{
name = top;
position = "{372, 710}";
}
);
layerId = "643E1A31-2BD5-4D48-BA91-7A3195B2D7C3";
name = Bold;
paths = (
{
closed = 1;
nodes = (
"550 710 LINE",
"550 413 LINE",
"192 413 LINE",
"192 710 LINE",
"80 710 LINE",
"80 0 LINE",
"192 0 LINE",
"192 313 LINE",
"550 313 LINE",
"550 0 LINE",
"663 0 LINE",
"663 710 LINE"
);
}
);
width = 743;
}
);
leftKerningGroup = B;
rightKerningGroup = H;
unicode = 0048;
},
{
glyphname = I;
lastChange = "2014-12-07 20:13:53 +0000";
layers = (
{
anchors = (
{
name = ogonek;
position = "{245, 10}";
},
{
name = top;
position = "{136, 710}";
}
);
layerId = "643E1A31-2BD5-4D48-BA91-7A3195B2D7C3";
name = Bold;
paths = (
{
closed = 1;
nodes = (
"192 0 LINE",
"192 710 LINE",
"80 710 LINE",
"80 0 LINE"
);
}
);
width = 272;
}
);
leftKerningGroup = B;
rightKerningGroup = H;
unicode = 0049;
},
{
color = 6;
glyphname = J;
lastChange = "2015-01-02 11:51:09 +0000";
layers = (
{
anchors = (
{
name = top;
position = "{403, 710}";
}
);
layerId = "643E1A31-2BD5-4D48-BA91-7A3195B2D7C3";
name = Bold;
paths = (
{
closed = 1;
nodes = (
"121 117 OFFCURVE",
"159 91 OFFCURVE",
"220 91 CURVE",
"289 91 OFFCURVE",
"351 135 OFFCURVE",
"351 243 CURVE",
"351 710 LINE",
"457 710 LINE",
"457 238 LINE",
"461 72 OFFCURVE",
"350 -9 OFFCURVE",
"216 -9 CURVE",
"117 -9 OFFCURVE",
"35 42 OFFCURVE",
"5 133 CURVE",
"96 174 LINE"
);
}
);
width = 488;
}
);
leftKerningGroup = J;
rightKerningGroup = J;
unicode = 004A;
},
{
glyphname = K;
lastChange = "2014-12-08 10:06:55 +0000";
layers = (
{
anchors = (
{
name = bottom;
position = "{330, 0}";
},
{
name = top;
position = "{330, 710}";
}
);
layerId = "643E1A31-2BD5-4D48-BA91-7A3195B2D7C3";
name = Bold;
paths = (
{
closed = 1;
nodes = (
"192 0 LINE",
"192 214 LINE",
"301 327 LINE",
"541 0 LINE",
"666 0 LINE",
"370 396 LINE",
"650 710 LINE",
"526 710 LINE",
"192 344 LINE",
"192 709 LINE",
"80 709 LINE",
"80 0 LINE"
);
}
);
width = 660;
}
);
leftKerningGroup = B;
rightKerningGroup = K;
unicode = 004B;
},
{
glyphname = L;
lastChange = "2014-12-08 10:08:39 +0000";
layers = (
{
anchors = (
{
name = bottom;
position = "{292, 0}";
},
{
name = top;
position = "{139, 710}";
},
{
name = topright;
position = "{249, 523}";
}
);
layerId = "643E1A31-2BD5-4D48-BA91-7A3195B2D7C3";
name = Bold;
paths = (
{
closed = 1;
nodes = (
"573 0 LINE",
"573 99 LINE",
"192 99 LINE",
"192 710 LINE",
"80 710 LINE",
"80 0 LINE"
);
}
);
width = 584;
}
);
leftKerningGroup = B;
rightKerningGroup = L;
unicode = 004C;
},
{
glyphname = M;
layers = (
{
layerId = "643E1A31-2BD5-4D48-BA91-7A3195B2D7C3";
name = Bold;
paths = (
{
closed = 1;
nodes = (
"790 0 LINE",
"790 710 LINE",
"670 710 LINE",
"435 276 LINE",
"200 710 LINE",
"80 710 LINE",
"80 0 LINE",
"192 0 LINE",
"192 511 LINE",
"404 124 LINE",
"466 124 LINE",
"677 511 LINE",
"677 0 LINE"
);
}
);
width = 870;
}
);
leftKerningGroup = B;
rightKerningGroup = H;
unicode = 004D;
},
{
glyphname = N;
lastChange = "2014-12-07 21:40:01 +0000";
layers = (
{
anchors = (
{
name = bottom;
position = "{384, 0}";
},
{
name = top;
position = "{384, 710}";
}
);
layerId = "643E1A31-2BD5-4D48-BA91-7A3195B2D7C3";
name = Bold;
paths = (
{
closed = 1;
nodes = (
"594 0 LINE",
"687 0 LINE",
"687 709 LINE",
"574 709 LINE",
"574 198 LINE",
"168 710 LINE",
"80 710 LINE",
"80 0 LINE",
"192 0 LINE",
"192 500 LINE"
);
}
);
width = 767;
}
);
leftKerningGroup = B;
rightKerningGroup = H;
unicode = 004E;
},
{
glyphname = O;
lastChange = "2014-12-07 20:19:36 +0000";
layers = (
{
anchors = (
{
name = top;
position = "{376, 710}";
}
);
layerId = "643E1A31-2BD5-4D48-BA91-7A3195B2D7C3";
name = Bold;
paths = (
{
closed = 1;
nodes = (
"571 -5 OFFCURVE",
"716 165 OFFCURVE",
"716 354 CURVE SMOOTH",
"716 532 OFFCURVE",
"580 715 OFFCURVE",
"377 715 CURVE SMOOTH",
"181 715 OFFCURVE",
"35 544 OFFCURVE",
"35 355 CURVE SMOOTH",
"35 173 OFFCURVE",
"172 -5 OFFCURVE",
"375 -5 CURVE SMOOTH"
);
},
{
closed = 1;
nodes = (
"149 483 OFFCURVE",
"233 613 OFFCURVE",
"376 613 CURVE SMOOTH",
"512 613 OFFCURVE",
"601 490 OFFCURVE",
"601 355 CURVE SMOOTH",
"601 228 OFFCURVE",
"519 96 OFFCURVE",
"376 96 CURVE SMOOTH",
"237 96 OFFCURVE",
"149 221 OFFCURVE",
"149 355 CURVE SMOOTH"
);
}
);
width = 752;
}
);
leftKerningGroup = C;
rightKerningGroup = O;
unicode = 004F;
},
{
glyphname = P;
layers = (
{
layerId = "643E1A31-2BD5-4D48-BA91-7A3195B2D7C3";
name = Bold;
paths = (
{
closed = 1;
nodes = (
"192 0 LINE",
"192 247 LINE",
"384 247 LINE SMOOTH",
"512 247 OFFCURVE",
"598 360 OFFCURVE",
"598 479 CURVE SMOOTH",
"598 593 OFFCURVE",
"506 710 OFFCURVE",
"378 710 CURVE SMOOTH",
"80 710 LINE",
"80 0 LINE"
);
},
{
closed = 1;
nodes = (
"192 611 LINE",
"371 611 LINE SMOOTH",
"431 611 OFFCURVE",
"484 558 OFFCURVE",
"484 479 CURVE SMOOTH",
"484 403 OFFCURVE",
"440 346 OFFCURVE",
"377 346 CURVE SMOOTH",
"192 346 LINE"
);
}
);
width = 623;
}
);
leftKerningGroup = B;
rightKerningGroup = P;
unicode = 0050;
},
{
color = 6;
glyphname = Q;
lastChange = "2015-01-02 11:51:29 +0000";
layers = (
{
layerId = "643E1A31-2BD5-4D48-BA91-7A3195B2D7C3";
name = Bold;
paths = (
{
closed = 1;
nodes = (
"634 -32 LINE",
"696 23 LINE",
"621 106 LINE",
"680 172 OFFCURVE",
"716 260 OFFCURVE",
"716 354 CURVE SMOOTH",
"716 532 OFFCURVE",
"580 715 OFFCURVE",
"377 715 CURVE SMOOTH",
"181 715 OFFCURVE",
"35 544 OFFCURVE",
"35 355 CURVE SMOOTH",
"35 173 OFFCURVE",
"172 -4 OFFCURVE",
"375 -5 CURVE SMOOTH",
"444 -5 OFFCURVE",
"507 16 OFFCURVE",
"560 52 CURVE"
);
},
{
closed = 1;
nodes = (
"237 96 OFFCURVE",
"149 221 OFFCURVE",
"149 355 CURVE SMOOTH",
"149 483 OFFCURVE",
"233 614 OFFCURVE",
"376 614 CURVE SMOOTH",
"512 614 OFFCURVE",
"601 490 OFFCURVE",
"601 355 CURVE SMOOTH",
"601 296 OFFCURVE",
"583 235 OFFCURVE",
"549 188 CURVE",
"476 270 LINE",
"415 216 LINE",
"491 130 LINE",
"459 109 OFFCURVE",
"420 96 OFFCURVE",
"376 96 CURVE SMOOTH"
);
}
);
width = 750;
}
);
leftKerningGroup = C;
rightKerningGroup = O;
unicode = 0051;
},
{
glyphname = R;
lastChange = "2014-12-07 21:38:01 +0000";
layers = (
{
anchors = (
{
name = bottom;
position = "{331, 0}";
},
{
name = top;
position = "{306, 710}";
}
);
layerId = "643E1A31-2BD5-4D48-BA91-7A3195B2D7C3";
name = Bold;
paths = (
{
closed = 1;
nodes = (
"192 0 LINE",
"192 247 LINE",
"356 247 LINE",
"510 0 LINE",
"637 0 LINE",
"470 270 LINE",
"554 297 OFFCURVE",
"609 384 OFFCURVE",
"609 479 CURVE SMOOTH",
"609 593 OFFCURVE",
"517 710 OFFCURVE",
"389 710 CURVE SMOOTH",
"80 710 LINE",
"80 0 LINE"
);
},
{
closed = 1;
nodes = (
"192 611 LINE",
"382 611 LINE SMOOTH",
"441 611 OFFCURVE",
"495 552 OFFCURVE",
"495 479 CURVE SMOOTH",
"495 407 OFFCURVE",
"451 346 OFFCURVE",
"388 346 CURVE SMOOTH",
"192 346 LINE"
);
}
);
width = 661;
}
);
leftKerningGroup = B;
rightKerningGroup = R;
unicode = 0052;
},
{
glyphname = T;
lastChange = "2014-12-07 21:39:08 +0000";
layers = (
{
anchors = (
{
name = bottom;
position = "{308, 0}";
},
{
name = center;
position = "{308, 355}";
},
{
name = top;
position = "{308, 710}";
}
);
layerId = "643E1A31-2BD5-4D48-BA91-7A3195B2D7C3";
name = Bold;
paths = (
{
closed = 1;
nodes = (
"601 710 LINE",
"15 710 LINE",
"15 611 LINE",
"252 611 LINE",
"252 0 LINE",
"365 0 LINE",
"365 611 LINE",
"601 611 LINE"
);
}
);
width = 616;
}
);
leftKerningGroup = T;
rightKerningGroup = T;
unicode = 0054;
},
{
glyphname = U;
lastChange = "2014-12-07 20:20:35 +0000";
layers = (
{
anchors = (
{
name = ogonek;
position = "{677, 10}";
},
{
name = top;
position = "{385, 710}";
}
);
layerId = "643E1A31-2BD5-4D48-BA91-7A3195B2D7C3";
name = Bold;
paths = (
{
closed = 1;
nodes = (
"229 96 OFFCURVE",
"182 220 OFFCURVE",
"182 350 CURVE SMOOTH",
"182 710 LINE",
"70 710 LINE",
"70 350 LINE SMOOTH",
"70 166 OFFCURVE",
"150 -5 OFFCURVE",
"376 -5 CURVE SMOOTH",
"595 -5 OFFCURVE",
"683 156 OFFCURVE",
"683 350 CURVE SMOOTH",
"683 710 LINE",
"570 710 LINE",
"570 350 LINE SMOOTH",
"570 223 OFFCURVE",
"525 96 OFFCURVE",
"376 96 CURVE SMOOTH"
);
}
);
width = 752;
}
);
leftKerningGroup = U;
rightKerningGroup = U;
unicode = 0055;
},
{
glyphname = V;
layers = (
{
layerId = "643E1A31-2BD5-4D48-BA91-7A3195B2D7C3";
name = Bold;
paths = (
{
closed = 1;
nodes = (
"6 710 LINE",
"291 0 LINE",
"387 0 LINE",
"671 710 LINE",
"552 710 LINE",
"339 141 LINE",
"125 710 LINE"
);
}
);
width = 678;
}
);
leftKerningGroup = V;
rightKerningGroup = V;
unicode = 0056;
},
{
color = 4;
glyphname = W;
lastChange = "2014-12-07 21:39:21 +0000";
layers = (
{
anchors = (
{
name = top;
position = "{547, 710}";
}
);
layerId = "643E1A31-2BD5-4D48-BA91-7A3195B2D7C3";
name = Bold;
paths = (
{
closed = 1;
nodes = (
"951 710 LINE",
"785 168 LINE",
"605 710 LINE",
"482 710 LINE",
"307 168 LINE",
"141 710 LINE",
"14 710 LINE",
"238 0 LINE",
"355 0 LINE",
"544 526 LINE",
"737 0 LINE",
"855 0 LINE",
"1078 710 LINE"
);
}
);
width = 1093;
}
);
leftKerningGroup = W.alt;
rightKerningGroup = W.alt;
unicode = 0057;
},
{
glyphname = X;
layers = (
{
layerId = "643E1A31-2BD5-4D48-BA91-7A3195B2D7C3";
name = Bold;
paths = (
{
closed = 1;
nodes = (
"0 710 LINE",
"261 350 LINE",
"8 0 LINE",
"132 0 LINE",
"321 270 LINE",
"510 0 LINE",
"633 0 LINE",
"381 350 LINE",
"641 710 LINE",
"518 710 LINE",
"321 430 LINE",
"124 710 LINE"
);
}
);
width = 641;
}
);
leftKerningGroup = X;
rightKerningGroup = X;
unicode = 0058;
},
{
glyphname = Y;
lastChange = "2014-12-07 20:21:34 +0000";
layers = (
{
anchors = (
{
name = top;
position = "{331, 710}";
}
);
layerId = "643E1A31-2BD5-4D48-BA91-7A3195B2D7C3";
name = Bold;
paths = (
{
closed = 1;
nodes = (
"9 710 LINE",
"272 256 LINE",
"272 0 LINE",
"384 0 LINE",
"384 254 LINE",
"649 710 LINE",
"526 710 LINE",
"328 354 LINE",
"132 710 LINE"
);
}
);
width = 657;
}
);
leftKerningGroup = Y;
rightKerningGroup = Y;
unicode = 0059;
},
{
glyphname = Z;
lastChange = "2014-12-08 10:19:16 +0000";
layers = (
{
anchors = (
{
name = top;
position = "{315, 710}";
}
);
layerId = "643E1A31-2BD5-4D48-BA91-7A3195B2D7C3";
name = Bold;
paths = (
{
closed = 1;
nodes = (
"31 0 LINE",
"594 0 LINE",
"594 99 LINE",
"172 99 LINE",
"593 624 LINE",
"593 710 LINE",
"41 710 LINE",
"41 611 LINE",
"462 611 LINE",
"31 86 LINE"
);
}
);
width = 629;
}
);
leftKerningGroup = Z;
rightKerningGroup = Z;
unicode = 005A;
},
{
glyphname = bracketleft;
layers = (
{
layerId = "643E1A31-2BD5-4D48-BA91-7A3195B2D7C3";
name = Bold;
paths = (
{
closed = 1;
nodes = (
"246 -40 LINE",
"246 49 LINE",
"185 49 LINE",
"185 651 LINE",
"246 651 LINE",
"246 740 LINE",
"83 740 LINE",
"83 -40 LINE"
);
}
);
width = 292;
}
);
rightKerningGroup = bracketleft;
unicode = 005B;
},
{
color = 6;
glyphname = backslash;
lastChange = "2014-12-26 18:37:31 +0000";
layers = (
{
layerId = "643E1A31-2BD5-4D48-BA91-7A3195B2D7C3";
name = Bold;
paths = (
{
closed = 1;
nodes = (
"324 -37 LINE",
"425 0 LINE",
"106 745 LINE",
"6 710 LINE"
);
}
);
width = 430;
}
);
leftKerningGroup = backslash;
rightKerningGroup = backslash;
unicode = 005C;
},
{
glyphname = bracketright;
layers = (
{
layerId = "643E1A31-2BD5-4D48-BA91-7A3195B2D7C3";
name = Bold;
paths = (
{
closed = 1;
nodes = (
"209 -40 LINE",
"209 740 LINE",
"46 740 LINE",
"46 651 LINE",
"107 651 LINE",
"107 49 LINE",
"46 49 LINE",
"46 -40 LINE"
);
}
);
width = 292;
}
);
leftKerningGroup = bracketright;
unicode = 005D;
},
{
glyphname = asciicircum;
layers = (
{
layerId = "643E1A31-2BD5-4D48-BA91-7A3195B2D7C3";
name = Bold;
paths = (
{
closed = 1;
nodes = (
"131 303 LINE",
"285 615 LINE",
"436 303 LINE",
"528 303 LINE",
"331 710 LINE",
"239 710 LINE",
"41 303 LINE"
);
}
);
width = 569;
}
);
unicode = 005E;
},
{
glyphname = underscore;
layers = (
{
layerId = "643E1A31-2BD5-4D48-BA91-7A3195B2D7C3";
name = Bold;
paths = (
{
closed = 1;
nodes = (
"431 -99 LINE",
"431 0 LINE",
"59 0 LINE",
"59 -99 LINE"
);
}
);
width = 490;
}
);
unicode = 005F;
},
{
color = 9;
glyphname = grave;
lastChange = "2015-01-02 11:49:48 +0000";
layers = (
{
anchors = (
{
name = _top;
position = "{195, 523}";
}
);
layerId = "643E1A31-2BD5-4D48-BA91-7A3195B2D7C3";
name = Bold;
paths = (
{
closed = 1;
nodes = (
"162 596 LINE",
"226 596 LINE",
"138 751 LINE",
"13 751 LINE"
);
}
);
width = 243;
}
);
unicode = 0060;
},
{
color = 4;
glyphname = a;
lastChange = "2014-12-08 10:04:25 +0000";
layers = (
{
anchors = (
{
name = ogonek;
position = "{508, 10}";
},
{
name = top;
position = "{293, 523}";
}
);
layerId = "643E1A31-2BD5-4D48-BA91-7A3195B2D7C3";
name = Bold;
paths = (
{
closed = 1;
nodes = (
"513 0 LINE",
"513 319 LINE SMOOTH",
"513 450 OFFCURVE",
"432 532 OFFCURVE",
"285 532 CURVE SMOOTH",
"207 532 OFFCURVE",
"137 505 OFFCURVE",
"75 464 CURVE",
"109 394 LINE",
"166 433 OFFCURVE",
"220 454 OFFCURVE",
"275 454 CURVE SMOOTH",
"357 454 OFFCURVE",
"403 407 OFFCURVE",
"403 331 CURVE SMOOTH",
"403 295 LINE",
"376 307 OFFCURVE",
"327 319 OFFCURVE",
"265 319 CURVE SMOOTH",
"152 319 OFFCURVE",
"44 263 OFFCURVE",
"44 154 CURVE SMOOTH",
"44 61 OFFCURVE",
"120 -10 OFFCURVE",
"221 -10 CURVE SMOOTH",
"295 -10 OFFCURVE",
"364 18 OFFCURVE",
"406 76 CURVE",
"406 0 LINE"
);
},
{
closed = 1;
nodes = (
"354 89 OFFCURVE",
"298 71 OFFCURVE",
"251 71 CURVE SMOOTH",
"195 71 OFFCURVE",
"148 109 OFFCURVE",
"148 163 CURVE SMOOTH",
"148 227 OFFCURVE",
"218 256 OFFCURVE",
"282 256 CURVE SMOOTH",
"321 256 OFFCURVE",
"364 248 OFFCURVE",
"403 233 CURVE",
"403 164 LINE SMOOTH",
"403 152 OFFCURVE",
"395 138 OFFCURVE",
"382 126 CURVE"
);
}
);
width = 564;
}
);
leftKerningGroup = a;
rightKerningGroup = a;
unicode = 0061;
},
{
glyphname = b;
layers = (
{
layerId = "643E1A31-2BD5-4D48-BA91-7A3195B2D7C3";
name = Bold;
paths = (
{
closed = 1;
nodes = (
"488 -10 OFFCURVE",
"595 110 OFFCURVE",
"595 259 CURVE SMOOTH",
"595 403 OFFCURVE",
"503 532 OFFCURVE",
"363 532 CURVE SMOOTH",
"280 532 OFFCURVE",
"217 490 OFFCURVE",
"176 424 CURVE",
"176 730 LINE",
"66 730 LINE",
"66 0 LINE",
"163 0 LINE",
"163 95 LINE",
"200 31 OFFCURVE",
"268 -10 OFFCURVE",
"348 -10 CURVE SMOOTH"
);
},
{
closed = 1;
nodes = (
"262 84 OFFCURVE",
"192 127 OFFCURVE",
"176 187 CURVE",
"176 325 LINE",
"204 387 OFFCURVE",
"260 438 OFFCURVE",
"327 438 CURVE SMOOTH",
"418 438 OFFCURVE",
"482 353 OFFCURVE",
"482 259 CURVE SMOOTH",
"482 167 OFFCURVE",
"415 84 OFFCURVE",
"319 84 CURVE SMOOTH"
);
}
);
width = 628;
}
);
leftKerningGroup = b;
rightKerningGroup = b;
unicode = 0062;
},
{
glyphname = c;
lastChange = "2014-12-26 21:50:56 +0000";
layers = (
{
anchors = (
{
name = bottom;
position = "{280, 0}";
},
{
name = top;
position = "{303, 523}";
}
);
layerId = "643E1A31-2BD5-4D48-BA91-7A3195B2D7C3";
name = Bold;
paths = (
{
closed = 1;
nodes = (
"32 116 OFFCURVE",
"140 -10 OFFCURVE",
"303 -10 CURVE SMOOTH",
"413 -10 OFFCURVE",
"500 46 OFFCURVE",
"534 124 CURVE",
"426 156 LINE",
"410 116 OFFCURVE",
"356 84 OFFCURVE",
"302 84 CURVE SMOOTH",
"216 84 OFFCURVE",
"145 161 OFFCURVE",
"145 262 CURVE SMOOTH",
"145 365 OFFCURVE",
"213 438 OFFCURVE",
"301 438 CURVE SMOOTH",
"353 438 OFFCURVE",
"398 412 OFFCURVE",
"423 368 CURVE",
"530 402 LINE",
"491 480 OFFCURVE",
"411 532 OFFCURVE",
"303 532 CURVE SMOOTH",
"138 532 OFFCURVE",
"32 409 OFFCURVE",
"32 262 CURVE SMOOTH"
);
}
);
width = 559;
}
);
leftKerningGroup = c;
rightKerningGroup = c;
unicode = 0063;
},
{
color = 4;
glyphname = d;
lastChange = "2014-12-08 10:30:24 +0000";
layers = (
{
anchors = (
{
name = bottom;
position = "{318, -5}";
},
{
name = center;
position = "{315, 262}";
},
{
name = topright;
position = "{609, 523}";
}
);
layerId = "643E1A31-2BD5-4D48-BA91-7A3195B2D7C3";
name = Bold;
paths = (
{
closed = 1;
nodes = (
"563 0 LINE",
"563 730 LINE",
"453 730 LINE",
"453 424 LINE",
"414 486 OFFCURVE",
"350 532 OFFCURVE",
"268 532 CURVE SMOOTH",
"132 532 OFFCURVE",
"33 410 OFFCURVE",
"33 261 CURVE SMOOTH",
"33 113 OFFCURVE",
"137 -10 OFFCURVE",
"282 -10 CURVE SMOOTH",
"356 -10 OFFCURVE",
"417 27 OFFCURVE",
"453 87 CURVE",
"453 0 LINE"
);
},
{
closed = 1;
nodes = (
"453 188 LINE",
"439 129 OFFCURVE",
"368 84 OFFCURVE",
"310 84 CURVE SMOOTH",
"217 84 OFFCURVE",
"147 163 OFFCURVE",
"147 259 CURVE SMOOTH",
"147 350 OFFCURVE",
"209 438 OFFCURVE",
"301 438 CURVE SMOOTH",
"362 438 OFFCURVE",
"430 390 OFFCURVE",
"453 325 CURVE"
);
}
);
width = 629;
}
);
leftKerningGroup = d;
unicode = 0064;
},
{
glyphname = e;
lastChange = "2014-12-07 23:15:24 +0000";
layers = (
{
anchors = (
{
name = bottom;
position = "{298, 0}";
},
{
name = ogonek;
position = "{535, 10}";
},
{
name = top;
position = "{303, 523}";
}
);
layerId = "643E1A31-2BD5-4D48-BA91-7A3195B2D7C3";
name = Bold;
paths = (
{
closed = 1;
nodes = (
"413 -10 OFFCURVE",
"502 46 OFFCURVE",
"538 124 CURVE",
"444 151 LINE",
"424 103 OFFCURVE",
"366 71 OFFCURVE",
"307 71 CURVE SMOOTH",
"226 71 OFFCURVE",
"156 133 OFFCURVE",
"149 225 CURVE",
"568 225 LINE",
"569 234 OFFCURVE",
"571 249 OFFCURVE",
"571 265 CURVE SMOOTH",
"571 406 OFFCURVE",
"468 532 OFFCURVE",
"304 532 CURVE SMOOTH",
"140 532 OFFCURVE",
"32 408 OFFCURVE",
"32 260 CURVE SMOOTH",
"32 114 OFFCURVE",
"140 -10 OFFCURVE",
"303 -10 CURVE SMOOTH"
);
},
{
closed = 1;
nodes = (
"146 301 LINE",
"153 390 OFFCURVE",
"220 451 OFFCURVE",
"303 451 CURVE SMOOTH",
"387 451 OFFCURVE",
"453 390 OFFCURVE",
"462 301 CURVE"
);
}
);
width = 595;
}
);
leftKerningGroup = c;
rightKerningGroup = e;
unicode = 0065;
},
{
glyphname = f;
layers = (
{
layerId = "643E1A31-2BD5-4D48-BA91-7A3195B2D7C3";
name = Bold;
paths = (
{
closed = 1;
nodes = (
"206 0 LINE",
"206 425 LINE",
"340 425 LINE",
"340 510 LINE",
"206 510 LINE",
"206 534 LINE SMOOTH",
"206 607 OFFCURVE",
"234 647 OFFCURVE",
"286 647 CURVE SMOOTH",
"311 647 OFFCURVE",
"341 638 OFFCURVE",
"361 626 CURVE",
"385 708 LINE",
"348 728 OFFCURVE",
"305 740 OFFCURVE",
"263 740 CURVE SMOOTH",
"161 740 OFFCURVE",
"96 659 OFFCURVE",
"96 531 CURVE SMOOTH",
"96 510 LINE",
"26 510 LINE",
"26 425 LINE",
"96 425 LINE",
"96 0 LINE"
);
}
);
width = 356;
}
);
leftKerningGroup = f;
rightKerningGroup = f;
unicode = 0066;
},
{
glyphname = g;
lastChange = "2014-12-08 09:21:02 +0000";
layers = (
{
anchors = (
{
name = top;
position = "{315, 523}";
}
);
layerId = "643E1A31-2BD5-4D48-BA91-7A3195B2D7C3";
name = Bold;
paths = (
{
closed = 1;
nodes = (
"345 -5 OFFCURVE",
"416 32 OFFCURVE",
"453 95 CURVE",
"453 15 LINE SMOOTH",
"453 -91 OFFCURVE",
"375 -139 OFFCURVE",
"285 -139 CURVE SMOOTH",
"213 -139 OFFCURVE",
"146 -109 OFFCURVE",
"106 -53 CURVE",
"44 -111 LINE",
"96 -181 OFFCURVE",
"169 -223 OFFCURVE",
"285 -223 CURVE SMOOTH",
"443 -223 OFFCURVE",
"563 -136 OFFCURVE",
"563 15 CURVE SMOOTH",
"563 523 LINE",
"466 523 LINE",
"466 424 LINE",
"425 488 OFFCURVE",
"361 532 OFFCURVE",
"277 532 CURVE SMOOTH",
"134 532 OFFCURVE",
"34 410 OFFCURVE",
"34 261 CURVE SMOOTH",
"34 120 OFFCURVE",
"132 -5 OFFCURVE",
"273 -5 CURVE SMOOTH"
);
},
{
closed = 1;
nodes = (
"217 84 OFFCURVE",
"146 163 OFFCURVE",
"146 258 CURVE SMOOTH",
"146 348 OFFCURVE",
"206 438 OFFCURVE",
"301 438 CURVE SMOOTH",
"363 438 OFFCURVE",
"427 391 OFFCURVE",
"453 325 CURVE",
"453 188 LINE",
"437 133 OFFCURVE",
"375 84 OFFCURVE",
"309 84 CURVE SMOOTH"
);
}
);
width = 629;
}
);
leftKerningGroup = d;
rightKerningGroup = g;
unicode = 0067;
},
{
glyphname = h;
lastChange = "2014-12-09 10:29:43 +0000";
layers = (
{
anchors = (
{
name = center;
position = "{299, 262}";
},
{
name = top;
position = "{315, 710}";
}
);
layerId = "643E1A31-2BD5-4D48-BA91-7A3195B2D7C3";
name = Bold;
paths = (
{
closed = 1;
nodes = (
"535 319 LINE SMOOTH",
"535 433 OFFCURVE",
"500 532 OFFCURVE",
"370 532 CURVE SMOOTH",
"289 532 OFFCURVE",
"216 489 OFFCURVE",
"176 418 CURVE",
"176 730 LINE",
"66 730 LINE",
"66 0 LINE",
"176 0 LINE",
"176 311 LINE",
"198 383 OFFCURVE",
"266 434 OFFCURVE",
"326 434 CURVE SMOOTH",
"389 434 OFFCURVE",
"425 388 OFFCURVE",
"425 293 CURVE SMOOTH",
"425 0 LINE",
"535 0 LINE"
);
}
);
width = 597;
}
);
leftKerningGroup = b;
rightKerningGroup = h;
unicode = 0068;
},
{
glyphname = i;
lastChange = "2014-12-07 20:17:08 +0000";
layers = (
{
layerId = "643E1A31-2BD5-4D48-BA91-7A3195B2D7C3";
name = Bold;
paths = (
{
closed = 1;
nodes = (
"176 0 LINE",
"176 523 LINE",
"66 523 LINE",
"66 0 LINE"
);
},
{
closed = 1;
nodes = (
"155 601 OFFCURVE",
"184 630 OFFCURVE",
"184 666 CURVE SMOOTH",
"184 701 OFFCURVE",
"155 730 OFFCURVE",
"120 730 CURVE SMOOTH",
"84 730 OFFCURVE",
"55 701 OFFCURVE",
"55 666 CURVE SMOOTH",
"55 630 OFFCURVE",
"84 601 OFFCURVE",
"120 601 CURVE SMOOTH"
);
}
);
width = 242;
}
);
leftKerningGroup = i;
rightKerningGroup = i;
unicode = 0069;
},
{
color = 4;
glyphname = j;
lastChange = "2014-12-07 20:17:57 +0000";
layers = (
{
layerId = "643E1A31-2BD5-4D48-BA91-7A3195B2D7C3";
name = Bold;
paths = (
{
closed = 1;
nodes = (
"66 -213 LINE",
"176 -213 LINE",
"176 523 LINE",
"66 523 LINE"
);
},
{
closed = 1;
nodes = (
"155 601 OFFCURVE",
"184 630 OFFCURVE",
"184 666 CURVE SMOOTH",
"184 701 OFFCURVE",
"155 730 OFFCURVE",
"120 730 CURVE SMOOTH",
"84 730 OFFCURVE",
"55 701 OFFCURVE",
"55 666 CURVE SMOOTH",
"55 630 OFFCURVE",
"84 601 OFFCURVE",
"120 601 CURVE SMOOTH"
);
}
);
width = 242;
}
);
leftKerningGroup = i;
rightKerningGroup = i;
unicode = 006A;
},
{
glyphname = k;
lastChange = "2014-12-08 10:07:04 +0000";
layers = (
{
anchors = (
{
name = bottom;
position = "{274, 0}";
}
);
layerId = "643E1A31-2BD5-4D48-BA91-7A3195B2D7C3";
name = Bold;
paths = (
{
closed = 1;
nodes = (
"547 0 LINE",
"333 303 LINE",
"536 522 LINE",
"416 522 LINE",
"176 267 LINE",
"176 730 LINE",
"66 730 LINE",
"66 0 LINE",
"176 0 LINE",
"176 159 LINE",
"263 241 LINE",
"430 0 LINE"
);
}
);
width = 548;
}
);
leftKerningGroup = b;
rightKerningGroup = k;
unicode = 006B;
},
{
color = 4;
glyphname = l;
lastChange = "2014-12-27 10:14:49 +0000";
layers = (
{
anchors = (
{
name = bottom;
position = "{125, 0}";
},
{
name = center;
position = "{162, 350}";
},
{
name = top;
position = "{125, 523}";
},
{
name = topright;
position = "{240, 523}";
}
);
layerId = "643E1A31-2BD5-4D48-BA91-7A3195B2D7C3";
name = Bold;
paths = (
{
closed = 1;
nodes = (
"70 0 LINE",
"180 0 LINE",
"180 730 LINE",
"70 730 LINE"
);
}
);
width = 250;
}
);
unicode = 006C;
},
{
glyphname = m;
layers = (
{
layerId = "643E1A31-2BD5-4D48-BA91-7A3195B2D7C3";
name = Bold;
paths = (
{
closed = 1;
nodes = (
"866 319 LINE SMOOTH",
"866 433 OFFCURVE",
"833 532 OFFCURVE",
"709 532 CURVE SMOOTH",
"624 532 OFFCURVE",
"556 490 OFFCURVE",
"512 413 CURVE",
"500 481 OFFCURVE",
"449 532 OFFCURVE",
"363 532 CURVE SMOOTH",
"277 532 OFFCURVE",
"207 491 OFFCURVE",
"166 418 CURVE",
"166 523 LINE",
"66 523 LINE",
"66 0 LINE",
"176 0 LINE",
"176 311 LINE",
"198 384 OFFCURVE",
"256 434 OFFCURVE",
"318 434 CURVE SMOOTH",
"378 434 OFFCURVE",
"411 391 OFFCURVE",
"411 293 CURVE SMOOTH",
"411 0 LINE",
"521 0 LINE",
"521 310 LINE",
"543 383 OFFCURVE",
"600 434 OFFCURVE",
"662 434 CURVE SMOOTH",
"723 434 OFFCURVE",
"756 390 OFFCURVE",
"756 293 CURVE SMOOTH",
"756 0 LINE",
"866 0 LINE"
);
}
);
width = 927;
}
);
leftKerningGroup = m;
rightKerningGroup = m;
unicode = 006D;
},
{
glyphname = n;
lastChange = "2014-12-08 10:10:40 +0000";
layers = (
{
anchors = (
{
name = bottom;
position = "{299, 0}";
},
{
name = top;
position = "{299, 523}";
}
);
layerId = "643E1A31-2BD5-4D48-BA91-7A3195B2D7C3";
name = Bold;
paths = (
{
closed = 1;
nodes = (
"535 319 LINE SMOOTH",
"535 434 OFFCURVE",
"504 532 OFFCURVE",
"379 532 CURVE SMOOTH",
"287 532 OFFCURVE",
"206 488 OFFCURVE",
"166 418 CURVE",
"166 523 LINE",
"66 523 LINE",
"66 0 LINE",
"176 0 LINE",
"176 311 LINE",
"199 382 OFFCURVE",
"269 434 OFFCURVE",
"332 434 CURVE SMOOTH",
"393 434 OFFCURVE",
"425 391 OFFCURVE",
"425 293 CURVE SMOOTH",
"425 0 LINE",
"535 0 LINE"
);
}
);
width = 597;
}
);
leftKerningGroup = m;
rightKerningGroup = m;
unicode = 006E;
},
{
glyphname = o;
lastChange = "2014-12-07 23:23:46 +0000";
layers = (
{
anchors = (
{
name = top;
position = "{301, 523}";
}
);
layerId = "643E1A31-2BD5-4D48-BA91-7A3195B2D7C3";
name = Bold;
paths = (
{
closed = 1;
nodes = (
"464 -10 OFFCURVE",
"570 116 OFFCURVE",
"570 261 CURVE SMOOTH",
"570 406 OFFCURVE",
"464 532 OFFCURVE",
"301 532 CURVE SMOOTH",
"139 532 OFFCURVE",
"32 406 OFFCURVE",
"32 261 CURVE SMOOTH",
"32 116 OFFCURVE",
"137 -10 OFFCURVE",
"301 -10 CURVE SMOOTH"
);
},
{
closed = 1;
nodes = (
"145 360 OFFCURVE",
"215 438 OFFCURVE",
"301 438 CURVE SMOOTH",
"388 438 OFFCURVE",
"457 361 OFFCURVE",
"457 261 CURVE SMOOTH",
"457 161 OFFCURVE",
"388 84 OFFCURVE",
"301 84 CURVE SMOOTH",
"214 84 OFFCURVE",
"145 159 OFFCURVE",
"145 260 CURVE SMOOTH"
);
}
);
width = 602;
}
);
leftKerningGroup = c;
rightKerningGroup = o;
unicode = 006F;
},
{
glyphname = p;
layers = (
{
layerId = "643E1A31-2BD5-4D48-BA91-7A3195B2D7C3";
name = Bold;
paths = (
{
closed = 1;
nodes = (
"499 -10 OFFCURVE",
"595 111 OFFCURVE",
"595 262 CURVE SMOOTH",
"595 407 OFFCURVE",
"491 532 OFFCURVE",
"348 532 CURVE SMOOTH",
"269 532 OFFCURVE",
"203 491 OFFCURVE",
"163 429 CURVE",
"163 523 LINE",
"66 523 LINE",
"66 -213 LINE",
"176 -213 LINE",
"176 98 LINE",
"213 34 OFFCURVE",
"279 -10 OFFCURVE",
"363 -10 CURVE SMOOTH"
);
},
{
closed = 1;
nodes = (
"263 84 OFFCURVE",
"203 134 OFFCURVE",
"176 198 CURVE",
"176 335 LINE",
"192 393 OFFCURVE",
"262 438 OFFCURVE",
"319 438 CURVE SMOOTH",
"412 438 OFFCURVE",
"482 359 OFFCURVE",
"482 262 CURVE SMOOTH",
"482 171 OFFCURVE",
"420 84 OFFCURVE",
"327 84 CURVE SMOOTH"
);
}
);
width = 628;
}
);
leftKerningGroup = m;
rightKerningGroup = b;
unicode = 0070;
},
{
color = 4;
glyphname = q;
lastChange = "2014-12-07 13:52:42 +0000";
layers = (
{
layerId = "643E1A31-2BD5-4D48-BA91-7A3195B2D7C3";
name = Bold;
paths = (
{
closed = 1;
nodes = (
"344 -10 OFFCURVE",
"409 27 OFFCURVE",
"452 98 CURVE",
"452 -213 LINE",
"562 -213 LINE",
"562 523 LINE",
"465 523 LINE",
"465 428 LINE",
"427 489 OFFCURVE",
"360 532 OFFCURVE",
"280 532 CURVE SMOOTH",
"140 532 OFFCURVE",
"34 411 OFFCURVE",
"34 262 CURVE SMOOTH",
"34 115 OFFCURVE",
"129 -10 OFFCURVE",
"265 -10 CURVE SMOOTH"
);
},
{
closed = 1;
nodes = (
"212 84 OFFCURVE",
"146 163 OFFCURVE",
"146 259 CURVE SMOOTH",
"146 351 OFFCURVE",
"212 438 OFFCURVE",
"305 438 CURVE SMOOTH",
"367 438 OFFCURVE",
"439 385 OFFCURVE",
"452 322 CURVE",
"452 184 LINE",
"420 127 OFFCURVE",
"371 84 OFFCURVE",
"305 84 CURVE SMOOTH"
);
}
);
width = 628;
}
);
leftKerningGroup = d;
rightKerningGroup = g;
unicode = 0071;
},
{
glyphname = r;
lastChange = "2014-12-27 10:49:07 +0000";
layers = (
{
anchors = (
{
name = bottom;
position = "{118, 0}";
},
{
name = top;
position = "{217, 523}";
}
);
layerId = "643E1A31-2BD5-4D48-BA91-7A3195B2D7C3";
name = Bold;
paths = (
{
closed = 1;
nodes = (
"360 527 LINE",
"353 528 OFFCURVE",
"345 528 OFFCURVE",
"332 528 CURVE",
"266 524 OFFCURVE",
"204 478 OFFCURVE",
"168 406 CURVE",
"168 523 LINE",
"66 523 LINE",
"66 0 LINE",
"176 0 LINE",
"176 320 LINE",
"204 387 OFFCURVE",
"275 426 OFFCURVE",
"360 428 CURVE"
);
}
);
width = 374;
}
);
leftKerningGroup = m;
rightKerningGroup = r;
unicode = 0072;
},
{
glyphname = s;
lastChange = "2014-12-08 10:13:16 +0000";
layers = (
{
anchors = (
{
name = bottom;
position = "{248, 0}";
},
{
name = top;
position = "{248, 523}";
}
);
layerId = "643E1A31-2BD5-4D48-BA91-7A3195B2D7C3";
name = Bold;
paths = (
{
closed = 1;
nodes = (
"384 -10 OFFCURVE",
"466 53 OFFCURVE",
"466 152 CURVE SMOOTH",
"466 241 OFFCURVE",
"404 272 OFFCURVE",
"262 306 CURVE SMOOTH",
"178 327 OFFCURVE",
"148 338 OFFCURVE",
"148 381 CURVE SMOOTH",
"148 432 OFFCURVE",
"192 454 OFFCURVE",
"247 454 CURVE SMOOTH",
"300 454 OFFCURVE",
"353 435 OFFCURVE",
"402 396 CURVE",
"449 462 LINE",
"396 507 OFFCURVE",
"326 532 OFFCURVE",
"248 532 CURVE SMOOTH",
"134 532 OFFCURVE",
"45 471 OFFCURVE",
"45 365 CURVE SMOOTH",
"45 284 OFFCURVE",
"97 258 OFFCURVE",
"228 224 CURVE SMOOTH",
"319 200 OFFCURVE",
"360 187 OFFCURVE",
"360 143 CURVE SMOOTH",
"360 96 OFFCURVE",
"319 70 OFFCURVE",
"254 70 CURVE SMOOTH",
"190 70 OFFCURVE",
"129 94 OFFCURVE",
"67 139 CURVE",
"23 69 LINE",
"82 18 OFFCURVE",
"172 -10 OFFCURVE",
"256 -10 CURVE SMOOTH"
);
}
);
width = 496;
}
);
leftKerningGroup = s;
rightKerningGroup = s;
unicode = 0073;
},
{
glyphname = t;
lastChange = "2014-12-08 11:03:12 +0000";
layers = (
{
anchors = (
{
name = bottom;
position = "{184, 0}";
},
{
name = center;
position = "{184, 262}";
},
{
name = topright;
position = "{229, 523}";
}
);
layerId = "643E1A31-2BD5-4D48-BA91-7A3195B2D7C3";
name = Bold;
paths = (
{
closed = 1;
nodes = (
"321 113 LINE",
"308 106 OFFCURVE",
"286 87 OFFCURVE",
"255 87 CURVE SMOOTH",
"225 87 OFFCURVE",
"205 110 OFFCURVE",
"203 147 CURVE",
"203 438 LINE",
"317 438 LINE",
"317 523 LINE",
"203 523 LINE",
"203 695 LINE",
"93 695 LINE",
"93 523 LINE",
"24 523 LINE",
"24 438 LINE",
"93 438 LINE",
"93 130 LINE SMOOTH",
"93 46 OFFCURVE",
"151 -11 OFFCURVE",
"220 -11 CURVE SMOOTH",
"276 -11 OFFCURVE",
"329 11 OFFCURVE",
"357 27 CURVE"
);
}
);
width = 367;
}
);
leftKerningGroup = t;
rightKerningGroup = t;
unicode = 0074;
},
{
color = 4;
glyphname = u;
lastChange = "2014-12-08 08:35:44 +0000";
layers = (
{
anchors = (
{
name = ogonek;
position = "{541, 10}";
},
{
name = top;
position = "{301, 523}";
}
);
layerId = "643E1A31-2BD5-4D48-BA91-7A3195B2D7C3";
name = Bold;
paths = (
{
closed = 1;
nodes = (
"535 0 LINE",
"535 523 LINE",
"425 523 LINE",
"425 197 LINE",
"396 130 OFFCURVE",
"337 84 OFFCURVE",
"275 84 CURVE SMOOTH",
"193 84 OFFCURVE",
"171 146 OFFCURVE",
"171 225 CURVE SMOOTH",
"171 523 LINE",
"61 523 LINE",
"61 203 LINE SMOOTH",
"61 80 OFFCURVE",
"103 -10 OFFCURVE",
"234 -10 CURVE SMOOTH",
"313 -10 OFFCURVE",
"390 28 OFFCURVE",
"429 99 CURVE",
"429 0 LINE"
);
}
);
width = 601;
}
);
leftKerningGroup = u;
rightKerningGroup = g;
unicode = 0075;
},
{
glyphname = v;
layers = (
{
layerId = "643E1A31-2BD5-4D48-BA91-7A3195B2D7C3";
name = Bold;
paths = (
{
closed = 1;
nodes = (
"331 0 LINE",
"531 523 LINE",
"427 523 LINE",
"276 93 LINE",
"126 523 LINE",
"13 523 LINE",
"213 0 LINE"
);
}
);
width = 543;
}
);
leftKerningGroup = v;
rightKerningGroup = v;
unicode = 0076;
},
{
color = 4;
glyphname = w;
lastChange = "2014-12-07 23:17:07 +0000";
layers = (
{
anchors = (
{
name = top;
position = "{428, 523}";
}
);
layerId = "643E1A31-2BD5-4D48-BA91-7A3195B2D7C3";
name = Bold;
paths = (
{
closed = 1;
nodes = (
"660 0 LINE",
"841 523 LINE",
"727 523 LINE",
"597 133 LINE",
"480 523 LINE",
"376 523 LINE",
"259 133 LINE",
"129 523 LINE",
"14 523 LINE",
"196 0 LINE",
"314 0 LINE",
"428 353 LINE",
"542 0 LINE"
);
}
);
width = 856;
}
);
leftKerningGroup = w.alt;
rightKerningGroup = w.alt;
unicode = 0077;
},
{
glyphname = x;
layers = (
{
layerId = "643E1A31-2BD5-4D48-BA91-7A3195B2D7C3";
name = Bold;
paths = (
{
closed = 1;
nodes = (
"10 523 LINE",
"201 261 LINE",
"8 0 LINE",
"123 0 LINE",
"252 178 LINE",
"261 194 LINE",
"270 178 LINE",
"399 0 LINE",
"514 0 LINE",
"321 261 LINE",
"512 523 LINE",
"397 523 LINE",
"270 344 LINE",
"261 327 LINE",
"252 344 LINE",
"124 523 LINE"
);
}
);
width = 522;
}
);
leftKerningGroup = x;
rightKerningGroup = x;
unicode = 0078;
},
{
glyphname = y;
lastChange = "2014-12-08 08:40:05 +0000";
layers = (
{
anchors = (
{
name = top;
position = "{274, 523}";
}
);
layerId = "643E1A31-2BD5-4D48-BA91-7A3195B2D7C3";
name = Bold;
paths = (
{
closed = 1;
nodes = (
"84 -219 LINE",
"105 -225 OFFCURVE",
"122 -227 OFFCURVE",
"138 -227 CURVE SMOOTH",
"220 -227 OFFCURVE",
"274 -180 OFFCURVE",
"295 -121 CURVE SMOOTH",
"532 523 LINE",
"428 523 LINE",
"284 97 LINE",
"122 523 LINE",
"9 523 LINE",
"224 0 LINE",
"186 -107 OFFCURVE",
"171 -130 OFFCURVE",
"137 -130 CURVE SMOOTH",
"125 -130 OFFCURVE",
"104 -127 OFFCURVE",
"84 -123 CURVE"
);
}
);
width = 547;
}
);
leftKerningGroup = y;
rightKerningGroup = y;
unicode = 0079;
},
{
glyphname = z;
lastChange = "2014-12-08 10:19:26 +0000";
layers = (
{
anchors = (
{
name = top;
position = "{247, 523}";
}
);
layerId = "643E1A31-2BD5-4D48-BA91-7A3195B2D7C3";
name = Bold;
paths = (
{
closed = 1;
nodes = (
"28 0 LINE",
"461 0 LINE",
"461 78 LINE",
"146 78 LINE",
"458 454 LINE",
"458 523 LINE",
"39 523 LINE",
"39 445 LINE",
"342 445 LINE",
"28 69 LINE"
);
}
);
width = 493;
}
);
leftKerningGroup = z;
rightKerningGroup = z;
unicode = 007A;
},
{
glyphname = braceleft;
layers = (
{
layerId = "643E1A31-2BD5-4D48-BA91-7A3195B2D7C3";
name = Bold;
paths = (
{
closed = 1;
nodes = (
"245 651 LINE",
"245 740 LINE",
"113 740 LINE SMOOTH",
"106 740 OFFCURVE",
"90 735 OFFCURVE",
"90 710 CURVE SMOOTH",
"90 461 LINE SMOOTH",
"90 437 OFFCURVE",
"72 400 OFFCURVE",
"44 400 CURVE",
"44 322 LINE",
"70 317 OFFCURVE",
"90 291 OFFCURVE",
"90 259 CURVE SMOOTH",
"90 -1 LINE SMOOTH",
"90 -24 OFFCURVE",
"104 -31 OFFCURVE",
"113 -31 CURVE SMOOTH",
"245 -31 LINE",
"245 58 LINE",
"190 58 LINE",
"190 293 LINE SMOOTH",
"190 315 OFFCURVE",
"178 342 OFFCURVE",
"158 360 CURVE",
"179 379 OFFCURVE",
"190 404 OFFCURVE",
"190 427 CURVE SMOOTH",
"190 651 LINE"
);
}
);
width = 293;
}
);
rightKerningGroup = braceleft;
unicode = 007B;
},
{
glyphname = bar;
layers = (
{
layerId = "643E1A31-2BD5-4D48-BA91-7A3195B2D7C3";
name = Bold;
paths = (
{
closed = 1;
nodes = (
"175 -130 LINE",
"175 775 LINE",
"81 775 LINE",
"81 -130 LINE"
);
}
);
width = 256;
}
);
unicode = 007C;
},
{
glyphname = braceright;
layers = (
{
layerId = "643E1A31-2BD5-4D48-BA91-7A3195B2D7C3";
name = Bold;
paths = (
{
closed = 1;
nodes = (
"104 651 LINE",
"104 427 LINE SMOOTH",
"104 404 OFFCURVE",
"114 379 OFFCURVE",
"135 360 CURVE",
"114 342 OFFCURVE",
"104 315 OFFCURVE",
"104 293 CURVE SMOOTH",
"104 58 LINE",
"49 58 LINE",
"49 -31 LINE",
"180 -31 LINE SMOOTH",
"189 -31 OFFCURVE",
"203 -24 OFFCURVE",
"203 -1 CURVE SMOOTH",
"203 259 LINE SMOOTH",
"203 291 OFFCURVE",
"222 317 OFFCURVE",
"249 322 CURVE",
"249 400 LINE",
"221 400 OFFCURVE",
"203 437 OFFCURVE",
"203 461 CURVE SMOOTH",
"203 710 LINE SMOOTH",
"203 735 OFFCURVE",
"186 740 OFFCURVE",
"180 740 CURVE SMOOTH",
"49 740 LINE",
"49 651 LINE"
);
}
);
width = 293;
}
);
leftKerningGroup = braceright;
unicode = 007D;
},
{
glyphname = asciitilde;
layers = (
{
layerId = "643E1A31-2BD5-4D48-BA91-7A3195B2D7C3";
name = Bold;
paths = (
{
closed = 1;
nodes = (
"123 232 LINE",
"123 234 OFFCURVE",
"135 287 OFFCURVE",
"187 287 CURVE SMOOTH",
"241 287 OFFCURVE",
"287 232 OFFCURVE",
"357 232 CURVE SMOOTH",
"458 232 OFFCURVE",
"490 340 OFFCURVE",
"490 350 CURVE",
"427 350 LINE",
"427 346 OFFCURVE",
"412 299 OFFCURVE",
"358 299 CURVE SMOOTH",
"300 299 OFFCURVE",
"256 354 OFFCURVE",
"188 354 CURVE SMOOTH",
"93 354 OFFCURVE",
"61 252 OFFCURVE",
"61 232 CURVE"
);
}
);
width = 549;
}
);
unicode = 007E;
},
{
color = 4;
glyphname = exclamdown;
lastChange = "2014-12-08 09:27:38 +0000";
layers = (
{
layerId = "643E1A31-2BD5-4D48-BA91-7A3195B2D7C3";
name = Bold;
paths = (
{
closed = 1;
nodes = (
"86 460 LINE",
"86 -4 LINE",
"196 -4 LINE",
"196 460 LINE"
);
},
{
closed = 1;
nodes = (
"181 572 OFFCURVE",
"214 605 OFFCURVE",
"214 645 CURVE SMOOTH",
"214 685 OFFCURVE",
"181 718 OFFCURVE",
"141 718 CURVE SMOOTH",
"100 718 OFFCURVE",
"68 685 OFFCURVE",
"68 645 CURVE SMOOTH",
"68 605 OFFCURVE",
"100 572 OFFCURVE",
"141 572 CURVE SMOOTH"
);
}
);
width = 282;
}
);
rightKerningGroup = exclamdown;
unicode = 00A1;
},
{
glyphname = cent;
layers = (
{
layerId = "643E1A31-2BD5-4D48-BA91-7A3195B2D7C3";
name = Bold;
paths = (
{
closed = 1;
nodes = (
"328 -120 LINE",
"328 -10 LINE",
"397 -10 OFFCURVE",
"507 35 OFFCURVE",
"543 124 CURVE",
"436 156 LINE",
"423 118 OFFCURVE",
"369 92 OFFCURVE",
"328 87 CURVE",
"328 434 LINE",
"370 431 OFFCURVE",
"409 409 OFFCURVE",
"433 368 CURVE",
"539 402 LINE",
"498 482 OFFCURVE",
"423 528 OFFCURVE",
"328 531 CURVE",
"328 645 LINE",
"276 645 LINE",
"276 531 LINE",
"127 512 OFFCURVE",
"41 393 OFFCURVE",
"41 258 CURVE SMOOTH",
"41 131 OFFCURVE",
"138 2 OFFCURVE",
"276 -9 CURVE",
"276 -120 LINE"
);
},
{
closed = 1;
nodes = (
"154 338 OFFCURVE",
"199 418 OFFCURVE",
"276 430 CURVE",
"276 92 LINE",
"204 109 OFFCURVE",
"154 180 OFFCURVE",
"154 258 CURVE SMOOTH"
);
}
);
width = 580;
}
);
unicode = 00A2;
},
{
glyphname = sterling;
layers = (
{
layerId = "643E1A31-2BD5-4D48-BA91-7A3195B2D7C3";
name = Bold;
paths = (
{
closed = 1;
nodes = (
"55 294 LINE",
"163 294 LINE",
"164 285 OFFCURVE",
"165 275 OFFCURVE",
"165 266 CURVE SMOOTH",
"165 202 OFFCURVE",
"131 141 OFFCURVE",
"52 71 CURVE",
"78 -8 LINE",
"117 4 OFFCURVE",
"164 12 OFFCURVE",
"198 12 CURVE SMOOTH",
"261 12 OFFCURVE",
"316 -15 OFFCURVE",
"376 -15 CURVE SMOOTH",
"414 -15 OFFCURVE",
"456 -4 OFFCURVE",
"489 14 CURVE",
"462 96 LINE",
"430 85 OFFCURVE",
"407 79 OFFCURVE",
"382 79 CURVE SMOOTH",
"335 79 OFFCURVE",
"295 97 OFFCURVE",
"244 97 CURVE SMOOTH",
"220 97 OFFCURVE",
"196 93 OFFCURVE",
"169 86 CURVE",
"236 157 OFFCURVE",
"261 208 OFFCURVE",
"261 271 CURVE SMOOTH",
"261 279 OFFCURVE",
"260 286 OFFCURVE",
"259 294 CURVE",
"418 294 LINE",
"418 378 LINE",
"236 378 LINE",
"211 434 OFFCURVE",
"176 479 OFFCURVE",
"176 530 CURVE SMOOTH",
"176 584 OFFCURVE",
"217 625 OFFCURVE",
"272 625 CURVE SMOOTH",
"323 625 OFFCURVE",
"380 592 OFFCURVE",
"412 542 CURVE",
"471 610 LINE",
"425 675 OFFCURVE",
"351 715 OFFCURVE",
"274 715 CURVE SMOOTH",
"165 715 OFFCURVE",
"76 637 OFFCURVE",
"76 540 CURVE SMOOTH",
"76 481 OFFCURVE",
"109 431 OFFCURVE",
"135 378 CURVE",
"55 378 LINE"
);
}
);
width = 528;
}
);
unicode = 00A3;
},
{
glyphname = currency;
layers = (
{
layerId = "643E1A31-2BD5-4D48-BA91-7A3195B2D7C3";
name = Bold;
paths = (
{
closed = 1;
nodes = (
"94 562 LINE",
"47 515 LINE",
"117 444 LINE",
"96 414 OFFCURVE",
"85 377 OFFCURVE",
"85 337 CURVE SMOOTH",
"85 298 OFFCURVE",
"97 261 OFFCURVE",
"118 230 CURVE",
"47 159 LINE",
"89 117 LINE",
"162 185 LINE",
"192 165 OFFCURVE",
"229 152 OFFCURVE",
"273 152 CURVE SMOOTH",
"316 152 OFFCURVE",
"353 165 OFFCURVE",
"382 185 CURVE",
"455 117 LINE",
"498 159 LINE",
"426 229 LINE",
"448 260 OFFCURVE",
"460 297 OFFCURVE",
"460 337 CURVE SMOOTH",
"460 377 OFFCURVE",
"448 415 OFFCURVE",
"427 445 CURVE",
"498 515 LINE",
"450 562 LINE",
"380 491 LINE",
"350 511 OFFCURVE",
"314 523 OFFCURVE",
"273 523 CURVE SMOOTH",
"230 523 OFFCURVE",
"194 511 OFFCURVE",
"165 491 CURVE"
);
},
{
closed = 1;
nodes = (
"171 402 OFFCURVE",
"216 450 OFFCURVE",
"273 450 CURVE SMOOTH",
"330 450 OFFCURVE",
"375 403 OFFCURVE",
"375 338 CURVE SMOOTH",
"375 273 OFFCURVE",
"330 224 OFFCURVE",
"273 224 CURVE SMOOTH",
"216 224 OFFCURVE",
"171 273 OFFCURVE",
"171 336 CURVE SMOOTH"
);
}
);
width = 545;
}
);
unicode = 00A4;
},
{
glyphname = yen;
layers = (
{
layerId = "643E1A31-2BD5-4D48-BA91-7A3195B2D7C3";
name = Bold;
paths = (
{
closed = 1;
nodes = (
"669 710 LINE",
"546 710 LINE",
"348 354 LINE",
"152 710 LINE",
"29 710 LINE",
"220 389 LINE",
"141 389 LINE",
"141 316 LINE",
"258 316 LINE",
"291 256 LINE",
"291 225 LINE",
"141 225 LINE",
"141 152 LINE",
"291 152 LINE",
"291 0 LINE",
"404 0 LINE",
"404 152 LINE",
"556 152 LINE",
"556 225 LINE",
"404 225 LINE",
"404 254 LINE",
"439 316 LINE",
"555 316 LINE",
"555 389 LINE",
"478 389 LINE"
);
}
);
width = 699;
}
);
unicode = 00A5;
},
{
glyphname = brokenbar;
layers = (
{
layerId = "643E1A31-2BD5-4D48-BA91-7A3195B2D7C3";
name = Bold;
paths = (
{
closed = 1;
nodes = (
"82 269 LINE",
"82 -130 LINE",
"176 -130 LINE",
"176 269 LINE"
);
},
{
closed = 1;
nodes = (
"82 775 LINE",
"82 376 LINE",
"176 376 LINE",
"176 775 LINE"
);
}
);
width = 258;
}
);
unicode = 00A6;
},
{
glyphname = section;
layers = (
{
layerId = "643E1A31-2BD5-4D48-BA91-7A3195B2D7C3";
name = Bold;
paths = (
{
closed = 1;
nodes = (
"455 223 OFFCURVE",
"467 255 OFFCURVE",
"467 293 CURVE SMOOTH",
"467 414 OFFCURVE",
"355 455 OFFCURVE",
"257 457 CURVE SMOOTH",
"200 458 OFFCURVE",
"156 474 OFFCURVE",
"156 533 CURVE SMOOTH",
"156 585 OFFCURVE",
"203 617 OFFCURVE",
"257 617 CURVE SMOOTH",
"303 617 OFFCURVE",
"347 599 OFFCURVE",
"368 562 CURVE",
"453 602 LINE",
"419 651 OFFCURVE",
"361 715 OFFCURVE",
"250 715 CURVE SMOOTH",
"141 715 OFFCURVE",
"45 634 OFFCURVE",
"45 532 CURVE SMOOTH",
"45 479 OFFCURVE",
"68 438 OFFCURVE",
"90 419 CURVE",
"80 405 OFFCURVE",
"68 379 OFFCURVE",
"68 341 CURVE SMOOTH",
"68 239 OFFCURVE",
"146 177 OFFCURVE",
"271 169 CURVE SMOOTH",
"316 166 OFFCURVE",
"368 158 OFFCURVE",
"368 101 CURVE SMOOTH",
"368 47 OFFCURVE",
"315 17 OFFCURVE",
"262 17 CURVE SMOOTH",
"214 17 OFFCURVE",
"171 35 OFFCURVE",
"128 79 CURVE",
"57 11 LINE",
"93 -28 OFFCURVE",
"166 -88 OFFCURVE",
"267 -88 CURVE SMOOTH",
"358 -88 OFFCURVE",
"482 -32 OFFCURVE",
"482 105 CURVE SMOOTH",
"482 155 OFFCURVE",
"467 189 OFFCURVE",
"443 208 CURVE"
);
},
{
closed = 1;
nodes = (
"175 347 OFFCURVE",
"183 368 OFFCURVE",
"195 379 CURVE",
"209 372 OFFCURVE",
"236 368 OFFCURVE",
"261 368 CURVE SMOOTH",
"305 368 OFFCURVE",
"363 349 OFFCURVE",
"363 291 CURVE SMOOTH",
"363 270 OFFCURVE",
"354 247 OFFCURVE",
"340 236 CURVE",
"289 256 OFFCURVE",
"175 232 OFFCURVE",
"175 327 CURVE SMOOTH"
);
}
);
width = 524;
}
);
unicode = 00A7;
},
{
color = 9;
glyphname = dieresis;
lastChange = "2015-01-02 09:40:12 +0000";
layers = (
{
anchors = (
{
name = _top;
position = "{208, 523}";
}
);
layerId = "643E1A31-2BD5-4D48-BA91-7A3195B2D7C3";
name = Bold;
paths = (
{
closed = 1;
nodes = (
"361 601 OFFCURVE",
"391 630 OFFCURVE",
"391 666 CURVE SMOOTH",
"391 701 OFFCURVE",
"361 730 OFFCURVE",
"327 730 CURVE SMOOTH",
"291 730 OFFCURVE",
"262 701 OFFCURVE",
"262 666 CURVE SMOOTH",
"262 630 OFFCURVE",
"291 601 OFFCURVE",
"327 601 CURVE SMOOTH"
);
},
{
closed = 1;
nodes = (
"125 601 OFFCURVE",
"154 630 OFFCURVE",
"154 666 CURVE SMOOTH",
"154 701 OFFCURVE",
"125 730 OFFCURVE",
"90 730 CURVE SMOOTH",
"54 730 OFFCURVE",
"25 701 OFFCURVE",
"25 666 CURVE SMOOTH",
"25 630 OFFCURVE",
"54 601 OFFCURVE",
"90 601 CURVE SMOOTH"
);
}
);
width = 411;
}
);
unicode = 00A8;
},
{
glyphname = copyright;
layers = (
{
layerId = "643E1A31-2BD5-4D48-BA91-7A3195B2D7C3";
name = Bold;
paths = (
{
closed = 1;
nodes = (
"633 -7 OFFCURVE",
"794 148 OFFCURVE",
"794 355 CURVE SMOOTH",
"794 561 OFFCURVE",
"633 715 OFFCURVE",
"417 715 CURVE SMOOTH",
"203 715 OFFCURVE",
"45 561 OFFCURVE",
"45 355 CURVE SMOOTH",
"45 148 OFFCURVE",
"203 -7 OFFCURVE",
"417 -7 CURVE SMOOTH"
);
},
{
closed = 1;
nodes = (
"230 37 OFFCURVE",
"92 175 OFFCURVE",
"92 354 CURVE SMOOTH",
"92 534 OFFCURVE",
"231 671 OFFCURVE",
"417 671 CURVE SMOOTH",
"606 671 OFFCURVE",
"746 534 OFFCURVE",
"746 353 CURVE SMOOTH",
"746 166 OFFCURVE",
"602 37 OFFCURVE",
"417 37 CURVE SMOOTH"
);
},
{
closed = 1;
nodes = (
"534 119 OFFCURVE",
"611 183 OFFCURVE",
"637 244 CURVE",
"530 276 LINE",
"511 236 OFFCURVE",
"464 213 OFFCURVE",
"423 213 CURVE SMOOTH",
"361 213 OFFCURVE",
"292 264 OFFCURVE",
"292 355 CURVE SMOOTH",
"292 428 OFFCURVE",
"338 497 OFFCURVE",
"421 497 CURVE SMOOTH",
"456 497 OFFCURVE",
"503 484 OFFCURVE",
"526 436 CURVE",
"632 470 LINE",
"598 546 OFFCURVE",
"520 592 OFFCURVE",
"421 592 CURVE SMOOTH",
"260 592 OFFCURVE",
"180 473 OFFCURVE",
"180 355 CURVE SMOOTH",
"180 218 OFFCURVE",
"286 119 OFFCURVE",
"425 119 CURVE SMOOTH"
);
}
);
width = 838;
}
);
leftKerningGroup = copyright;
unicode = 00A9;
},
{
color = 4;
glyphname = ordfeminine;
lastChange = "2014-12-08 08:44:04 +0000";
layers = (
{
guideLines = (
{
position = "{163, 342}";
}
);
layerId = "643E1A31-2BD5-4D48-BA91-7A3195B2D7C3";
name = Bold;
paths = (
{
closed = 1;
nodes = (
"215 342 OFFCURVE",
"263 364 OFFCURVE",
"296 407 CURVE",
"299 344 LINE",
"366 344 LINE",
"366 565 LINE SMOOTH",
"366 660 OFFCURVE",
"307 712 OFFCURVE",
"208 712 CURVE SMOOTH",
"156 712 OFFCURVE",
"109 697 OFFCURVE",
"62 666 CURVE",
"88 613 LINE",
"128 639 OFFCURVE",
"163 653 OFFCURVE",
"200 653 CURVE SMOOTH",
"254 653 OFFCURVE",
"282 624 OFFCURVE",
"282 575 CURVE SMOOTH",
"282 553 LINE",
"258 563 OFFCURVE",
"226 569 OFFCURVE",
"192 569 CURVE SMOOTH",
"105 569 OFFCURVE",
"43 522 OFFCURVE",
"43 454 CURVE SMOOTH",
"43 390 OFFCURVE",
"95 342 OFFCURVE",
"163 342 CURVE SMOOTH"
);
},
{
closed = 1;
nodes = (
"150 404 OFFCURVE",
"122 429 OFFCURVE",
"122 461 CURVE SMOOTH",
"122 496 OFFCURVE",
"157 520 OFFCURVE",
"207 520 CURVE SMOOTH",
"232 520 OFFCURVE",
"260 516 OFFCURVE",
"282 506 CURVE",
"282 463 LINE SMOOTH",
"282 454 OFFCURVE",
"278 444 OFFCURVE",
"269 437 CURVE",
"252 417 OFFCURVE",
"220 404 OFFCURVE",
"187 404 CURVE SMOOTH"
);
}
);
width = 441;
}
);
leftKerningGroup = ordfeminine;
unicode = 00AA;
},
{
glyphname = guillemotleft;
layers = (
{
layerId = "643E1A31-2BD5-4D48-BA91-7A3195B2D7C3";
name = Bold;
paths = (
{
closed = 1;
nodes = (
"38 229 LINE",
"296 54 LINE",
"296 144 LINE",
"126 259 LINE",
"296 378 LINE",
"296 469 LINE",
"38 284 LINE"
);
},
{
closed = 1;
nodes = (
"303 229 LINE",
"562 54 LINE",
"562 144 LINE",
"391 259 LINE",
"562 378 LINE",
"562 469 LINE",
"303 284 LINE"
);
}
);
width = 621;
}
);
leftKerningGroup = guillemotleft;
rightKerningGroup = guillemotleft;
unicode = 00AB;
},
{
glyphname = logicalnot;
layers = (
{
layerId = "643E1A31-2BD5-4D48-BA91-7A3195B2D7C3";
name = Bold;
paths = (
{
closed = 1;
nodes = (
"63 387 LINE",
"63 288 LINE",
"439 288 LINE",
"439 113 LINE",
"533 113 LINE",
"533 387 LINE"
);
}
);
width = 601;
}
);
unicode = 00AC;
},
{
glyphname = uni00AD;
layers = (
{
layerId = "643E1A31-2BD5-4D48-BA91-7A3195B2D7C3";
name = Bold;
paths = (
{
closed = 1;
nodes = (
"531 224 LINE",
"531 323 LINE",
"61 323 LINE",
"61 224 LINE"
);
}
);
width = 592;
}
);
leftKerningGroup = hyphen;
rightKerningGroup = hyphen;
unicode = 00AD;
},
{
glyphname = registered;
layers = (
{
layerId = "643E1A31-2BD5-4D48-BA91-7A3195B2D7C3";
name = Bold;
paths = (
{
closed = 1;
nodes = (
"633 -7 OFFCURVE",
"794 148 OFFCURVE",
"794 355 CURVE SMOOTH",
"794 561 OFFCURVE",
"633 715 OFFCURVE",
"418 715 CURVE SMOOTH",
"203 715 OFFCURVE",
"45 561 OFFCURVE",
"45 355 CURVE SMOOTH",
"45 148 OFFCURVE",
"203 -7 OFFCURVE",
"418 -7 CURVE SMOOTH"
);
},
{
closed = 1;
nodes = (
"230 36 OFFCURVE",
"94 175 OFFCURVE",
"94 355 CURVE SMOOTH",
"94 533 OFFCURVE",
"230 671 OFFCURVE",
"418 671 CURVE SMOOTH",
"606 671 OFFCURVE",
"745 533 OFFCURVE",
"745 354 CURVE SMOOTH",
"745 166 OFFCURVE",
"602 36 OFFCURVE",
"418 36 CURVE SMOOTH"
);
},
{
closed = 1;
nodes = (
"260 133 LINE",
"339 133 LINE",
"339 288 LINE",
"422 288 LINE",
"520 133 LINE",
"609 133 LINE",
"502 302 LINE",
"555 319 OFFCURVE",
"591 373 OFFCURVE",
"591 432 CURVE SMOOTH",
"591 503 OFFCURVE",
"533 577 OFFCURVE",
"453 577 CURVE SMOOTH",
"260 577 LINE"
);
},
{
closed = 1;
nodes = (
"339 357 LINE",
"339 506 LINE",
"445 506 LINE SMOOTH",
"483 506 OFFCURVE",
"513 479 OFFCURVE",
"513 432 CURVE SMOOTH",
"513 387 OFFCURVE",
"489 357 OFFCURVE",
"448 357 CURVE SMOOTH"
);
}
);
width = 838;
}
);
leftKerningGroup = registered;
unicode = 00AE;
},
{
glyphname = macron;
lastChange = "2014-12-08 08:42:02 +0000";
layers = (
{
anchors = (
{
name = _top;
position = "{206, 523}";
}
);
layerId = "643E1A31-2BD5-4D48-BA91-7A3195B2D7C3";
name = Bold;
paths = (
{
closed = 1;
nodes = (
"354 644 LINE",
"354 714 LINE",
"58 714 LINE",
"58 644 LINE"
);
}
);
width = 411;
}
);
unicode = 00AF;
},
{
glyphname = degree;
layers = (
{
layerId = "643E1A31-2BD5-4D48-BA91-7A3195B2D7C3";
name = Bold;
paths = (
{
closed = 1;
nodes = (
"44 575 OFFCURVE",
"85 533 OFFCURVE",
"139 533 CURVE SMOOTH",
"194 533 OFFCURVE",
"234 573 OFFCURVE",
"234 631 CURVE SMOOTH",
"234 684 OFFCURVE",
"194 724 OFFCURVE",
"139 724 CURVE SMOOTH",
"85 724 OFFCURVE",
"44 684 OFFCURVE",
"44 631 CURVE SMOOTH"
);
},
{
closed = 1;
nodes = (
"118 664 OFFCURVE",
"128 668 OFFCURVE",
"139 668 CURVE SMOOTH",
"149 668 OFFCURVE",
"161 665 OFFCURVE",
"167 657 CURVE",
"174 649 OFFCURVE",
"179 640 OFFCURVE",
"179 629 CURVE SMOOTH",
"179 618 OFFCURVE",
"174 608 OFFCURVE",
"167 601 CURVE",
"161 593 OFFCURVE",
"149 589 OFFCURVE",
"139 589 CURVE SMOOTH",
"128 589 OFFCURVE",
"118 593 OFFCURVE",
"111 601 CURVE",
"104 608 OFFCURVE",
"99 618 OFFCURVE",
"99 629 CURVE SMOOTH",
"99 640 OFFCURVE",
"104 649 OFFCURVE",
"111 657 CURVE"
);
}
);
width = 278;
}
);
unicode = 00B0;
},
{
glyphname = plusminus;
layers = (
{
layerId = "643E1A31-2BD5-4D48-BA91-7A3195B2D7C3";
name = Bold;
paths = (
{
closed = 1;
nodes = (
"405 40 LINE",
"405 129 LINE",
"63 129 LINE",
"63 40 LINE"
);
},
{
closed = 1;
nodes = (
"284 417 LINE",
"284 548 LINE",
"185 548 LINE",
"185 417 LINE",
"63 417 LINE",
"63 328 LINE",
"185 328 LINE",
"185 196 LINE",
"284 196 LINE",
"284 328 LINE",
"406 328 LINE",
"406 417 LINE"
);
}
);
width = 469;
}
);
unicode = 00B1;
},
{
glyphname = twosuperior;
layers = (
{
layerId = "643E1A31-2BD5-4D48-BA91-7A3195B2D7C3";
name = Bold;
paths = (
{
closed = 1;
nodes = (
"361 395 LINE",
"361 460 LINE",
"124 460 LINE",
"124 493 OFFCURVE",
"160 529 OFFCURVE",
"235 553 CURVE SMOOTH",
"289 570 OFFCURVE",
"370 600 OFFCURVE",
"370 685 CURVE SMOOTH",
"370 763 OFFCURVE",
"316 813 OFFCURVE",
"213 813 CURVE SMOOTH",
"114 813 OFFCURVE",
"52 767 OFFCURVE",
"36 745 CURVE",
"79 697 LINE",
"101 719 OFFCURVE",
"142 748 OFFCURVE",
"203 748 CURVE SMOOTH",
"263 748 OFFCURVE",
"295 723 OFFCURVE",
"295 686 CURVE SMOOTH",
"295 631 OFFCURVE",
"223 613 OFFCURVE",
"161 588 CURVE SMOOTH",
"68 550 OFFCURVE",
"32 502 OFFCURVE",
"32 395 CURVE"
);
}
);
width = 406;
}
);
unicode = 00B2;
},
{
glyphname = threesuperior;
layers = (
{
layerId = "643E1A31-2BD5-4D48-BA91-7A3195B2D7C3";
name = Bold;
paths = (
{
closed = 1;
nodes = (
"281 389 OFFCURVE",
"365 428 OFFCURVE",
"365 505 CURVE SMOOTH",
"365 558 OFFCURVE",
"325 602 OFFCURVE",
"261 611 CURVE",
"320 622 OFFCURVE",
"354 653 OFFCURVE",
"354 699 CURVE SMOOTH",
"354 764 OFFCURVE",
"284 813 OFFCURVE",
"190 813 CURVE SMOOTH",
"125 813 OFFCURVE",
"60 791 OFFCURVE",
"32 752 CURVE",
"76 700 LINE",
"98 730 OFFCURVE",
"136 751 OFFCURVE",
"190 751 CURVE SMOOTH",
"236 751 OFFCURVE",
"283 732 OFFCURVE",
"283 696 CURVE SMOOTH",
"283 656 OFFCURVE",
"230 638 OFFCURVE",
"148 638 CURVE SMOOTH",
"125 638 LINE",
"125 577 LINE",
"148 577 LINE SMOOTH",
"240 577 OFFCURVE",
"297 556 OFFCURVE",
"297 515 CURVE SMOOTH",
"297 478 OFFCURVE",
"249 456 OFFCURVE",
"190 456 CURVE SMOOTH",
"119 456 OFFCURVE",
"74 494 OFFCURVE",
"67 519 CURVE",
"30 471 LINE",
"46 419 OFFCURVE",
"108 389 OFFCURVE",
"191 389 CURVE SMOOTH"
);
}
);
width = 400;
}
);
unicode = 00B3;
},
{
color = 9;
glyphname = acute;
lastChange = "2015-01-02 09:23:26 +0000";
layers = (
{
anchors = (
{
name = _top;
position = "{63, 523}";
}
);
layerId = "643E1A31-2BD5-4D48-BA91-7A3195B2D7C3";
name = Bold;
paths = (
{
closed = 1;
nodes = (
"115 751 LINE",
"27 596 LINE",
"91 596 LINE",
"240 751 LINE"
);
}
);
width = 243;
}
);
unicode = 00B4;
},
{
glyphname = mu;
layers = (
{
layerId = "643E1A31-2BD5-4D48-BA91-7A3195B2D7C3";
name = Bold;
paths = (
{
closed = 1;
nodes = (
"77 -212 LINE",
"181 -212 LINE",
"181 58 LINE",
"193 25 OFFCURVE",
"226 -10 OFFCURVE",
"283 -10 CURVE SMOOTH",
"357 -10 OFFCURVE",
"431 49 OFFCURVE",
"458 106 CURVE",
"460 58 LINE SMOOTH",
"462 21 OFFCURVE",
"490 -5 OFFCURVE",
"533 -5 CURVE SMOOTH",
"546 -5 OFFCURVE",
"560 -4 OFFCURVE",
"584 0 CURVE",
"584 94 LINE",
"561 95 OFFCURVE",
"552 105 OFFCURVE",
"552 130 CURVE SMOOTH",
"552 523 LINE",
"442 523 LINE",
"442 197 LINE",
"411 124 OFFCURVE",
"349 84 OFFCURVE",
"289 84 CURVE SMOOTH",
"221 84 OFFCURVE",
"187 132 OFFCURVE",
"187 225 CURVE SMOOTH",
"187 523 LINE",
"77 523 LINE"
);
}
);
width = 645;
}
);
unicode = 00B5;
},
{
glyphname = paragraph;
layers = (
{
layerId = "643E1A31-2BD5-4D48-BA91-7A3195B2D7C3";
name = Bold;
paths = (
{
closed = 1;
nodes = (
"35 313 OFFCURVE",
"129 218 OFFCURVE",
"274 216 CURVE",
"274 -80 LINE",
"369 -80 LINE",
"369 216 LINE",
"428 216 LINE",
"428 -80 LINE",
"522 -80 LINE",
"522 626 LINE",
"592 626 LINE",
"592 710 LINE",
"317 710 LINE SMOOTH",
"139 710 OFFCURVE",
"35 618 OFFCURVE",
"35 461 CURVE SMOOTH"
);
},
{
closed = 1;
nodes = (
"127 560 OFFCURVE",
"180 624 OFFCURVE",
"274 626 CURVE",
"274 300 LINE",
"194 306 OFFCURVE",
"127 360 OFFCURVE",
"127 463 CURVE SMOOTH"
);
},
{
closed = 1;
nodes = (
"428 300 LINE",
"369 300 LINE",
"369 626 LINE",
"428 626 LINE"
);
}
);
width = 637;
}
);
unicode = 00B6;
},
{
color = 4;
glyphname = periodcentered;
lastChange = "2014-12-27 10:14:56 +0000";
layers = (
{
anchors = (
{
name = center;
position = "{-17, 313}";
}
);
layerId = "643E1A31-2BD5-4D48-BA91-7A3195B2D7C3";
name = Bold;
paths = (
{
closed = 1;
nodes = (
"144 241 OFFCURVE",
"176 273 OFFCURVE",
"176 311 CURVE SMOOTH",
"176 350 OFFCURVE",
"144 381 OFFCURVE",
"106 381 CURVE SMOOTH",
"67 381 OFFCURVE",
"36 350 OFFCURVE",
"36 311 CURVE SMOOTH",
"36 273 OFFCURVE",
"67 241 OFFCURVE",
"106 241 CURVE SMOOTH"
);
}
);
width = 213;
}
);
leftKerningGroup = periodcentered;
rightKerningGroup = periodcentered;
unicode = 00B7;
},
{
glyphname = cedilla;
lastChange = "2014-12-08 13:35:33 +0000";
layers = (
{
anchors = (
{
name = _bottom;
position = "{133, 0}";
}
);
layerId = "643E1A31-2BD5-4D48-BA91-7A3195B2D7C3";
name = Bold;
paths = (
{
closed = 1;
nodes = (
"22 -169 LINE",
"48 -179 OFFCURVE",
"83 -189 OFFCURVE",
"125 -189 CURVE SMOOTH",
"204 -189 OFFCURVE",
"244 -156 OFFCURVE",
"244 -108 CURVE SMOOTH",
"244 -62 OFFCURVE",
"209 -41 OFFCURVE",
"162 -41 CURVE SMOOTH",
"152 -41 OFFCURVE",
"138 -42 OFFCURVE",
"128 -45 CURVE",
"163 9 LINE",
"118 24 LINE",
"58 -90 LINE",
"75 -85 OFFCURVE",
"110 -78 OFFCURVE",
"138 -78 CURVE SMOOTH",
"169 -78 OFFCURVE",
"190 -86 OFFCURVE",
"190 -112 CURVE SMOOTH",
"190 -136 OFFCURVE",
"168 -146 OFFCURVE",
"133 -146 CURVE SMOOTH",
"98 -146 OFFCURVE",
"61 -135 OFFCURVE",
"45 -126 CURVE"
);
}
);
width = 310;
}
);
unicode = 00B8;
},
{
color = 4;
glyphname = onesuperior;
lastChange = "2014-12-04 11:12:28 +0000";
layers = (
{
layerId = "643E1A31-2BD5-4D48-BA91-7A3195B2D7C3";
name = Bold;
paths = (
{
closed = 1;
nodes = (
"195 395 LINE",
"195 813 LINE",
"128 813 LINE",
"33 757 LINE",
"59 703 LINE",
"128 740 LINE",
"128 395 LINE"
);
}
);
width = 289;
}
);
unicode = 00B9;
},
{
glyphname = ordmasculine;
layers = (
{
layerId = "643E1A31-2BD5-4D48-BA91-7A3195B2D7C3";
name = Bold;
paths = (
{
closed = 1;
nodes = (
"336 342 OFFCURVE",
"407 428 OFFCURVE",
"407 526 CURVE SMOOTH",
"407 627 OFFCURVE",
"336 712 OFFCURVE",
"223 712 CURVE SMOOTH",
"110 712 OFFCURVE",
"39 627 OFFCURVE",
"39 526 CURVE SMOOTH",
"39 428 OFFCURVE",
"110 342 OFFCURVE",
"223 342 CURVE SMOOTH"
);
},
{
closed = 1;
nodes = (
"124 591 OFFCURVE",
"168 639 OFFCURVE",
"223 639 CURVE SMOOTH",
"278 639 OFFCURVE",
"322 592 OFFCURVE",
"322 527 CURVE SMOOTH",
"322 462 OFFCURVE",
"278 414 OFFCURVE",
"223 414 CURVE SMOOTH",
"168 414 OFFCURVE",
"124 462 OFFCURVE",
"124 526 CURVE SMOOTH"
);
}
);
width = 446;
}
);
leftKerningGroup = ordmasculine;
unicode = 00BA;
},
{
glyphname = guillemotright;
layers = (
{
layerId = "643E1A31-2BD5-4D48-BA91-7A3195B2D7C3";
name = Bold;
paths = (
{
closed = 1;
nodes = (
"583 284 LINE",
"325 469 LINE",
"325 378 LINE",
"496 259 LINE",
"325 144 LINE",
"325 54 LINE",
"583 229 LINE"
);
},
{
closed = 1;
nodes = (
"318 284 LINE",
"60 469 LINE",
"60 378 LINE",
"230 259 LINE",
"60 144 LINE",
"60 54 LINE",
"318 229 LINE"
);
}
);
width = 621;
}
);
leftKerningGroup = guillemotright;
rightKerningGroup = guillemotright;
unicode = 00BB;
},
{
color = 4;
glyphname = onequarter;
lastChange = "2014-12-04 11:12:28 +0000";
layers = (
{
components = (
{
name = onesuperior;
transform = "{1, 0, 0, 1, 12, -82}";
},
{
name = foursuperior;
transform = "{1, 0, 0, 1, 485, -400}";
}
);
layerId = "643E1A31-2BD5-4D48-BA91-7A3195B2D7C3";
name = Bold;
paths = (
{
closed = 1;
nodes = (
"212 -6 LINE",
"482 342 LINE",
"758 671 LINE",
"706 716 LINE",
"442 373 LINE",
"161 40 LINE"
);
}
);
width = 893;
}
);
unicode = 00BC;
},
{
glyphname = four.denominator;
layers = (
{
layerId = "643E1A31-2BD5-4D48-BA91-7A3195B2D7C3";
name = Bold;
paths = (
{
closed = 1;
nodes = (
"312 0 LINE",
"312 97 LINE",
"372 97 LINE",
"372 162 LINE",
"312 162 LINE",
"312 414 LINE",
"266 414 LINE",
"22 161 LINE",
"22 97 LINE",
"246 97 LINE",
"246 0 LINE"
);
},
{
closed = 1;
nodes = (
"248 329 LINE",
"248 162 LINE",
"89 162 LINE"
);
}
);
width = 400;
}
);
},
{
color = 4;
glyphname = one.numerator;
lastChange = "2014-12-04 11:12:33 +0000";
layers = (
{
layerId = "643E1A31-2BD5-4D48-BA91-7A3195B2D7C3";
name = Bold;
paths = (
{
closed = 1;
nodes = (
"195 314 LINE",
"195 732 LINE",
"128 732 LINE",
"33 676 LINE",
"59 622 LINE",
"128 659 LINE",
"128 314 LINE"
);
}
);
width = 289;
}
);
},
{
color = 4;
glyphname = onehalf;
lastChange = "2014-12-04 11:12:33 +0000";
layers = (
{
components = (
{
name = onesuperior;
transform = "{1, 0, 0, 1, 9, -83}";
},
{
name = twosuperior;
transform = "{1, 0, 0, 1, 520, -397}";
}
);
layerId = "643E1A31-2BD5-4D48-BA91-7A3195B2D7C3";
name = Bold;
paths = (
{
closed = 1;
nodes = (
"174 -6 LINE",
"444 342 LINE",
"720 671 LINE",
"668 716 LINE",
"404 373 LINE",
"123 40 LINE"
);
}
);
width = 922;
}
);
unicode = 00BD;
},
{
glyphname = two.denominator;
layers = (
{
layerId = "643E1A31-2BD5-4D48-BA91-7A3195B2D7C3";
name = Bold;
paths = (
{
closed = 1;
nodes = (
"371 0 LINE",
"371 65 LINE",
"140 65 LINE",
"140 98 OFFCURVE",
"161 136 OFFCURVE",
"236 160 CURVE SMOOTH",
"289 176 OFFCURVE",
"370 205 OFFCURVE",
"370 290 CURVE SMOOTH",
"370 368 OFFCURVE",
"316 418 OFFCURVE",
"213 418 CURVE SMOOTH",
"114 418 OFFCURVE",
"53 372 OFFCURVE",
"36 350 CURVE",
"79 301 LINE",
"101 324 OFFCURVE",
"142 353 OFFCURVE",
"203 353 CURVE SMOOTH",
"263 353 OFFCURVE",
"295 329 OFFCURVE",
"295 291 CURVE SMOOTH",
"295 235 OFFCURVE",
"223 217 OFFCURVE",
"162 193 CURVE SMOOTH",
"69 156 OFFCURVE",
"32 107 OFFCURVE",
"32 0 CURVE"
);
}
);
width = 410;
}
);
},
{
glyphname = threequarters;
layers = (
{
layerId = "643E1A31-2BD5-4D48-BA91-7A3195B2D7C3";
name = Bold;
paths = (
{
closed = 1;
nodes = (
"290 306 OFFCURVE",
"374 345 OFFCURVE",
"374 423 CURVE SMOOTH",
"374 476 OFFCURVE",
"334 520 OFFCURVE",
"270 529 CURVE",
"329 540 OFFCURVE",
"363 571 OFFCURVE",
"363 617 CURVE SMOOTH",
"363 682 OFFCURVE",
"293 731 OFFCURVE",
"199 731 CURVE SMOOTH",
"134 731 OFFCURVE",
"69 709 OFFCURVE",
"41 670 CURVE",
"85 617 LINE",
"107 648 OFFCURVE",
"145 669 OFFCURVE",
"199 669 CURVE SMOOTH",
"245 669 OFFCURVE",
"292 650 OFFCURVE",
"292 613 CURVE SMOOTH",
"292 574 OFFCURVE",
"239 556 OFFCURVE",
"157 556 CURVE SMOOTH",
"134 556 LINE",
"134 495 LINE",
"157 495 LINE SMOOTH",
"249 495 OFFCURVE",
"306 474 OFFCURVE",
"306 433 CURVE SMOOTH",
"306 396 OFFCURVE",
"258 374 OFFCURVE",
"199 374 CURVE SMOOTH",
"130 374 OFFCURVE",
"85 410 OFFCURVE",
"76 437 CURVE",
"39 389 LINE",
"55 337 OFFCURVE",
"117 306 OFFCURVE",
"200 306 CURVE SMOOTH"
);
},
{
closed = 1;
nodes = (
"805 0 LINE",
"805 97 LINE",
"865 97 LINE",
"865 162 LINE",
"805 162 LINE",
"805 414 LINE",
"759 414 LINE",
"515 161 LINE",
"515 97 LINE",
"739 97 LINE",
"739 0 LINE"
);
},
{
closed = 1;
nodes = (
"741 329 LINE",
"741 162 LINE",
"582 162 LINE"
);
},
{
closed = 1;
nodes = (
"243 -6 LINE",
"513 342 LINE",
"789 671 LINE",
"737 716 LINE",
"473 373 LINE",
"192 40 LINE"
);
}
);
width = 901;
}
);
unicode = 00BE;
},
{
glyphname = three.numerator;
layers = (
{
layerId = "643E1A31-2BD5-4D48-BA91-7A3195B2D7C3";
name = Bold;
paths = (
{
closed = 1;
nodes = (
"281 306 OFFCURVE",
"365 345 OFFCURVE",
"365 423 CURVE SMOOTH",
"365 476 OFFCURVE",
"325 520 OFFCURVE",
"261 529 CURVE",
"320 540 OFFCURVE",
"354 571 OFFCURVE",
"354 617 CURVE SMOOTH",
"354 682 OFFCURVE",
"284 731 OFFCURVE",
"190 731 CURVE SMOOTH",
"125 731 OFFCURVE",
"60 709 OFFCURVE",
"32 670 CURVE",
"76 617 LINE",
"98 648 OFFCURVE",
"136 669 OFFCURVE",
"190 669 CURVE SMOOTH",
"236 669 OFFCURVE",
"283 650 OFFCURVE",
"283 613 CURVE SMOOTH",
"283 574 OFFCURVE",
"230 556 OFFCURVE",
"148 556 CURVE SMOOTH",
"125 556 LINE",
"125 495 LINE",
"148 495 LINE SMOOTH",
"240 495 OFFCURVE",
"297 474 OFFCURVE",
"297 433 CURVE SMOOTH",
"297 396 OFFCURVE",
"249 374 OFFCURVE",
"190 374 CURVE SMOOTH",
"121 374 OFFCURVE",
"76 410 OFFCURVE",
"67 437 CURVE",
"30 389 LINE",
"46 337 OFFCURVE",
"108 306 OFFCURVE",
"191 306 CURVE SMOOTH"
);
}
);
width = 400;
}
);
},
{
color = 4;
glyphname = questiondown;
lastChange = "2014-12-08 09:29:13 +0000";
layers = (
{
layerId = "643E1A31-2BD5-4D48-BA91-7A3195B2D7C3";
name = Bold;
paths = (
{
closed = 1;
nodes = (
"253 285 LINE",
"253 210 OFFCURVE",
"202 183 OFFCURVE",
"148 153 CURVE SMOOTH",
"83 117 OFFCURVE",
"32 74 OFFCURVE",
"32 -18 CURVE SMOOTH",
"32 -154 OFFCURVE",
"135 -213 OFFCURVE",
"235 -213 CURVE SMOOTH",
"325 -213 OFFCURVE",
"408 -166 OFFCURVE",
"444 -84 CURVE",
"372 -35 LINE",
"347 -79 OFFCURVE",
"301 -123 OFFCURVE",
"238 -123 CURVE SMOOTH",
"182 -123 OFFCURVE",
"128 -87 OFFCURVE",
"128 -22 CURVE SMOOTH",
"128 61 OFFCURVE",
"217 97 OFFCURVE",
"262 124 CURVE SMOOTH",
"325 163 OFFCURVE",
"345 216 OFFCURVE",
"345 285 CURVE"
);
},
{
closed = 1;
nodes = (
"339 377 OFFCURVE",
"372 410 OFFCURVE",
"372 450 CURVE SMOOTH",
"372 490 OFFCURVE",
"339 523 OFFCURVE",
"299 523 CURVE SMOOTH",
"258 523 OFFCURVE",
"226 490 OFFCURVE",
"226 450 CURVE SMOOTH",
"226 410 OFFCURVE",
"258 377 OFFCURVE",
"299 377 CURVE SMOOTH"
);
}
);
width = 476;
}
);
rightKerningGroup = questiondown;
unicode = 00BF;
},
{
color = 9;
glyphname = circumflex;
lastChange = "2014-12-26 20:16:17 +0000";
layers = (
{
anchors = (
{
name = _top;
position = "{177, 523}";
}
);
layerId = "643E1A31-2BD5-4D48-BA91-7A3195B2D7C3";
name = Bold;
paths = (
{
closed = 1;
nodes = (
"220 751 LINE",
"130 751 LINE",
"-19 596 LINE",
"106 596 LINE",
"175 708 LINE",
"244 596 LINE",
"369 596 LINE"
);
}
);
width = 355;
}
);
unicode = 02C6;
},
{
color = 4;
glyphname = tilde;
lastChange = "2014-12-08 08:44:40 +0000";
layers = (
{
anchors = (
{
name = _top;
position = "{214, 523}";
}
);
layerId = "643E1A31-2BD5-4D48-BA91-7A3195B2D7C3";
name = Bold;
paths = (
{
closed = 1;
nodes = (
"366 615 OFFCURVE",
"391 713 OFFCURVE",
"391 730 CURVE",
"328 730 LINE",
"328 726 OFFCURVE",
"323 681 OFFCURVE",
"274 681 CURVE SMOOTH",
"225 681 OFFCURVE",
"202 725 OFFCURVE",
"143 725 CURVE SMOOTH",
"60 725 OFFCURVE",
"36 631 OFFCURVE",
"36 610 CURVE",
"98 610 LINE",
"98 614 OFFCURVE",
"102 658 OFFCURVE",
"147 658 CURVE SMOOTH",
"190 658 OFFCURVE",
"216 615 OFFCURVE",
"277 615 CURVE SMOOTH"
);
}
);
width = 426;
}
);
unicode = 02DC;
},
{
color = 9;
glyphname = ring;
lastChange = "2014-12-26 21:39:19 +0000";
layers = (
{
anchors = (
{
name = _top;
position = "{129, 523}";
}
);
layerId = "643E1A31-2BD5-4D48-BA91-7A3195B2D7C3";
name = Bold;
paths = (
{
closed = 1;
nodes = (
"27 616 OFFCURVE",
"68 584 OFFCURVE",
"128 584 CURVE SMOOTH",
"189 584 OFFCURVE",
"230 616 OFFCURVE",
"230 668 CURVE SMOOTH",
"230 721 OFFCURVE",
"189 752 OFFCURVE",
"128 752 CURVE SMOOTH",
"68 752 OFFCURVE",
"27 721 OFFCURVE",
"27 668 CURVE SMOOTH"
);
},
{
closed = 1;
nodes = (
"154 710 OFFCURVE",
"175 693 OFFCURVE",
"175 668 CURVE SMOOTH",
"175 644 OFFCURVE",
"153 625 OFFCURVE",
"128 625 CURVE SMOOTH",
"101 625 OFFCURVE",
"82 645 OFFCURVE",
"82 668 CURVE SMOOTH",
"82 693 OFFCURVE",
"102 710 OFFCURVE",
"128 710 CURVE SMOOTH"
);
}
);
width = 257;
}
);
unicode = 02DA;
},
{
glyphname = AE;
lastChange = "2014-12-27 10:50:52 +0000";
layers = (
{
anchors = (
{
name = top;
position = "{492, 710}";
}
);
layerId = "643E1A31-2BD5-4D48-BA91-7A3195B2D7C3";
name = Bold;
paths = (
{
closed = 1;
nodes = (
"-25 0 LINE",
"96 0 LINE",
"214 193 LINE",
"453 193 LINE",
"453 0 LINE",
"928 0 LINE",
"928 99 LINE",
"565 99 LINE",
"565 312 LINE",
"865 312 LINE",
"865 411 LINE",
"565 411 LINE",
"565 611 LINE",
"919 611 LINE",
"919 710 LINE",
"423 710 LINE"
);
},
{
closed = 1;
nodes = (
"263 293 LINE",
"445 581 LINE",
"445 293 LINE"
);
}
);
width = 963;
}
);
leftKerningGroup = AE;
rightKerningGroup = E;
unicode = 00C6;
},
{
glyphname = Ccedilla;
layers = (
{
layerId = "643E1A31-2BD5-4D48-BA91-7A3195B2D7C3";
name = Bold;
paths = (
{
closed = 1;
nodes = (
"266 -169 LINE",
"292 -179 OFFCURVE",
"327 -189 OFFCURVE",
"369 -189 CURVE SMOOTH",
"448 -189 OFFCURVE",
"488 -156 OFFCURVE",
"488 -108 CURVE SMOOTH",
"488 -62 OFFCURVE",
"453 -41 OFFCURVE",
"406 -41 CURVE SMOOTH",
"396 -41 OFFCURVE",
"382 -42 OFFCURVE",
"372 -45 CURVE",
"398 -5 LINE",
"503 3 OFFCURVE",
"617 61 OFFCURVE",
"658 159 CURVE",
"565 212 LINE",
"528 129 OFFCURVE",
"445 95 OFFCURVE",
"376 95 CURVE SMOOTH",
"243 95 OFFCURVE",
"147 218 OFFCURVE",
"147 356 CURVE SMOOTH",
"147 480 OFFCURVE",
"225 613 OFFCURVE",
"373 613 CURVE SMOOTH",
"441 613 OFFCURVE",
"520 586 OFFCURVE",
"559 500 CURVE",
"647 559 LINE",
"601 650 OFFCURVE",
"505 714 OFFCURVE",
"377 714 CURVE SMOOTH",
"160 714 OFFCURVE",
"33 532 OFFCURVE",
"33 360 CURVE SMOOTH",
"33 187 OFFCURVE",
"161 9 OFFCURVE",
"347 -5 CURVE",
"302 -90 LINE",
"319 -85 OFFCURVE",
"354 -78 OFFCURVE",
"382 -78 CURVE SMOOTH",
"413 -78 OFFCURVE",
"434 -86 OFFCURVE",
"434 -112 CURVE SMOOTH",
"434 -136 OFFCURVE",
"412 -146 OFFCURVE",
"377 -146 CURVE SMOOTH",
"342 -146 OFFCURVE",
"305 -135 OFFCURVE",
"289 -126 CURVE"
);
}
);
width = 682;
}
);
leftKerningGroup = C;
rightKerningGroup = C;
unicode = 00C7;
},
{
color = 4;
glyphname = Eth;
lastChange = "2014-12-07 20:19:30 +0000";
layers = (
{
layerId = "643E1A31-2BD5-4D48-BA91-7A3195B2D7C3";
name = Bold;
paths = (
{
closed = 1;
nodes = (
"102 399 LINE",
"33 399 LINE",
"33 315 LINE",
"102 315 LINE"
);
},
{
closed = 1;
nodes = (
"182 315 LINE",
"349 315 LINE",
"349 399 LINE",
"182 399 LINE"
);
},
{
closed = 1;
nodes = (
"86 331 LINE",
"86 0 LINE",
"338 0 LINE SMOOTH",
"548 0 OFFCURVE",
"684 141 OFFCURVE",
"684 356 CURVE SMOOTH",
"684 552 OFFCURVE",
"567 710 OFFCURVE",
"338 710 CURVE SMOOTH",
"86 710 LINE",
"86 383 LINE"
);
},
{
closed = 1;
nodes = (
"198 383 LINE",
"198 611 LINE",
"338 611 LINE SMOOTH",
"485 611 OFFCURVE",
"570 505 OFFCURVE",
"570 356 CURVE SMOOTH",
"570 210 OFFCURVE",
"488 99 OFFCURVE",
"338 99 CURVE SMOOTH",
"198 99 LINE",
"198 331 LINE"
);
}
);
width = 722;
}
);
leftKerningGroup = B;
rightKerningGroup = D;
unicode = 00D0;
},
{
glyphname = multiply;
layers = (
{
layerId = "643E1A31-2BD5-4D48-BA91-7A3195B2D7C3";
name = Bold;
paths = (
{
closed = 1;
nodes = (
"304 274 LINE",
"410 381 LINE",
"342 450 LINE",
"235 343 LINE",
"129 449 LINE",
"60 381 LINE",
"165 274 LINE",
"57 165 LINE",
"125 96 LINE",
"235 205 LINE",
"345 96 LINE",
"414 164 LINE"
);
}
);
width = 470;
}
);
unicode = 00D7;
},
{
glyphname = Oslash;
lastChange = "2014-12-27 10:51:06 +0000";
layers = (
{
anchors = (
{
name = top;
position = "{376, 710}";
}
);
layerId = "643E1A31-2BD5-4D48-BA91-7A3195B2D7C3";
name = Bold;
paths = (
{
closed = 1;
nodes = (
"558 710 LINE",
"533 674 LINE",
"488 700 OFFCURVE",
"435 715 OFFCURVE",
"377 715 CURVE SMOOTH",
"181 715 OFFCURVE",
"35 544 OFFCURVE",
"35 355 CURVE SMOOTH",
"35 259 OFFCURVE",
"72 165 OFFCURVE",
"137 97 CURVE",
"71 0 LINE",
"193 0 LINE",
"217 35 LINE",
"263 10 OFFCURVE",
"316 -5 OFFCURVE",
"375 -5 CURVE SMOOTH",
"571 -5 OFFCURVE",
"716 165 OFFCURVE",
"716 354 CURVE SMOOTH",
"716 447 OFFCURVE",
"678 543 OFFCURVE",
"613 612 CURVE",
"680 710 LINE"
);
},
{
closed = 1;
nodes = (
"149 483 OFFCURVE",
"233 613 OFFCURVE",
"376 613 CURVE SMOOTH",
"412 613 OFFCURVE",
"445 604 OFFCURVE",
"474 588 CURVE",
"200 188 LINE",
"167 235 OFFCURVE",
"149 294 OFFCURVE",
"149 355 CURVE SMOOTH"
);
},
{
closed = 1;
nodes = (
"601 228 OFFCURVE",
"519 96 OFFCURVE",
"376 96 CURVE SMOOTH",
"339 96 OFFCURVE",
"305 105 OFFCURVE",
"276 120 CURVE",
"550 521 LINE",
"583 475 OFFCURVE",
"601 416 OFFCURVE",
"601 355 CURVE SMOOTH"
);
}
);
width = 751;
}
);
leftKerningGroup = C;
rightKerningGroup = O;
unicode = 00D8;
},
{
glyphname = Thorn;
layers = (
{
layerId = "643E1A31-2BD5-4D48-BA91-7A3195B2D7C3";
name = Bold;
paths = (
{
closed = 1;
nodes = (
"192 577 LINE",
"192 710 LINE",
"80 710 LINE",
"80 0 LINE",
"192 0 LINE",
"192 114 LINE",
"366 114 LINE SMOOTH",
"495 114 OFFCURVE",
"581 226 OFFCURVE",
"581 346 CURVE SMOOTH",
"581 460 OFFCURVE",
"489 577 OFFCURVE",
"361 577 CURVE SMOOTH"
);
},
{
closed = 1;
nodes = (
"192 214 LINE",
"192 478 LINE",
"355 478 LINE SMOOTH",
"416 478 OFFCURVE",
"468 420 OFFCURVE",
"468 346 CURVE SMOOTH",
"468 276 OFFCURVE",
"425 214 OFFCURVE",
"361 214 CURVE SMOOTH"
);
}
);
width = 604;
}
);
leftKerningGroup = B;
rightKerningGroup = Thorn;
unicode = 00DE;
},
{
glyphname = germandbls;
layers = (
{
layerId = "643E1A31-2BD5-4D48-BA91-7A3195B2D7C3";
name = Bold;
paths = (
{
closed = 1;
nodes = (
"244 -6 LINE",
"399 -2 OFFCURVE",
"524 64 OFFCURVE",
"524 209 CURVE SMOOTH",
"524 304 OFFCURVE",
"469 380 OFFCURVE",
"379 402 CURVE",
"430 418 OFFCURVE",
"472 481 OFFCURVE",
"472 551 CURVE SMOOTH",
"472 650 OFFCURVE",
"390 714 OFFCURVE",
"280 714 CURVE SMOOTH",
"157 714 OFFCURVE",
"66 633 OFFCURVE",
"66 520 CURVE SMOOTH",
"66 0 LINE",
"171 0 LINE",
"171 501 LINE SMOOTH",
"171 560 OFFCURVE",
"200 620 OFFCURVE",
"274 620 CURVE SMOOTH",
"319 620 OFFCURVE",
"368 596 OFFCURVE",
"368 534 CURVE SMOOTH",
"368 481 OFFCURVE",
"331 445 OFFCURVE",
"275 445 CURVE SMOOTH",
"256 445 LINE",
"256 345 LINE",
"276 345 LINE SMOOTH",
"351 345 OFFCURVE",
"409 298 OFFCURVE",
"409 220 CURVE SMOOTH",
"409 134 OFFCURVE",
"340 97 OFFCURVE",
"244 95 CURVE"
);
}
);
width = 555;
}
);
leftKerningGroup = b;
rightKerningGroup = germandbls;
unicode = 00DF;
},
{
glyphname = ae;
lastChange = "2014-12-09 11:17:16 +0000";
layers = (
{
anchors = (
{
name = top;
position = "{468, 523}";
}
);
layerId = "643E1A31-2BD5-4D48-BA91-7A3195B2D7C3";
name = Bold;
paths = (
{
closed = 1;
nodes = (
"279 -10 OFFCURVE",
"376 22 OFFCURVE",
"422 101 CURVE",
"468 34 OFFCURVE",
"547 -10 OFFCURVE",
"643 -10 CURVE SMOOTH",
"753 -10 OFFCURVE",
"843 46 OFFCURVE",
"878 124 CURVE",
"784 151 LINE",
"764 103 OFFCURVE",
"706 71 OFFCURVE",
"647 71 CURVE SMOOTH",
"561 71 OFFCURVE",
"488 133 OFFCURVE",
"481 225 CURVE",
"908 225 LINE",
"910 234 OFFCURVE",
"911 251 OFFCURVE",
"911 261 CURVE",
"910 408 OFFCURVE",
"805 532 OFFCURVE",
"641 532 CURVE SMOOTH",
"561 532 OFFCURVE",
"494 498 OFFCURVE",
"450 447 CURVE",
"415 501 OFFCURVE",
"352 532 OFFCURVE",
"268 532 CURVE SMOOTH",
"195 532 OFFCURVE",
"126 509 OFFCURVE",
"58 464 CURVE",
"93 394 LINE",
"150 433 OFFCURVE",
"204 454 OFFCURVE",
"258 454 CURVE SMOOTH",
"332 454 OFFCURVE",
"375 418 OFFCURVE",
"383 355 CURVE",
"377 340 OFFCURVE",
"374 316 OFFCURVE",
"372 299 CURVE",
"338 312 OFFCURVE",
"292 319 OFFCURVE",
"248 319 CURVE SMOOTH",
"118 319 OFFCURVE",
"28 252 OFFCURVE",
"28 154 CURVE SMOOTH",
"28 61 OFFCURVE",
"104 -10 OFFCURVE",
"204 -10 CURVE SMOOTH"
);
},
{
closed = 1;
nodes = (
"176 71 OFFCURVE",
"131 111 OFFCURVE",
"131 163 CURVE SMOOTH",
"131 218 OFFCURVE",
"187 256 OFFCURVE",
"266 256 CURVE SMOOTH",
"301 256 OFFCURVE",
"339 249 OFFCURVE",
"372 238 CURVE",
"373 218 OFFCURVE",
"378 178 OFFCURVE",
"387 161 CURVE",
"386 150 OFFCURVE",
"378 136 OFFCURVE",
"366 126 CURVE",
"340 92 OFFCURVE",
"288 71 OFFCURVE",
"234 71 CURVE SMOOTH"
);
},
{
closed = 1;
nodes = (
"479 295 LINE",
"485 386 OFFCURVE",
"551 451 OFFCURVE",
"639 451 CURVE SMOOTH",
"727 451 OFFCURVE",
"793 387 OFFCURVE",
"801 295 CURVE"
);
}
);
width = 935;
}
);
leftKerningGroup = a;
rightKerningGroup = e;
unicode = 00E6;
},
{
color = 4;
glyphname = dotlessi;
lastChange = "2014-12-08 10:24:24 +0000";
layers = (
{
anchors = (
{
name = ogonek;
position = "{218, 10}";
},
{
name = top;
position = "{121, 523}";
}
);
layerId = "643E1A31-2BD5-4D48-BA91-7A3195B2D7C3";
name = Bold;
paths = (
{
closed = 1;
nodes = (
"176 0 LINE",
"176 523 LINE",
"66 523 LINE",
"66 0 LINE"
);
}
);
width = 242;
}
);
leftKerningGroup = i;
rightKerningGroup = i;
unicode = 0131;
},
{
glyphname = eth;
layers = (
{
layerId = "643E1A31-2BD5-4D48-BA91-7A3195B2D7C3";
name = Bold;
paths = (
{
closed = 1;
nodes = (
"483 713 LINE",
"401 665 LINE",
"374 689 OFFCURVE",
"343 711 OFFCURVE",
"309 730 CURVE",
"162 730 LINE",
"225 695 OFFCURVE",
"275 661 OFFCURVE",
"316 625 CURVE",
"224 572 LINE",
"256 527 LINE",
"357 585 LINE",
"417 520 OFFCURVE",
"446 452 OFFCURVE",
"460 380 CURVE",
"424 436 OFFCURVE",
"355 473 OFFCURVE",
"278 473 CURVE SMOOTH",
"143 473 OFFCURVE",
"35 365 OFFCURVE",
"35 233 CURVE SMOOTH",
"35 96 OFFCURVE",
"153 -10 OFFCURVE",
"300 -10 CURVE SMOOTH",
"452 -10 OFFCURVE",
"573 104 OFFCURVE",
"573 290 CURVE SMOOTH",
"573 395 OFFCURVE",
"534 523 OFFCURVE",
"441 626 CURVE",
"515 668 LINE"
);
},
{
closed = 1;
nodes = (
"148 317 OFFCURVE",
"216 384 OFFCURVE",
"305 384 CURVE SMOOTH",
"392 384 OFFCURVE",
"460 321 OFFCURVE",
"460 238 CURVE SMOOTH",
"460 154 OFFCURVE",
"392 84 OFFCURVE",
"302 84 CURVE SMOOTH",
"216 84 OFFCURVE",
"148 149 OFFCURVE",
"148 233 CURVE SMOOTH"
);
}
);
width = 609;
}
);
leftKerningGroup = eth;
rightKerningGroup = eth;
unicode = 00F0;
},
{
color = 4;
glyphname = divide;
lastChange = "2014-12-08 08:35:26 +0000";
layers = (
{
layerId = "643E1A31-2BD5-4D48-BA91-7A3195B2D7C3";
name = Bold;
paths = (
{
closed = 1;
nodes = (
"463 248 LINE",
"463 336 LINE",
"60 336 LINE",
"60 248 LINE"
);
},
{
closed = 1;
nodes = (
"296 52 OFFCURVE",
"326 81 OFFCURVE",
"326 117 CURVE SMOOTH",
"326 152 OFFCURVE",
"296 181 OFFCURVE",
"262 181 CURVE SMOOTH",
"226 181 OFFCURVE",
"197 152 OFFCURVE",
"197 117 CURVE SMOOTH",
"197 81 OFFCURVE",
"226 52 OFFCURVE",
"262 52 CURVE SMOOTH"
);
},
{
closed = 1;
nodes = (
"296 398 OFFCURVE",
"326 427 OFFCURVE",
"326 463 CURVE SMOOTH",
"326 498 OFFCURVE",
"296 527 OFFCURVE",
"262 527 CURVE SMOOTH",
"226 527 OFFCURVE",
"197 498 OFFCURVE",
"197 463 CURVE SMOOTH",
"197 427 OFFCURVE",
"226 398 OFFCURVE",
"262 398 CURVE SMOOTH"
);
}
);
width = 523;
}
);
unicode = 00F7;
},
{
glyphname = oslash;
lastChange = "2014-12-11 10:34:47 +0000";
layers = (
{
components = (
{
name = o;
transform = "{1, 0, 0, 1, 0, 0}";
}
);
layerId = "643E1A31-2BD5-4D48-BA91-7A3195B2D7C3";
name = Bold;
paths = (
{
closed = 1;
nodes = (
"130 -3 LINE",
"156 29 LINE",
"196 4 OFFCURVE",
"245 -10 OFFCURVE",
"301 -10 CURVE SMOOTH",
"464 -10 OFFCURVE",
"570 116 OFFCURVE",
"570 261 CURVE SMOOTH",
"570 340 OFFCURVE",
"538 414 OFFCURVE",
"482 464 CURVE",
"533 526 LINE",
"467 526 LINE",
"442 494 LINE",
"402 518 OFFCURVE",
"355 532 OFFCURVE",
"301 532 CURVE SMOOTH",
"139 532 OFFCURVE",
"32 406 OFFCURVE",
"32 261 CURVE SMOOTH",
"32 182 OFFCURVE",
"62 110 OFFCURVE",
"117 59 CURVE",
"66 -3 LINE"
);
},
{
closed = 1;
nodes = (
"270 84 OFFCURVE",
"242 93 OFFCURVE",
"218 110 CURVE",
"416 382 LINE",
"441 350 OFFCURVE",
"457 308 OFFCURVE",
"457 261 CURVE SMOOTH",
"457 161 OFFCURVE",
"388 84 OFFCURVE",
"301 84 CURVE SMOOTH"
);
},
{
closed = 1;
nodes = (
"145 360 OFFCURVE",
"215 438 OFFCURVE",
"301 438 CURVE SMOOTH",
"330 438 OFFCURVE",
"357 429 OFFCURVE",
"381 413 CURVE",
"185 140 LINE",
"160 171 OFFCURVE",
"145 213 OFFCURVE",
"145 260 CURVE SMOOTH"
);
}
);
width = 602;
}
);
leftKerningGroup = c;
rightKerningGroup = o;
unicode = 00F8;
},
{
glyphname = thorn;
layers = (
{
layerId = "643E1A31-2BD5-4D48-BA91-7A3195B2D7C3";
name = Bold;
paths = (
{
closed = 1;
nodes = (
"571 390 OFFCURVE",
"474 536 OFFCURVE",
"319 536 CURVE SMOOTH",
"246 536 OFFCURVE",
"204 501 OFFCURVE",
"179 465 CURVE",
"179 710 LINE",
"66 710 LINE",
"66 -213 LINE",
"179 -213 LINE",
"179 44 LINE",
"198 12 OFFCURVE",
"246 -21 OFFCURVE",
"310 -21 CURVE SMOOTH",
"454 -21 OFFCURVE",
"569 110 OFFCURVE",
"571 257 CURVE SMOOTH"
);
},
{
closed = 1;
nodes = (
"458 163 OFFCURVE",
"395 79 OFFCURVE",
"307 79 CURVE SMOOTH",
"250 79 OFFCURVE",
"179 128 OFFCURVE",
"179 174 CURVE SMOOTH",
"179 340 LINE",
"206 393 OFFCURVE",
"249 437 OFFCURVE",
"312 437 CURVE SMOOTH",
"401 437 OFFCURVE",
"458 353 OFFCURVE",
"458 258 CURVE SMOOTH"
);
}
);
width = 602;
}
);
leftKerningGroup = b;
rightKerningGroup = b;
unicode = 00FE;
},
{
color = 9;
glyphname = breve;
lastChange = "2014-12-26 21:39:48 +0000";
layers = (
{
anchors = (
{
name = _top;
position = "{156, 523}";
}
);
layerId = "643E1A31-2BD5-4D48-BA91-7A3195B2D7C3";
name = Bold;
paths = (
{
closed = 1;
nodes = (
"119 668 OFFCURVE",
"87 707 OFFCURVE",
"87 751 CURVE",
"16 751 LINE",
"16 669 OFFCURVE",
"76 608 OFFCURVE",
"156 608 CURVE SMOOTH",
"236 608 OFFCURVE",
"295 669 OFFCURVE",
"295 751 CURVE",
"224 751 LINE",
"219 703 OFFCURVE",
"190 668 OFFCURVE",
"156 668 CURVE SMOOTH"
);
}
);
width = 312;
}
);
unicode = 02D8;
},
{
glyphname = ogonek;
layers = (
{
layerId = "643E1A31-2BD5-4D48-BA91-7A3195B2D7C3";
name = Bold;
paths = (
{
closed = 1;
nodes = (
"185 -130 LINE",
"146 -127 OFFCURVE",
"127 -112 OFFCURVE",
"127 -89 CURVE SMOOTH",
"127 -61 OFFCURVE",
"151 -34 OFFCURVE",
"207 0 CURVE",
"174 20 LINE",
"97 -22 OFFCURVE",
"61 -64 OFFCURVE",
"61 -106 CURVE SMOOTH",
"61 -145 OFFCURVE",
"95 -178 OFFCURVE",
"160 -188 CURVE"
);
}
);
width = 272;
}
);
unicode = 02DB;
},
{
color = 4;
glyphname = dotaccent;
lastChange = "2014-12-08 08:34:45 +0000";
layers = (
{
anchors = (
{
name = _top;
position = "{104, 523}";
}
);
layerId = "643E1A31-2BD5-4D48-BA91-7A3195B2D7C3";
name = Bold;
paths = (
{
closed = 1;
nodes = (
"138 601 OFFCURVE",
"168 630 OFFCURVE",
"168 666 CURVE SMOOTH",
"168 701 OFFCURVE",
"138 730 OFFCURVE",
"104 730 CURVE SMOOTH",
"68 730 OFFCURVE",
"39 701 OFFCURVE",
"39 666 CURVE SMOOTH",
"39 630 OFFCURVE",
"68 601 OFFCURVE",
"104 601 CURVE SMOOTH"
);
}
);
width = 199;
}
);
unicode = 02D9;
},
{
color = 9;
glyphname = caron;
lastChange = "2014-12-26 20:16:04 +0000";
layers = (
{
anchors = (
{
name = _top;
position = "{171, 523}";
}
);
background = {
paths = (
{
closed = 1;
nodes = (
"-531 702 LINE",
"-427 607 LINE",
"-348 607 LINE",
"-244 702 LINE",
"-303 730 LINE",
"-388 667 LINE",
"-473 730 LINE"
);
},
{
closed = 1;
nodes = (
"731 730 LINE",
"657 730 LINE",
"581 634 LINE",
"504 730 LINE",
"430 730 LINE",
"551 596 LINE",
"610 596 LINE"
);
},
{
closed = 1;
nodes = (
"242 730 LINE",
"147 596 LINE",
"211 596 LINE",
"357 730 LINE"
);
},
{
closed = 1;
nodes = (
"123 596 LINE",
"187 596 LINE",
"92 730 LINE",
"-23 730 LINE"
);
}
);
};
layerId = "643E1A31-2BD5-4D48-BA91-7A3195B2D7C3";
name = Bold;
paths = (
{
closed = 1;
nodes = (
"244 751 LINE",
"175 639 LINE",
"106 751 LINE",
"-19 751 LINE",
"130 596 LINE",
"220 596 LINE",
"369 751 LINE"
);
}
);
width = 355;
}
);
unicode = 02C7;
},
{
color = 4;
glyphname = caron.alt;
lastChange = "2014-12-08 13:21:36 +0000";
layers = (
{
anchors = (
{
name = _topright;
position = "{59, 523}";
}
);
layerId = "643E1A31-2BD5-4D48-BA91-7A3195B2D7C3";
name = Bold;
paths = (
{
closed = 1;
nodes = (
"188 711 LINE",
"95 711 LINE",
"60 557 LINE",
"135 557 LINE"
);
}
);
width = 243;
}
);
},
{
color = 4;
glyphname = Dcroat;
lastChange = "2014-12-27 10:12:35 +0000";
layers = (
{
components = (
{
name = D;
transform = "{1, 0, 0, 1, 6, 0}";
}
);
layerId = "643E1A31-2BD5-4D48-BA91-7A3195B2D7C3";
name = Bold;
paths = (
{
closed = 1;
nodes = (
"33 314 LINE",
"349 314 LINE",
"349 399 LINE",
"33 399 LINE"
);
}
);
width = 722;
}
);
leftKerningGroup = B;
rightKerningGroup = D;
unicode = 0110;
},
{
color = 4;
glyphname = dcroat;
lastChange = "2014-12-27 10:11:50 +0000";
layers = (
{
components = (
{
name = d;
transform = "{1, 0, 0, 1, 0, 0}";
}
);
layerId = "643E1A31-2BD5-4D48-BA91-7A3195B2D7C3";
name = Bold;
paths = (
{
closed = 1;
nodes = (
"348 604 LINE",
"629 604 LINE",
"629 672 LINE",
"348 672 LINE"
);
}
);
width = 637;
}
);
leftKerningGroup = d;
rightKerningGroup = d;
unicode = 0111;
},
{
color = 4;
glyphname = commaaccent;
lastChange = "2014-12-08 16:23:57 +0000";
layers = (
{
anchors = (
{
name = _bottom;
position = "{107, 0}";
}
);
layerId = "643E1A31-2BD5-4D48-BA91-7A3195B2D7C3";
name = Bold;
paths = (
{
closed = 1;
nodes = (
"78 -214 LINE",
"21 -214 LINE",
"69 -49 LINE",
"146 -49 LINE"
);
}
);
width = 184;
}
);
unicode = F6C3;
},
{
color = 4;
glyphname = gcommaaccent;
lastChange = "2014-12-25 16:18:29 +0000";
layers = (
{
components = (
{
name = g;
transform = "{1, 0, 0, 1, 0, 0}";
}
);
layerId = "643E1A31-2BD5-4D48-BA91-7A3195B2D7C3";
name = Bold;
paths = (
{
closed = 1;
nodes = (
"324 746 LINE",
"381 746 LINE",
"333 581 LINE",
"256 581 LINE"
);
}
);
width = 628;
}
);
leftKerningGroup = d;
rightKerningGroup = g;
unicode = 0123;
},
{
glyphname = Hbar;
layers = (
{
layerId = "643E1A31-2BD5-4D48-BA91-7A3195B2D7C3";
name = Bold;
paths = (
{
closed = 1;
nodes = (
"555 710 LINE",
"555 602 LINE",
"197 602 LINE",
"197 710 LINE",
"85 710 LINE",
"85 602 LINE",
"34 602 LINE",
"34 546 LINE",
"85 546 LINE",
"85 0 LINE",
"197 0 LINE",
"197 313 LINE",
"555 313 LINE",
"555 0 LINE",
"668 0 LINE",
"668 546 LINE",
"718 546 LINE",
"718 602 LINE",
"668 602 LINE",
"668 710 LINE"
);
},
{
closed = 1;
nodes = (
"197 413 LINE",
"197 546 LINE",
"555 546 LINE",
"555 413 LINE"
);
}
);
width = 752;
}
);
leftKerningGroup = B;
rightKerningGroup = H;
unicode = 0126;
},
{
glyphname = hbar;
layers = (
{
layerId = "643E1A31-2BD5-4D48-BA91-7A3195B2D7C3";
name = Bold;
paths = (
{
closed = 1;
nodes = (
"535 319 LINE SMOOTH",
"535 433 OFFCURVE",
"500 532 OFFCURVE",
"370 532 CURVE SMOOTH",
"289 532 OFFCURVE",
"216 489 OFFCURVE",
"176 418 CURVE",
"176 604 LINE",
"297 604 LINE",
"297 672 LINE",
"176 672 LINE",
"176 730 LINE",
"66 730 LINE",
"66 672 LINE",
"16 672 LINE",
"16 604 LINE",
"66 604 LINE",
"66 0 LINE",
"176 0 LINE",
"176 311 LINE",
"198 383 OFFCURVE",
"266 434 OFFCURVE",
"326 434 CURVE SMOOTH",
"389 434 OFFCURVE",
"425 388 OFFCURVE",
"425 293 CURVE SMOOTH",
"425 0 LINE",
"535 0 LINE"
);
}
);
width = 597;
}
);
leftKerningGroup = b;
rightKerningGroup = h;
unicode = 0127;
},
{
glyphname = dotlessj;
lastChange = "2014-12-08 10:06:44 +0000";
layers = (
{
anchors = (
{
name = top;
position = "{121, 523}";
}
);
layerId = "643E1A31-2BD5-4D48-BA91-7A3195B2D7C3";
name = Bold;
paths = (
{
closed = 1;
nodes = (
"65 -213 LINE",
"175 -213 LINE",
"175 523 LINE",
"65 523 LINE"
);
}
);
width = 242;
}
);
leftKerningGroup = i;
rightKerningGroup = i;
unicode = 0237;
},
{
glyphname = kgreenlandic;
layers = (
{
layerId = "643E1A31-2BD5-4D48-BA91-7A3195B2D7C3";
name = Bold;
paths = (
{
closed = 1;
nodes = (
"547 0 LINE",
"333 303 LINE",
"536 522 LINE",
"416 522 LINE",
"176 267 LINE",
"176 523 LINE",
"66 523 LINE",
"66 0 LINE",
"176 0 LINE",
"176 159 LINE",
"263 241 LINE",
"430 0 LINE"
);
}
);
width = 548;
}
);
unicode = 0138;
},
{
color = 4;
glyphname = Ldot;
lastChange = "2015-01-02 11:58:52 +0000";
layers = (
{
components = (
{
name = L;
transform = "{1, 0, 0, 1, 0, 0}";
}
);
layerId = "643E1A31-2BD5-4D48-BA91-7A3195B2D7C3";
name = Bold;
paths = (
{
closed = 1;
nodes = (
"418 336 OFFCURVE",
"450 368 OFFCURVE",
"450 406 CURVE SMOOTH",
"450 445 OFFCURVE",
"418 476 OFFCURVE",
"380 476 CURVE SMOOTH",
"341 476 OFFCURVE",
"310 445 OFFCURVE",
"310 406 CURVE SMOOTH",
"310 368 OFFCURVE",
"341 336 OFFCURVE",
"380 336 CURVE SMOOTH"
);
}
);
width = 584;
}
);
rightKerningGroup = L;
unicode = 013F;
},
{
color = 4;
glyphname = Lslash;
lastChange = "2014-12-09 10:42:10 +0000";
layers = (
{
components = (
{
name = L;
transform = "{1, 0, 0, 1, 0, 0}";
}
);
layerId = "643E1A31-2BD5-4D48-BA91-7A3195B2D7C3";
name = Bold;
paths = (
{
closed = 1;
nodes = (
"-2 297 LINE",
"36 240 LINE",
"366 470 LINE",
"327 524 LINE"
);
}
);
width = 584;
}
);
leftKerningGroup = B;
rightKerningGroup = L;
unicode = 0141;
},
{
color = 4;
glyphname = lslash;
lastChange = "2014-12-27 10:48:19 +0000";
layers = (
{
components = (
{
name = l;
transform = "{1, 0, 0, 1, 0, 0}";
}
);
layerId = "643E1A31-2BD5-4D48-BA91-7A3195B2D7C3";
name = Bold;
paths = (
{
closed = 1;
nodes = (
"1 335 LINE",
"37 278 LINE",
"320 465 LINE",
"282 520 LINE"
);
}
);
width = 325;
}
);
leftKerningGroup = l;
rightKerningGroup = l;
unicode = 0142;
},
{
color = 4;
glyphname = apostrophe;
lastChange = "2014-12-22 11:24:56 +0000";
layers = (
{
layerId = "643E1A31-2BD5-4D48-BA91-7A3195B2D7C3";
name = Bold;
paths = (
{
closed = 1;
nodes = (
"100 565 LINE",
"33 565 LINE",
"81 730 LINE",
"168 730 LINE"
);
}
);
width = 230;
}
);
leftKerningGroup = apostrophe;
rightKerningGroup = apostrophe;
unicode = 02BC;
},
{
glyphname = Eng;
layers = (
{
layerId = "643E1A31-2BD5-4D48-BA91-7A3195B2D7C3";
name = Bold;
paths = (
{
closed = 1;
nodes = (
"566 21 LINE",
"566 -19 LINE SMOOTH",
"566 -63 OFFCURVE",
"530 -95 OFFCURVE",
"491 -95 CURVE SMOOTH",
"468 -95 OFFCURVE",
"444 -88 OFFCURVE",
"427 -72 CURVE",
"378 -146 LINE",
"412 -177 OFFCURVE",
"457 -191 OFFCURVE",
"504 -191 CURVE SMOOTH",
"595 -191 OFFCURVE",
"676 -120 OFFCURVE",
"676 -15 CURVE SMOOTH",
"676 709 LINE",
"563 709 LINE",
"563 204 LINE",
"166 710 LINE",
"80 710 LINE",
"80 0 LINE",
"192 0 LINE",
"192 498 LINE"
);
}
);
width = 756;
}
);
leftKerningGroup = B;
rightKerningGroup = H;
unicode = 014A;
},
{
glyphname = eng;
layers = (
{
layerId = "643E1A31-2BD5-4D48-BA91-7A3195B2D7C3";
name = Bold;
paths = (
{
closed = 1;
nodes = (
"456 -191 OFFCURVE",
"535 -117 OFFCURVE",
"535 -11 CURVE SMOOTH",
"535 319 LINE SMOOTH",
"535 434 OFFCURVE",
"505 532 OFFCURVE",
"379 532 CURVE SMOOTH",
"287 532 OFFCURVE",
"206 488 OFFCURVE",
"166 418 CURVE",
"166 523 LINE",
"66 523 LINE",
"66 0 LINE",
"176 0 LINE",
"176 311 LINE",
"199 382 OFFCURVE",
"269 434 OFFCURVE",
"332 434 CURVE SMOOTH",
"393 434 OFFCURVE",
"425 391 OFFCURVE",
"425 293 CURVE SMOOTH",
"425 -19 LINE SMOOTH",
"425 -63 OFFCURVE",
"390 -95 OFFCURVE",
"351 -95 CURVE SMOOTH",
"328 -95 OFFCURVE",
"304 -88 OFFCURVE",
"286 -72 CURVE",
"237 -146 LINE",
"271 -177 OFFCURVE",
"316 -191 OFFCURVE",
"364 -191 CURVE SMOOTH"
);
}
);
width = 596;
}
);
leftKerningGroup = m;
rightKerningGroup = m;
unicode = 014B;
},
{
color = 4;
glyphname = Ohungarumlaut;
lastChange = "2014-12-07 18:47:00 +0000";
layers = (
{
components = (
{
name = hungarumlaut;
transform = "{1, 0, 0, 1, 249, 185}";
}
);
layerId = "643E1A31-2BD5-4D48-BA91-7A3195B2D7C3";
name = Bold;
paths = (
{
closed = 1;
nodes = (
"571 -5 OFFCURVE",
"716 165 OFFCURVE",
"716 354 CURVE SMOOTH",
"716 532 OFFCURVE",
"580 715 OFFCURVE",
"377 715 CURVE SMOOTH",
"181 715 OFFCURVE",
"35 544 OFFCURVE",
"35 355 CURVE SMOOTH",
"35 173 OFFCURVE",
"172 -5 OFFCURVE",
"375 -5 CURVE SMOOTH"
);
},
{
closed = 1;
nodes = (
"149 483 OFFCURVE",
"233 613 OFFCURVE",
"376 613 CURVE SMOOTH",
"512 613 OFFCURVE",
"601 490 OFFCURVE",
"601 355 CURVE SMOOTH",
"601 228 OFFCURVE",
"519 96 OFFCURVE",
"376 96 CURVE SMOOTH",
"237 96 OFFCURVE",
"149 221 OFFCURVE",
"149 355 CURVE SMOOTH"
);
}
);
width = 752;
}
);
leftKerningGroup = C;
rightKerningGroup = O;
unicode = 0150;
},
{
color = 9;
glyphname = hungarumlaut;
lastChange = "2014-12-26 21:41:02 +0000";
layers = (
{
anchors = (
{
name = _top;
position = "{182, 523}";
}
);
layerId = "643E1A31-2BD5-4D48-BA91-7A3195B2D7C3";
name = Bold;
paths = (
{
closed = 1;
nodes = (
"262 751 LINE",
"174 596 LINE",
"238 596 LINE",
"387 751 LINE"
);
},
{
closed = 1;
nodes = (
"93 751 LINE",
"5 596 LINE",
"69 596 LINE",
"218 751 LINE"
);
}
);
width = 351;
}
);
unicode = 02DD;
},
{
color = 4;
glyphname = ohungarumlaut;
lastChange = "2014-12-07 18:47:00 +0000";
layers = (
{
components = (
{
name = hungarumlaut;
transform = "{1, 0, 0, 1, 176, 0}";
}
);
layerId = "643E1A31-2BD5-4D48-BA91-7A3195B2D7C3";
name = Bold;
paths = (
{
closed = 1;
nodes = (
"464 -10 OFFCURVE",
"570 116 OFFCURVE",
"570 261 CURVE SMOOTH",
"570 406 OFFCURVE",
"464 532 OFFCURVE",
"301 532 CURVE SMOOTH",
"139 532 OFFCURVE",
"32 406 OFFCURVE",
"32 261 CURVE SMOOTH",
"32 116 OFFCURVE",
"137 -10 OFFCURVE",
"301 -10 CURVE SMOOTH"
);
},
{
closed = 1;
nodes = (
"145 360 OFFCURVE",
"215 438 OFFCURVE",
"301 438 CURVE SMOOTH",
"388 438 OFFCURVE",
"457 361 OFFCURVE",
"457 261 CURVE SMOOTH",
"457 161 OFFCURVE",
"388 84 OFFCURVE",
"301 84 CURVE SMOOTH",
"214 84 OFFCURVE",
"145 159 OFFCURVE",
"145 260 CURVE SMOOTH"
);
}
);
width = 602;
}
);
leftKerningGroup = c;
rightKerningGroup = o;
unicode = 0151;
},
{
glyphname = OE;
layers = (
{
layerId = "643E1A31-2BD5-4D48-BA91-7A3195B2D7C3";
name = Bold;
paths = (
{
closed = 1;
nodes = (
"710 99 LINE",
"710 312 LINE",
"1011 312 LINE",
"1011 411 LINE",
"710 411 LINE",
"710 611 LINE",
"1065 611 LINE",
"1065 710 LINE",
"597 710 LINE",
"597 578 LINE",
"553 655 OFFCURVE",
"473 715 OFFCURVE",
"373 715 CURVE SMOOTH",
"179 715 OFFCURVE",
"35 544 OFFCURVE",
"35 355 CURVE SMOOTH",
"35 173 OFFCURVE",
"171 -5 OFFCURVE",
"371 -5 CURVE SMOOTH",
"469 -5 OFFCURVE",
"552 54 OFFCURVE",
"597 132 CURVE",
"597 0 LINE",
"1074 0 LINE",
"1074 99 LINE"
);
},
{
closed = 1;
nodes = (
"235 96 OFFCURVE",
"149 221 OFFCURVE",
"149 355 CURVE SMOOTH",
"149 483 OFFCURVE",
"232 614 OFFCURVE",
"371 614 CURVE SMOOTH",
"505 614 OFFCURVE",
"593 490 OFFCURVE",
"593 356 CURVE SMOOTH",
"593 227 OFFCURVE",
"511 96 OFFCURVE",
"372 96 CURVE SMOOTH"
);
}
);
width = 1109;
}
);
leftKerningGroup = C;
rightKerningGroup = E;
unicode = 0152;
},
{
glyphname = oe;
layers = (
{
layerId = "643E1A31-2BD5-4D48-BA91-7A3195B2D7C3";
name = Bold;
paths = (
{
closed = 1;
nodes = (
"388 -10 OFFCURVE",
"459 37 OFFCURVE",
"513 124 CURVE",
"568 40 OFFCURVE",
"644 -10 OFFCURVE",
"734 -10 CURVE SMOOTH",
"837 -10 OFFCURVE",
"930 43 OFFCURVE",
"968 124 CURVE",
"877 151 LINE",
"858 103 OFFCURVE",
"800 69 OFFCURVE",
"738 69 CURVE SMOOTH",
"651 69 OFFCURVE",
"581 137 OFFCURVE",
"574 225 CURVE",
"993 225 LINE",
"995 234 OFFCURVE",
"995 251 OFFCURVE",
"995 261 CURVE",
"988 423 OFFCURVE",
"881 532 OFFCURVE",
"728 532 CURVE SMOOTH",
"632 532 OFFCURVE",
"558 484 OFFCURVE",
"513 394 CURVE",
"470 481 OFFCURVE",
"394 532 OFFCURVE",
"300 532 CURVE SMOOTH",
"147 532 OFFCURVE",
"32 415 OFFCURVE",
"32 260 CURVE SMOOTH",
"32 106 OFFCURVE",
"146 -10 OFFCURVE",
"300 -10 CURVE SMOOTH"
);
},
{
closed = 1;
nodes = (
"213 84 OFFCURVE",
"145 159 OFFCURVE",
"145 259 CURVE SMOOTH",
"145 360 OFFCURVE",
"213 438 OFFCURVE",
"302 438 CURVE SMOOTH",
"390 438 OFFCURVE",
"457 361 OFFCURVE",
"457 261 CURVE SMOOTH",
"457 160 OFFCURVE",
"390 84 OFFCURVE",
"301 84 CURVE SMOOTH"
);
},
{
closed = 1;
nodes = (
"571 295 LINE",
"577 386 OFFCURVE",
"641 451 OFFCURVE",
"725 451 CURVE SMOOTH",
"809 451 OFFCURVE",
"878 387 OFFCURVE",
"885 295 CURVE"
);
}
);
width = 1020;
}
);
leftKerningGroup = c;
rightKerningGroup = e;
unicode = 0153;
},
{
glyphname = Tbar;
layers = (
{
layerId = "643E1A31-2BD5-4D48-BA91-7A3195B2D7C3";
name = Bold;
paths = (
{
closed = 1;
nodes = (
"614 710 LINE",
"28 710 LINE",
"28 611 LINE",
"265 611 LINE",
"265 388 LINE",
"64 388 LINE",
"64 332 LINE",
"265 332 LINE",
"265 0 LINE",
"378 0 LINE",
"378 332 LINE",
"579 332 LINE",
"579 388 LINE",
"378 388 LINE",
"378 611 LINE",
"614 611 LINE"
);
}
);
width = 643;
}
);
leftKerningGroup = T;
rightKerningGroup = T;
unicode = 0166;
},
{
glyphname = tbar;
layers = (
{
layerId = "643E1A31-2BD5-4D48-BA91-7A3195B2D7C3";
name = Bold;
paths = (
{
closed = 1;
nodes = (
"335 114 LINE",
"322 107 OFFCURVE",
"291 93 OFFCURVE",
"260 93 CURVE SMOOTH",
"230 93 OFFCURVE",
"206 109 OFFCURVE",
"204 146 CURVE",
"204 280 LINE",
"318 280 LINE",
"318 347 LINE",
"204 347 LINE",
"204 438 LINE",
"318 438 LINE",
"318 523 LINE",
"204 523 LINE",
"204 695 LINE",
"94 695 LINE",
"94 523 LINE",
"25 523 LINE",
"25 438 LINE",
"94 438 LINE",
"94 347 LINE",
"25 347 LINE",
"25 280 LINE",
"94 280 LINE",
"94 111 LINE SMOOTH",
"94 27 OFFCURVE",
"152 -8 OFFCURVE",
"221 -8 CURVE SMOOTH",
"277 -8 OFFCURVE",
"330 14 OFFCURVE",
"358 27 CURVE"
);
}
);
width = 368;
}
);
leftKerningGroup = t;
rightKerningGroup = t;
unicode = 0167;
},
{
color = 4;
glyphname = utilde;
lastChange = "2014-12-07 14:01:43 +0000";
layers = (
{
components = (
{
name = u;
transform = "{1, 0, 0, 1, 0, 0}";
}
);
layerId = "643E1A31-2BD5-4D48-BA91-7A3195B2D7C3";
name = Bold;
paths = (
{
closed = 1;
nodes = (
"450 615 OFFCURVE",
"475 713 OFFCURVE",
"475 730 CURVE",
"412 730 LINE",
"412 726 OFFCURVE",
"407 681 OFFCURVE",
"358 681 CURVE SMOOTH",
"309 681 OFFCURVE",
"286 725 OFFCURVE",
"227 725 CURVE SMOOTH",
"144 725 OFFCURVE",
"120 631 OFFCURVE",
"120 610 CURVE",
"182 610 LINE",
"182 614 OFFCURVE",
"186 658 OFFCURVE",
"231 658 CURVE SMOOTH",
"274 658 OFFCURVE",
"300 615 OFFCURVE",
"361 615 CURVE SMOOTH"
);
}
);
width = 609;
}
);
leftKerningGroup = u;
rightKerningGroup = u;
unicode = 0169;
},
{
color = 4;
glyphname = umacron;
lastChange = "2014-12-07 14:01:43 +0000";
layers = (
{
components = (
{
name = u;
transform = "{1, 0, 0, 1, 0, 0}";
}
);
layerId = "643E1A31-2BD5-4D48-BA91-7A3195B2D7C3";
name = Bold;
paths = (
{
closed = 1;
nodes = (
"446 644 LINE",
"446 714 LINE",
"150 714 LINE",
"150 644 LINE"
);
}
);
width = 609;
}
);
leftKerningGroup = u;
rightKerningGroup = u;
unicode = 016B;
},
{
color = 4;
glyphname = ubreve;
lastChange = "2014-12-07 14:01:43 +0000";
layers = (
{
components = (
{
name = u;
transform = "{1, 0, 0, 1, 0, 0}";
}
);
layerId = "643E1A31-2BD5-4D48-BA91-7A3195B2D7C3";
name = Bold;
paths = (
{
closed = 1;
nodes = (
"266 659 OFFCURVE",
"239 692 OFFCURVE",
"239 730 CURVE",
"178 730 LINE",
"178 660 OFFCURVE",
"229 608 OFFCURVE",
"297 608 CURVE SMOOTH",
"365 608 OFFCURVE",
"416 660 OFFCURVE",
"416 730 CURVE",
"355 730 LINE",
"351 689 OFFCURVE",
"326 659 OFFCURVE",
"297 659 CURVE SMOOTH"
);
}
);
width = 609;
}
);
leftKerningGroup = u;
rightKerningGroup = u;
unicode = 016D;
},
{
color = 4;
glyphname = uring;
lastChange = "2014-12-07 14:01:43 +0000";
layers = (
{
components = (
{
name = u;
transform = "{1, 0, 0, 1, 0, 0}";
}
);
layerId = "643E1A31-2BD5-4D48-BA91-7A3195B2D7C3";
name = Bold;
paths = (
{
closed = 1;
nodes = (
"209 612 OFFCURVE",
"245 584 OFFCURVE",
"297 584 CURVE SMOOTH",
"350 584 OFFCURVE",
"386 612 OFFCURVE",
"386 657 CURVE SMOOTH",
"386 703 OFFCURVE",
"350 730 OFFCURVE",
"297 730 CURVE SMOOTH",
"245 730 OFFCURVE",
"209 703 OFFCURVE",
"209 657 CURVE SMOOTH"
);
},
{
closed = 1;
nodes = (
"320 694 OFFCURVE",
"338 679 OFFCURVE",
"338 657 CURVE SMOOTH",
"338 636 OFFCURVE",
"319 620 OFFCURVE",
"297 620 CURVE SMOOTH",
"274 620 OFFCURVE",
"257 637 OFFCURVE",
"257 657 CURVE SMOOTH",
"257 679 OFFCURVE",
"275 694 OFFCURVE",
"297 694 CURVE SMOOTH"
);
}
);
width = 609;
}
);
leftKerningGroup = u;
rightKerningGroup = u;
unicode = 016F;
},
{
color = 4;
glyphname = Uhungarumlaut;
lastChange = "2014-12-07 18:47:00 +0000";
layers = (
{
components = (
{
name = hungarumlaut;
transform = "{1, 0, 0, 1, 237, 186}";
}
);
layerId = "643E1A31-2BD5-4D48-BA91-7A3195B2D7C3";
name = Bold;
paths = (
{
closed = 1;
nodes = (
"229 96 OFFCURVE",
"182 220 OFFCURVE",
"182 350 CURVE SMOOTH",
"182 710 LINE",
"70 710 LINE",
"70 350 LINE SMOOTH",
"70 166 OFFCURVE",
"150 -5 OFFCURVE",
"376 -5 CURVE SMOOTH",
"595 -5 OFFCURVE",
"683 156 OFFCURVE",
"683 350 CURVE SMOOTH",
"683 710 LINE",
"570 710 LINE",
"570 350 LINE SMOOTH",
"570 223 OFFCURVE",
"525 96 OFFCURVE",
"376 96 CURVE SMOOTH"
);
}
);
width = 752;
}
);
leftKerningGroup = U;
rightKerningGroup = U;
unicode = 0170;
},
{
glyphname = Schwa;
layers = (
{
layerId = "643E1A31-2BD5-4D48-BA91-7A3195B2D7C3";
name = Bold;
paths = (
{
closed = 1;
nodes = (
"563 -5 OFFCURVE",
"705 160 OFFCURVE",
"705 356 CURVE SMOOTH",
"705 548 OFFCURVE",
"562 715 OFFCURVE",
"369 715 CURVE SMOOTH",
"238 715 OFFCURVE",
"119 642 OFFCURVE",
"67 534 CURVE",
"177 491 LINE",
"200 563 OFFCURVE",
"279 613 OFFCURVE",
"363 613 CURVE SMOOTH",
"474 613 OFFCURVE",
"568 524 OFFCURVE",
"581 396 CURVE",
"27 396 LINE",
"25 386 OFFCURVE",
"24 365 OFFCURVE",
"24 347 CURVE SMOOTH",
"24 162 OFFCURVE",
"169 -5 OFFCURVE",
"366 -5 CURVE SMOOTH"
);
},
{
closed = 1;
nodes = (
"251 95 OFFCURVE",
"155 185 OFFCURVE",
"146 304 CURVE",
"582 304 LINE",
"572 183 OFFCURVE",
"483 95 OFFCURVE",
"369 95 CURVE SMOOTH"
);
}
);
width = 741;
}
);
leftKerningGroup = Schwa;
rightKerningGroup = O;
unicode = 018F;
},
{
glyphname = florin;
layers = (
{
layerId = "643E1A31-2BD5-4D48-BA91-7A3195B2D7C3";
name = Bold;
paths = (
{
closed = 1;
nodes = (
"247 -191 OFFCURVE",
"327 -119 OFFCURVE",
"327 -16 CURVE SMOOTH",
"327 377 LINE",
"461 377 LINE",
"461 462 LINE",
"327 462 LINE",
"327 534 LINE SMOOTH",
"327 607 OFFCURVE",
"355 647 OFFCURVE",
"407 647 CURVE SMOOTH",
"433 647 OFFCURVE",
"462 638 OFFCURVE",
"482 626 CURVE",
"506 708 LINE",
"470 728 OFFCURVE",
"426 740 OFFCURVE",
"384 740 CURVE SMOOTH",
"283 740 OFFCURVE",
"217 659 OFFCURVE",
"217 531 CURVE SMOOTH",
"217 462 LINE",
"148 462 LINE",
"148 377 LINE",
"217 377 LINE",
"217 -19 LINE SMOOTH",
"217 -63 OFFCURVE",
"182 -95 OFFCURVE",
"143 -95 CURVE SMOOTH",
"120 -95 OFFCURVE",
"96 -88 OFFCURVE",
"79 -72 CURVE",
"30 -146 LINE",
"64 -177 OFFCURVE",
"109 -191 OFFCURVE",
"156 -191 CURVE SMOOTH"
);
}
);
width = 541;
}
);
unicode = 0192;
},
{
color = 4;
glyphname = uni01C4;
lastChange = "2014-12-08 10:20:18 +0000";
layers = (
{
components = (
{
name = Zcaron;
transform = "{1, 0, 0, 1, 717, 0}";
}
);
layerId = "643E1A31-2BD5-4D48-BA91-7A3195B2D7C3";
name = Bold;
paths = (
{
closed = 1;
nodes = (
"332 0 LINE SMOOTH",
"542 0 OFFCURVE",
"678 141 OFFCURVE",
"678 356 CURVE SMOOTH",
"678 552 OFFCURVE",
"561 710 OFFCURVE",
"332 710 CURVE SMOOTH",
"80 710 LINE",
"80 0 LINE"
);
},
{
closed = 1;
nodes = (
"564 210 OFFCURVE",
"482 99 OFFCURVE",
"332 99 CURVE SMOOTH",
"192 99 LINE",
"192 611 LINE",
"332 611 LINE SMOOTH",
"479 611 OFFCURVE",
"564 505 OFFCURVE",
"564 356 CURVE SMOOTH"
);
}
);
width = 1345;
}
);
rightKerningGroup = Z;
unicode = 01C4;
},
{
color = 4;
glyphname = uni01C5;
lastChange = "2014-12-08 10:20:38 +0000";
layers = (
{
components = (
{
name = zcaron;
transform = "{1, 0, 0, 1, 716, 0}";
}
);
layerId = "643E1A31-2BD5-4D48-BA91-7A3195B2D7C3";
name = Bold;
paths = (
{
closed = 1;
nodes = (
"332 0 LINE SMOOTH",
"542 0 OFFCURVE",
"678 141 OFFCURVE",
"678 356 CURVE SMOOTH",
"678 552 OFFCURVE",
"561 710 OFFCURVE",
"332 710 CURVE SMOOTH",
"80 710 LINE",
"80 0 LINE"
);
},
{
closed = 1;
nodes = (
"564 210 OFFCURVE",
"482 99 OFFCURVE",
"332 99 CURVE SMOOTH",
"192 99 LINE",
"192 611 LINE",
"332 611 LINE SMOOTH",
"479 611 OFFCURVE",
"564 505 OFFCURVE",
"564 356 CURVE SMOOTH"
);
}
);
width = 1209;
}
);
rightKerningGroup = z;
unicode = 01C5;
},
{
color = 4;
glyphname = uni01C8;
lastChange = "2014-12-08 10:21:38 +0000";
layers = (
{
components = (
{
name = j;
transform = "{1, 0, 0, 1, 590, 0}";
}
);
layerId = "643E1A31-2BD5-4D48-BA91-7A3195B2D7C3";
name = Bold;
paths = (
{
closed = 1;
nodes = (
"573 0 LINE",
"573 99 LINE",
"192 99 LINE",
"192 710 LINE",
"80 710 LINE",
"80 0 LINE"
);
}
);
width = 833;
}
);
unicode = 01C8;
},
{
color = 4;
glyphname = uni01CB;
lastChange = "2014-12-08 10:22:20 +0000";
layers = (
{
components = (
{
name = j;
transform = "{1, 0, 0, 1, 776, 0}";
}
);
layerId = "643E1A31-2BD5-4D48-BA91-7A3195B2D7C3";
name = Bold;
paths = (
{
closed = 1;
nodes = (
"594 0 LINE",
"687 0 LINE",
"687 709 LINE",
"574 709 LINE",
"574 198 LINE",
"168 710 LINE",
"80 710 LINE",
"80 0 LINE",
"192 0 LINE",
"192 500 LINE"
);
}
);
width = 1015;
}
);
unicode = 01CB;
},
{
color = 4;
glyphname = uni01CC;
lastChange = "2014-12-08 10:22:25 +0000";
layers = (
{
components = (
{
name = j;
transform = "{1, 0, 0, 1, 601, 0}";
}
);
layerId = "643E1A31-2BD5-4D48-BA91-7A3195B2D7C3";
name = Bold;
paths = (
{
closed = 1;
nodes = (
"535 319 LINE SMOOTH",
"535 434 OFFCURVE",
"504 532 OFFCURVE",
"379 532 CURVE SMOOTH",
"287 532 OFFCURVE",
"206 488 OFFCURVE",
"166 418 CURVE",
"166 523 LINE",
"66 523 LINE",
"66 0 LINE",
"176 0 LINE",
"176 311 LINE",
"199 382 OFFCURVE",
"269 434 OFFCURVE",
"332 434 CURVE SMOOTH",
"393 434 OFFCURVE",
"425 391 OFFCURVE",
"425 293 CURVE SMOOTH",
"425 0 LINE",
"535 0 LINE"
);
}
);
width = 845;
}
);
unicode = 01CC;
},
{
glyphname = Aringacute;
layers = (
{
layerId = "643E1A31-2BD5-4D48-BA91-7A3195B2D7C3";
name = Bold;
paths = (
{
closed = 1;
nodes = (
"464 918 LINE",
"359 918 LINE",
"306 816 LINE",
"271 807 OFFCURVE",
"249 783 OFFCURVE",
"249 747 CURVE SMOOTH",
"249 721 OFFCURVE",
"261 701 OFFCURVE",
"280 688 CURVE",
"7 0 LINE",
"126 0 LINE",
"200 193 LINE",
"474 193 LINE",
"549 0 LINE",
"667 0 LINE",
"395 689 LINE",
"414 701 OFFCURVE",
"426 721 OFFCURVE",
"426 747 CURVE SMOOTH",
"426 777 OFFCURVE",
"410 799 OFFCURVE",
"385 810 CURVE"
);
},
{
closed = 1;
nodes = (
"220 276 LINE",
"338 581 LINE",
"452 276 LINE"
);
},
{
closed = 1;
nodes = (
"360 784 OFFCURVE",
"378 769 OFFCURVE",
"378 747 CURVE SMOOTH",
"378 726 OFFCURVE",
"359 710 OFFCURVE",
"337 710 CURVE SMOOTH",
"314 710 OFFCURVE",
"297 727 OFFCURVE",
"297 747 CURVE SMOOTH",
"297 769 OFFCURVE",
"315 784 OFFCURVE",
"337 784 CURVE SMOOTH"
);
}
);
width = 675;
}
);
leftKerningGroup = A;
rightKerningGroup = A;
unicode = 01FA;
},
{
color = 9;
glyphname = uni030F;
lastChange = "2014-12-26 21:41:40 +0000";
layers = (
{
anchors = (
{
name = _top;
position = "{240, 523}";
}
);
layerId = "643E1A31-2BD5-4D48-BA91-7A3195B2D7C3";
name = Bold;
paths = (
{
closed = 1;
nodes = (
"120 596 LINE",
"184 596 LINE",
"96 751 LINE",
"-29 751 LINE"
);
},
{
closed = 1;
nodes = (
"289 596 LINE",
"353 596 LINE",
"265 751 LINE",
"140 751 LINE"
);
}
);
width = 351;
}
);
unicode = 030F;
},
{
color = 9;
glyphname = uni0311;
lastChange = "2014-12-27 10:51:24 +0000";
layers = (
{
anchors = (
{
name = _top;
position = "{155, 523}";
}
);
layerId = "643E1A31-2BD5-4D48-BA91-7A3195B2D7C3";
name = Bold;
paths = (
{
closed = 1;
nodes = (
"189 691 OFFCURVE",
"218 656 OFFCURVE",
"223 608 CURVE",
"294 608 LINE",
"294 690 OFFCURVE",
"235 751 OFFCURVE",
"155 751 CURVE SMOOTH",
"76 751 OFFCURVE",
"16 690 OFFCURVE",
"16 608 CURVE",
"87 608 LINE",
"87 652 OFFCURVE",
"119 691 OFFCURVE",
"155 691 CURVE SMOOTH"
);
}
);
width = 312;
}
);
unicode = 0311;
},
{
color = 4;
glyphname = rdblgrave;
lastChange = "2014-12-08 10:26:24 +0000";
layers = (
{
components = (
{
name = r;
transform = "{1, 0, 0, 1, 0, 0}";
}
);
layerId = "643E1A31-2BD5-4D48-BA91-7A3195B2D7C3";
name = Bold;
paths = (
{
closed = 1;
nodes = (
"229 596 LINE",
"293 596 LINE",
"218 730 LINE",
"103 730 LINE"
);
},
{
closed = 1;
nodes = (
"89 596 LINE",
"153 596 LINE",
"78 730 LINE",
"-37 730 LINE"
);
}
);
width = 374;
}
);
unicode = 0211;
},
{
glyphname = schwa;
layers = (
{
layerId = "643E1A31-2BD5-4D48-BA91-7A3195B2D7C3";
name = Bold;
paths = (
{
closed = 1;
nodes = (
"458 -10 OFFCURVE",
"563 113 OFFCURVE",
"563 261 CURVE SMOOTH",
"563 408 OFFCURVE",
"455 532 OFFCURVE",
"293 532 CURVE SMOOTH",
"182 532 OFFCURVE",
"92 475 OFFCURVE",
"56 398 CURVE",
"151 371 LINE",
"171 418 OFFCURVE",
"229 450 OFFCURVE",
"288 450 CURVE SMOOTH",
"369 450 OFFCURVE",
"439 390 OFFCURVE",
"446 297 CURVE",
"27 297 LINE",
"25 288 OFFCURVE",
"24 271 OFFCURVE",
"24 261 CURVE SMOOTH",
"25 114 OFFCURVE",
"130 -10 OFFCURVE",
"294 -10 CURVE SMOOTH"
);
},
{
closed = 1;
nodes = (
"212 71 OFFCURVE",
"142 134 OFFCURVE",
"135 227 CURVE",
"448 227 LINE",
"442 136 OFFCURVE",
"379 71 OFFCURVE",
"296 71 CURVE SMOOTH"
);
}
);
width = 595;
}
);
leftKerningGroup = schwa;
rightKerningGroup = o;
unicode = 0259;
},
{
glyphname = uni02C9;
layers = (
{
layerId = "643E1A31-2BD5-4D48-BA91-7A3195B2D7C3";
name = Bold;
paths = (
{
closed = 1;
nodes = (
"354 644 LINE",
"354 714 LINE",
"58 714 LINE",
"58 644 LINE"
);
}
);
width = 411;
}
);
unicode = 02C9;
},
{
glyphname = uni0394;
layers = (
{
layerId = "643E1A31-2BD5-4D48-BA91-7A3195B2D7C3";
name = Bold;
paths = (
{
closed = 1;
nodes = (
"371 710 LINE",
"279 710 LINE",
"20 85 LINE",
"20 0 LINE",
"629 0 LINE",
"629 85 LINE"
);
},
{
closed = 1;
nodes = (
"139 99 LINE",
"325 582 LINE",
"512 99 LINE"
);
}
);
width = 650;
}
);
leftKerningGroup = uni0394;
rightKerningGroup = uni0394;
unicode = 0394;
},
{
glyphname = uni03A9;
layers = (
{
layerId = "643E1A31-2BD5-4D48-BA91-7A3195B2D7C3";
name = Bold;
paths = (
{
closed = 1;
nodes = (
"41 0 LINE",
"339 0 LINE",
"339 90 LINE",
"231 127 OFFCURVE",
"164 251 OFFCURVE",
"164 367 CURVE SMOOTH",
"164 489 OFFCURVE",
"248 614 OFFCURVE",
"383 614 CURVE SMOOTH",
"519 614 OFFCURVE",
"603 489 OFFCURVE",
"603 367 CURVE SMOOTH",
"603 251 OFFCURVE",
"536 127 OFFCURVE",
"428 90 CURVE",
"428 0 LINE",
"726 0 LINE",
"726 90 LINE",
"553 90 LINE",
"654 146 OFFCURVE",
"716 248 OFFCURVE",
"716 367 CURVE SMOOTH",
"716 550 OFFCURVE",
"573 715 OFFCURVE",
"383 715 CURVE SMOOTH",
"194 715 OFFCURVE",
"51 550 OFFCURVE",
"51 367 CURVE SMOOTH",
"51 248 OFFCURVE",
"113 146 OFFCURVE",
"214 90 CURVE",
"41 90 LINE"
);
}
);
width = 767;
}
);
leftKerningGroup = uni03A9;
rightKerningGroup = uni03A9;
unicode = 03A9;
},
{
color = 4;
glyphname = uni03BC;
lastChange = "2014-12-08 12:42:04 +0000";
layers = (
{
layerId = "643E1A31-2BD5-4D48-BA91-7A3195B2D7C3";
name = Bold;
paths = (
{
closed = 1;
nodes = (
"66 -212 LINE",
"170 -212 LINE",
"170 58 LINE",
"181 25 OFFCURVE",
"214 -10 OFFCURVE",
"272 -10 CURVE SMOOTH",
"346 -10 OFFCURVE",
"419 49 OFFCURVE",
"447 106 CURVE",
"451 0 LINE",
"541 0 LINE",
"541 523 LINE",
"431 523 LINE",
"431 197 LINE",
"400 124 OFFCURVE",
"338 84 OFFCURVE",
"278 84 CURVE SMOOTH",
"209 84 OFFCURVE",
"176 132 OFFCURVE",
"176 225 CURVE SMOOTH",
"176 523 LINE",
"66 523 LINE"
);
}
);
width = 617;
}
);
unicode = 03BC;
},
{
glyphname = pi;
layers = (
{
layerId = "643E1A31-2BD5-4D48-BA91-7A3195B2D7C3";
name = Bold;
paths = (
{
closed = 1;
nodes = (
"368 425 LINE",
"368 111 LINE SMOOTH",
"368 36 OFFCURVE",
"413 -8 OFFCURVE",
"486 -8 CURVE SMOOTH",
"521 -8 OFFCURVE",
"570 2 OFFCURVE",
"602 16 CURVE",
"586 102 LINE",
"569 95 OFFCURVE",
"547 89 OFFCURVE",
"532 89 CURVE SMOOTH",
"496 89 OFFCURVE",
"475 112 OFFCURVE",
"475 151 CURVE SMOOTH",
"475 425 LINE",
"579 425 LINE",
"579 522 LINE",
"25 522 LINE",
"25 425 LINE",
"103 425 LINE",
"103 0 LINE",
"211 0 LINE",
"211 425 LINE"
);
}
);
width = 625;
}
);
leftKerningGroup = pi;
rightKerningGroup = pi;
unicode = 03C0;
},
{
color = 4;
glyphname = dotbelow;
lastChange = "2014-12-08 10:30:43 +0000";
layers = (
{
anchors = (
{
name = bottom;
position = "{99, -1}";
}
);
layerId = "643E1A31-2BD5-4D48-BA91-7A3195B2D7C3";
name = Bold;
paths = (
{
closed = 1;
nodes = (
"133 -202 OFFCURVE",
"163 -173 OFFCURVE",
"163 -137 CURVE SMOOTH",
"163 -102 OFFCURVE",
"133 -73 OFFCURVE",
"99 -73 CURVE SMOOTH",
"63 -73 OFFCURVE",
"34 -102 OFFCURVE",
"34 -137 CURVE SMOOTH",
"34 -173 OFFCURVE",
"63 -202 OFFCURVE",
"99 -202 CURVE SMOOTH"
);
}
);
width = 199;
}
);
},
{
color = 4;
glyphname = odotbelow;
lastChange = "2014-12-08 10:45:11 +0000";
layers = (
{
components = (
{
name = dotbelow;
transform = "{1, 0, 0, 1, 206, 0}";
}
);
layerId = "643E1A31-2BD5-4D48-BA91-7A3195B2D7C3";
name = Bold;
paths = (
{
closed = 1;
nodes = (
"464 -10 OFFCURVE",
"570 116 OFFCURVE",
"570 261 CURVE SMOOTH",
"570 406 OFFCURVE",
"464 532 OFFCURVE",
"301 532 CURVE SMOOTH",
"139 532 OFFCURVE",
"32 406 OFFCURVE",
"32 261 CURVE SMOOTH",
"32 116 OFFCURVE",
"137 -10 OFFCURVE",
"301 -10 CURVE SMOOTH"
);
},
{
closed = 1;
nodes = (
"145 360 OFFCURVE",
"215 438 OFFCURVE",
"301 438 CURVE SMOOTH",
"388 438 OFFCURVE",
"457 361 OFFCURVE",
"457 261 CURVE SMOOTH",
"457 161 OFFCURVE",
"388 84 OFFCURVE",
"301 84 CURVE SMOOTH",
"214 84 OFFCURVE",
"145 159 OFFCURVE",
"145 260 CURVE SMOOTH"
);
}
);
width = 602;
}
);
leftKerningGroup = c;
rightKerningGroup = o;
unicode = 1ECD;
},
{
color = 4;
glyphname = Udotbelow;
lastChange = "2014-12-08 10:45:37 +0000";
layers = (
{
components = (
{
name = dotbelow;
transform = "{1, 0, 0, 1, 282, 0}";
}
);
layerId = "643E1A31-2BD5-4D48-BA91-7A3195B2D7C3";
name = Bold;
paths = (
{
closed = 1;
nodes = (
"229 96 OFFCURVE",
"182 220 OFFCURVE",
"182 350 CURVE SMOOTH",
"182 710 LINE",
"70 710 LINE",
"70 350 LINE SMOOTH",
"70 166 OFFCURVE",
"150 -5 OFFCURVE",
"376 -5 CURVE SMOOTH",
"595 -5 OFFCURVE",
"683 156 OFFCURVE",
"683 350 CURVE SMOOTH",
"683 710 LINE",
"570 710 LINE",
"570 350 LINE SMOOTH",
"570 223 OFFCURVE",
"525 96 OFFCURVE",
"376 96 CURVE SMOOTH"
);
}
);
width = 752;
}
);
leftKerningGroup = U;
rightKerningGroup = U;
unicode = 1EE4;
},
{
glyphname = endash;
layers = (
{
layerId = "643E1A31-2BD5-4D48-BA91-7A3195B2D7C3";
name = Bold;
paths = (
{
closed = 1;
nodes = (
"531 224 LINE",
"531 323 LINE",
"61 323 LINE",
"61 224 LINE"
);
}
);
width = 592;
}
);
leftKerningGroup = hyphen;
rightKerningGroup = hyphen;
unicode = 2013;
},
{
glyphname = emdash;
layers = (
{
layerId = "643E1A31-2BD5-4D48-BA91-7A3195B2D7C3";
name = Bold;
paths = (
{
closed = 1;
nodes = (
"858 224 LINE",
"858 323 LINE",
"61 323 LINE",
"61 224 LINE"
);
}
);
width = 919;
}
);
leftKerningGroup = hyphen;
rightKerningGroup = hyphen;
unicode = 2014;
},
{
color = 4;
glyphname = quoteleft;
lastChange = "2014-12-08 11:25:09 +0000";
layers = (
{
layerId = "643E1A31-2BD5-4D48-BA91-7A3195B2D7C3";
name = Bold;
paths = (
{
closed = 1;
nodes = (
"111 730 LINE",
"191 730 LINE",
"124 495 LINE",
"15 495 LINE"
);
}
);
width = 226;
}
);
leftKerningGroup = quoteleft;
rightKerningGroup = quoteleft;
unicode = 2018;
},
{
color = 4;
glyphname = quoteright;
lastChange = "2014-12-08 11:25:09 +0000";
layers = (
{
layerId = "643E1A31-2BD5-4D48-BA91-7A3195B2D7C3";
name = Bold;
paths = (
{
closed = 1;
nodes = (
"95 495 LINE",
"15 495 LINE",
"82 730 LINE",
"191 730 LINE"
);
}
);
width = 218;
}
);
leftKerningGroup = quoteright;
rightKerningGroup = quoteright;
unicode = 2019;
},
{
color = 4;
glyphname = quotesinglbase;
lastChange = "2014-12-08 11:30:58 +0000";
layers = (
{
layerId = "643E1A31-2BD5-4D48-BA91-7A3195B2D7C3";
name = Bold;
paths = (
{
closed = 1;
nodes = (
"100 -123 LINE",
"20 -123 LINE",
"87 112 LINE",
"196 112 LINE"
);
}
);
width = 230;
}
);
leftKerningGroup = comma;
rightKerningGroup = comma;
unicode = 201A;
},
{
color = 4;
glyphname = quotedblleft;
lastChange = "2014-12-08 11:30:01 +0000";
layers = (
{
layerId = "643E1A31-2BD5-4D48-BA91-7A3195B2D7C3";
name = Bold;
paths = (
{
closed = 1;
nodes = (
"111 730 LINE",
"191 730 LINE",
"124 495 LINE",
"15 495 LINE"
);
},
{
closed = 1;
nodes = (
"291 730 LINE",
"371 730 LINE",
"304 495 LINE",
"195 495 LINE"
);
}
);
width = 387;
}
);
leftKerningGroup = quoteleft;
rightKerningGroup = quoteleft;
unicode = 201C;
},
{
color = 4;
glyphname = quotedblright;
lastChange = "2014-12-08 11:29:43 +0000";
layers = (
{
layerId = "643E1A31-2BD5-4D48-BA91-7A3195B2D7C3";
name = Bold;
paths = (
{
closed = 1;
nodes = (
"275 495 LINE",
"195 495 LINE",
"262 730 LINE",
"371 730 LINE"
);
},
{
closed = 1;
nodes = (
"95 495 LINE",
"15 495 LINE",
"82 730 LINE",
"191 730 LINE"
);
}
);
width = 380;
}
);
leftKerningGroup = quoteright;
rightKerningGroup = quoteright;
unicode = 201D;
},
{
color = 5;
glyphname = quotedblbase;
lastChange = "2014-12-22 11:34:07 +0000";
layers = (
{
layerId = "643E1A31-2BD5-4D48-BA91-7A3195B2D7C3";
name = Bold;
paths = (
{
closed = 1;
nodes = (
"283 -131 LINE",
"199 -131 LINE",
"272 125 LINE",
"385 125 LINE"
);
},
{
closed = 1;
nodes = (
"93 -131 LINE",
"9 -131 LINE",
"82 125 LINE",
"195 125 LINE"
);
}
);
width = 389;
}
);
leftKerningGroup = comma;
rightKerningGroup = comma;
unicode = 201E;
},
{
glyphname = dagger;
layers = (
{
layerId = "643E1A31-2BD5-4D48-BA91-7A3195B2D7C3";
name = Bold;
paths = (
{
closed = 1;
nodes = (
"273 -130 LINE",
"273 221 LINE",
"404 221 LINE",
"404 321 LINE",
"273 321 LINE",
"273 775 LINE",
"168 775 LINE",
"168 321 LINE",
"36 321 LINE",
"36 221 LINE",
"168 221 LINE",
"168 -130 LINE"
);
}
);
width = 440;
}
);
unicode = 2020;
},
{
glyphname = daggerdbl;
layers = (
{
layerId = "643E1A31-2BD5-4D48-BA91-7A3195B2D7C3";
name = Bold;
paths = (
{
closed = 1;
nodes = (
"277 -130 LINE",
"277 123 LINE",
"408 123 LINE",
"408 222 LINE",
"277 222 LINE",
"277 334 LINE",
"408 334 LINE",
"408 433 LINE",
"277 433 LINE",
"277 775 LINE",
"172 775 LINE",
"172 433 LINE",
"40 433 LINE",
"40 334 LINE",
"172 334 LINE",
"172 222 LINE",
"40 222 LINE",
"40 123 LINE",
"172 123 LINE",
"172 -130 LINE"
);
}
);
width = 448;
}
);
unicode = 2021;
},
{
glyphname = bullet;
lastChange = "2014-12-07 19:03:40 +0000";
layers = (
{
layerId = "643E1A31-2BD5-4D48-BA91-7A3195B2D7C3";
name = Bold;
paths = (
{
closed = 1;
nodes = (
"285 405 OFFCURVE",
"238 453 OFFCURVE",
"180 453 CURVE SMOOTH",
"123 453 OFFCURVE",
"75 405 OFFCURVE",
"75 348 CURVE SMOOTH",
"75 290 OFFCURVE",
"123 243 OFFCURVE",
"180 243 CURVE SMOOTH",
"238 243 OFFCURVE",
"285 290 OFFCURVE",
"285 348 CURVE SMOOTH"
);
}
);
width = 359;
}
);
unicode = 2022;
},
{
color = 4;
glyphname = ellipsis;
lastChange = "2014-12-08 11:05:37 +0000";
layers = (
{
layerId = "643E1A31-2BD5-4D48-BA91-7A3195B2D7C3";
name = Bold;
paths = (
{
closed = 1;
nodes = (
"554 -9 OFFCURVE",
"586 23 OFFCURVE",
"586 61 CURVE SMOOTH",
"586 100 OFFCURVE",
"554 131 OFFCURVE",
"516 131 CURVE SMOOTH",
"477 131 OFFCURVE",
"446 100 OFFCURVE",
"446 61 CURVE SMOOTH",
"446 23 OFFCURVE",
"477 -9 OFFCURVE",
"516 -9 CURVE SMOOTH"
);
},
{
closed = 1;
nodes = (
"344 -9 OFFCURVE",
"376 23 OFFCURVE",
"376 61 CURVE SMOOTH",
"376 100 OFFCURVE",
"344 131 OFFCURVE",
"306 131 CURVE SMOOTH",
"267 131 OFFCURVE",
"236 100 OFFCURVE",
"236 61 CURVE SMOOTH",
"236 23 OFFCURVE",
"267 -9 OFFCURVE",
"306 -9 CURVE SMOOTH"
);
},
{
closed = 1;
nodes = (
"134 -9 OFFCURVE",
"166 23 OFFCURVE",
"166 61 CURVE SMOOTH",
"166 100 OFFCURVE",
"134 131 OFFCURVE",
"96 131 CURVE SMOOTH",
"57 131 OFFCURVE",
"26 100 OFFCURVE",
"26 61 CURVE SMOOTH",
"26 23 OFFCURVE",
"57 -9 OFFCURVE",
"96 -9 CURVE SMOOTH"
);
}
);
width = 590;
}
);
leftKerningGroup = comma;
unicode = 2026;
},
{
glyphname = perthousand;
layers = (
{
layerId = "643E1A31-2BD5-4D48-BA91-7A3195B2D7C3";
name = Bold;
paths = (
{
closed = 1;
nodes = (
"290 423 OFFCURVE",
"360 489 OFFCURVE",
"360 571 CURVE SMOOTH",
"360 654 OFFCURVE",
"290 720 OFFCURVE",
"201 720 CURVE SMOOTH",
"112 720 OFFCURVE",
"41 654 OFFCURVE",
"41 571 CURVE SMOOTH",
"41 489 OFFCURVE",
"112 423 OFFCURVE",
"201 423 CURVE SMOOTH"
);
},
{
closed = 1;
nodes = (
"157 480 OFFCURVE",
"120 521 OFFCURVE",
"120 571 CURVE SMOOTH",
"120 620 OFFCURVE",
"156 663 OFFCURVE",
"201 663 CURVE SMOOTH",
"244 663 OFFCURVE",
"282 622 OFFCURVE",
"282 571 CURVE SMOOTH",
"282 523 OFFCURVE",
"245 480 OFFCURVE",
"201 480 CURVE SMOOTH"
);
},
{
closed = 1;
nodes = (
"658 -10 OFFCURVE",
"728 56 OFFCURVE",
"728 139 CURVE SMOOTH",
"728 221 OFFCURVE",
"658 287 OFFCURVE",
"568 287 CURVE SMOOTH",
"480 287 OFFCURVE",
"409 221 OFFCURVE",
"409 139 CURVE SMOOTH",
"409 56 OFFCURVE",
"480 -10 OFFCURVE",
"568 -10 CURVE SMOOTH"
);
},
{
closed = 1;
nodes = (
"524 47 OFFCURVE",
"488 88 OFFCURVE",
"488 139 CURVE SMOOTH",
"488 187 OFFCURVE",
"524 230 OFFCURVE",
"568 230 CURVE SMOOTH",
"612 230 OFFCURVE",
"649 189 OFFCURVE",
"649 139 CURVE SMOOTH",
"649 89 OFFCURVE",
"613 47 OFFCURVE",
"568 47 CURVE SMOOTH"
);
},
{
closed = 1;
nodes = (
"1028 -10 OFFCURVE",
"1098 56 OFFCURVE",
"1098 139 CURVE SMOOTH",
"1098 221 OFFCURVE",
"1028 287 OFFCURVE",
"939 287 CURVE SMOOTH",
"851 287 OFFCURVE",
"780 221 OFFCURVE",
"780 139 CURVE SMOOTH",
"780 56 OFFCURVE",
"851 -10 OFFCURVE",
"939 -10 CURVE SMOOTH"
);
},
{
closed = 1;
nodes = (
"895 47 OFFCURVE",
"858 88 OFFCURVE",
"858 139 CURVE SMOOTH",
"858 187 OFFCURVE",
"894 230 OFFCURVE",
"939 230 CURVE SMOOTH",
"982 230 OFFCURVE",
"1020 189 OFFCURVE",
"1020 139 CURVE SMOOTH",
"1020 89 OFFCURVE",
"984 47 OFFCURVE",
"939 47 CURVE SMOOTH"
);
},
{
closed = 1;
nodes = (
"137 -6 LINE",
"407 342 LINE",
"683 671 LINE",
"631 716 LINE",
"367 373 LINE",
"86 40 LINE"
);
}
);
width = 1131;
}
);
unicode = 2030;
},
{
glyphname = guilsinglleft;
layers = (
{
layerId = "643E1A31-2BD5-4D48-BA91-7A3195B2D7C3";
name = Bold;
paths = (
{
closed = 1;
nodes = (
"38 229 LINE",
"296 54 LINE",
"296 144 LINE",
"126 259 LINE",
"296 378 LINE",
"296 469 LINE",
"38 284 LINE"
);
}
);
width = 356;
}
);
leftKerningGroup = guillemotleft;
rightKerningGroup = guillemotleft;
unicode = 2039;
},
{
glyphname = guilsinglright;
layers = (
{
layerId = "643E1A31-2BD5-4D48-BA91-7A3195B2D7C3";
name = Bold;
paths = (
{
closed = 1;
nodes = (
"318 284 LINE",
"60 469 LINE",
"60 378 LINE",
"230 259 LINE",
"60 144 LINE",
"60 54 LINE",
"318 229 LINE"
);
}
);
width = 356;
}
);
leftKerningGroup = guillemotright;
rightKerningGroup = guillemotright;
unicode = 203A;
},
{
glyphname = zerosuperior;
layers = (
{
layerId = "643E1A31-2BD5-4D48-BA91-7A3195B2D7C3";
name = Bold;
paths = (
{
closed = 1;
nodes = (
"365 394 OFFCURVE",
"443 502 OFFCURVE",
"443 602 CURVE SMOOTH",
"443 693 OFFCURVE",
"373 812 OFFCURVE",
"239 812 CURVE SMOOTH",
"112 812 OFFCURVE",
"34 702 OFFCURVE",
"34 602 CURVE SMOOTH",
"34 510 OFFCURVE",
"103 394 OFFCURVE",
"239 394 CURVE SMOOTH"
);
},
{
closed = 1;
nodes = (
"103 663 OFFCURVE",
"145 746 OFFCURVE",
"239 746 CURVE SMOOTH",
"326 746 OFFCURVE",
"375 670 OFFCURVE",
"375 602 CURVE SMOOTH",
"375 543 OFFCURVE",
"332 460 OFFCURVE",
"239 460 CURVE SMOOTH",
"149 460 OFFCURVE",
"103 536 OFFCURVE",
"103 602 CURVE SMOOTH"
);
}
);
width = 476;
}
);
unicode = 2070;
},
{
glyphname = foursuperior;
layers = (
{
layerId = "643E1A31-2BD5-4D48-BA91-7A3195B2D7C3";
name = Bold;
paths = (
{
closed = 1;
nodes = (
"312 400 LINE",
"312 495 LINE",
"372 495 LINE",
"372 561 LINE",
"312 561 LINE",
"312 812 LINE",
"266 812 LINE",
"22 560 LINE",
"22 495 LINE",
"246 495 LINE",
"246 400 LINE"
);
},
{
closed = 1;
nodes = (
"248 728 LINE",
"248 561 LINE",
"89 561 LINE"
);
}
);
width = 400;
}
);
unicode = 2074;
},
{
glyphname = fivesuperior;
layers = (
{
layerId = "643E1A31-2BD5-4D48-BA91-7A3195B2D7C3";
name = Bold;
paths = (
{
closed = 1;
nodes = (
"162 665 OFFCURVE",
"134 656 OFFCURVE",
"115 643 CURVE",
"142 746 LINE",
"329 746 LINE",
"329 812 LINE",
"93 812 LINE",
"84 759 OFFCURVE",
"50 632 OFFCURVE",
"38 568 CURVE",
"97 568 LINE",
"116 595 OFFCURVE",
"155 614 OFFCURVE",
"193 614 CURVE SMOOTH",
"238 614 OFFCURVE",
"289 588 OFFCURVE",
"289 535 CURVE SMOOTH",
"289 486 OFFCURVE",
"244 458 OFFCURVE",
"187 458 CURVE SMOOTH",
"136 458 OFFCURVE",
"94 478 OFFCURVE",
"68 510 CURVE",
"27 467 LINE",
"55 422 OFFCURVE",
"115 394 OFFCURVE",
"183 394 CURVE SMOOTH",
"282 394 OFFCURVE",
"358 450 OFFCURVE",
"358 533 CURVE SMOOTH",
"358 611 OFFCURVE",
"288 665 OFFCURVE",
"198 665 CURVE SMOOTH"
);
}
);
width = 387;
}
);
unicode = 2075;
},
{
glyphname = sixsuperior;
layers = (
{
layerId = "643E1A31-2BD5-4D48-BA91-7A3195B2D7C3";
name = Bold;
paths = (
{
closed = 1;
nodes = (
"386 611 OFFCURVE",
"314 671 OFFCURVE",
"215 671 CURVE SMOOTH",
"169 671 OFFCURVE",
"119 653 OFFCURVE",
"98 622 CURVE",
"100 702 OFFCURVE",
"147 749 OFFCURVE",
"218 749 CURVE SMOOTH",
"264 749 OFFCURVE",
"306 729 OFFCURVE",
"326 700 CURVE",
"365 745 LINE",
"335 788 OFFCURVE",
"281 812 OFFCURVE",
"221 812 CURVE SMOOTH",
"108 812 OFFCURVE",
"36 730 OFFCURVE",
"36 577 CURVE SMOOTH",
"36 459 OFFCURVE",
"106 390 OFFCURVE",
"211 390 CURVE SMOOTH",
"310 390 OFFCURVE",
"386 453 OFFCURVE",
"386 533 CURVE SMOOTH"
);
},
{
closed = 1;
nodes = (
"153 451 OFFCURVE",
"102 489 OFFCURVE",
"102 533 CURVE SMOOTH",
"102 577 OFFCURVE",
"151 613 OFFCURVE",
"212 613 CURVE SMOOTH",
"273 613 OFFCURVE",
"322 577 OFFCURVE",
"322 533 CURVE SMOOTH",
"322 489 OFFCURVE",
"273 451 OFFCURVE",
"213 451 CURVE SMOOTH"
);
}
);
width = 416;
}
);
unicode = 2076;
},
{
glyphname = sevensuperior;
layers = (
{
layerId = "643E1A31-2BD5-4D48-BA91-7A3195B2D7C3";
name = Bold;
paths = (
{
closed = 1;
nodes = (
"54 400 LINE",
"129 400 LINE",
"373 812 LINE",
"25 812 LINE",
"25 746 LINE",
"267 746 LINE"
);
}
);
width = 376;
}
);
unicode = 2077;
},
{
glyphname = eightsuperior;
layers = (
{
layerId = "643E1A31-2BD5-4D48-BA91-7A3195B2D7C3";
name = Bold;
paths = (
{
closed = 1;
nodes = (
"377 567 OFFCURVE",
"340 601 OFFCURVE",
"289 620 CURVE",
"330 635 OFFCURVE",
"361 663 OFFCURVE",
"361 703 CURVE SMOOTH",
"361 770 OFFCURVE",
"280 812 OFFCURVE",
"206 812 CURVE SMOOTH",
"131 812 OFFCURVE",
"50 769 OFFCURVE",
"50 702 CURVE SMOOTH",
"50 661 OFFCURVE",
"84 634 OFFCURVE",
"122 620 CURVE",
"76 602 OFFCURVE",
"34 572 OFFCURVE",
"34 520 CURVE SMOOTH",
"34 450 OFFCURVE",
"108 394 OFFCURVE",
"205 394 CURVE SMOOTH",
"298 394 OFFCURVE",
"377 445 OFFCURVE",
"377 518 CURVE SMOOTH"
);
},
{
closed = 1;
nodes = (
"310 486 OFFCURVE",
"258 460 OFFCURVE",
"207 460 CURVE SMOOTH",
"157 460 OFFCURVE",
"102 484 OFFCURVE",
"102 525 CURVE SMOOTH",
"102 564 OFFCURVE",
"152 590 OFFCURVE",
"206 590 CURVE SMOOTH",
"256 590 OFFCURVE",
"310 566 OFFCURVE",
"310 525 CURVE SMOOTH"
);
},
{
closed = 1;
nodes = (
"117 728 OFFCURVE",
"159 748 OFFCURVE",
"206 748 CURVE SMOOTH",
"251 748 OFFCURVE",
"295 729 OFFCURVE",
"295 697 CURVE SMOOTH",
"295 664 OFFCURVE",
"247 646 OFFCURVE",
"206 646 CURVE SMOOTH",
"164 646 OFFCURVE",
"117 664 OFFCURVE",
"117 697 CURVE SMOOTH"
);
}
);
width = 412;
}
);
unicode = 2078;
},
{
glyphname = ninesuperior;
layers = (
{
layerId = "643E1A31-2BD5-4D48-BA91-7A3195B2D7C3";
name = Bold;
paths = (
{
closed = 1;
nodes = (
"30 591 OFFCURVE",
"102 530 OFFCURVE",
"200 530 CURVE SMOOTH",
"247 530 OFFCURVE",
"297 550 OFFCURVE",
"317 580 CURVE",
"316 500 OFFCURVE",
"268 453 OFFCURVE",
"198 453 CURVE SMOOTH",
"152 453 OFFCURVE",
"110 472 OFFCURVE",
"90 502 CURVE",
"50 457 LINE",
"80 414 OFFCURVE",
"135 390 OFFCURVE",
"196 390 CURVE SMOOTH",
"308 390 OFFCURVE",
"380 471 OFFCURVE",
"380 625 CURVE SMOOTH",
"380 742 OFFCURVE",
"309 812 OFFCURVE",
"204 812 CURVE SMOOTH",
"106 812 OFFCURVE",
"30 749 OFFCURVE",
"30 668 CURVE SMOOTH"
);
},
{
closed = 1;
nodes = (
"263 751 OFFCURVE",
"313 713 OFFCURVE",
"313 668 CURVE SMOOTH",
"313 625 OFFCURVE",
"264 589 OFFCURVE",
"204 589 CURVE SMOOTH",
"144 589 OFFCURVE",
"94 625 OFFCURVE",
"94 669 CURVE SMOOTH",
"94 713 OFFCURVE",
"143 751 OFFCURVE",
"203 751 CURVE SMOOTH"
);
}
);
width = 416;
}
);
unicode = 2079;
},
{
glyphname = zeroinferior;
layers = (
{
layerId = "643E1A31-2BD5-4D48-BA91-7A3195B2D7C3";
name = Bold;
paths = (
{
closed = 1;
nodes = (
"365 -87 OFFCURVE",
"443 21 OFFCURVE",
"443 122 CURVE SMOOTH",
"443 212 OFFCURVE",
"373 331 OFFCURVE",
"239 331 CURVE SMOOTH",
"112 331 OFFCURVE",
"34 221 OFFCURVE",
"34 122 CURVE SMOOTH",
"34 29 OFFCURVE",
"103 -87 OFFCURVE",
"239 -87 CURVE SMOOTH"
);
},
{
closed = 1;
nodes = (
"103 182 OFFCURVE",
"145 265 OFFCURVE",
"239 265 CURVE SMOOTH",
"326 265 OFFCURVE",
"375 189 OFFCURVE",
"375 122 CURVE SMOOTH",
"375 62 OFFCURVE",
"332 -21 OFFCURVE",
"239 -21 CURVE SMOOTH",
"149 -21 OFFCURVE",
"103 55 OFFCURVE",
"103 122 CURVE SMOOTH"
);
}
);
width = 476;
}
);
unicode = 2080;
},
{
glyphname = twoinferior;
layers = (
{
layerId = "643E1A31-2BD5-4D48-BA91-7A3195B2D7C3";
name = Bold;
paths = (
{
closed = 1;
nodes = (
"371 -82 LINE",
"371 -17 LINE",
"140 -17 LINE",
"140 16 OFFCURVE",
"161 54 OFFCURVE",
"236 78 CURVE SMOOTH",
"289 94 OFFCURVE",
"370 122 OFFCURVE",
"370 208 CURVE SMOOTH",
"370 286 OFFCURVE",
"316 336 OFFCURVE",
"213 336 CURVE SMOOTH",
"114 336 OFFCURVE",
"53 290 OFFCURVE",
"36 268 CURVE",
"79 219 LINE",
"101 242 OFFCURVE",
"142 271 OFFCURVE",
"203 271 CURVE SMOOTH",
"263 271 OFFCURVE",
"295 246 OFFCURVE",
"295 209 CURVE SMOOTH",
"295 153 OFFCURVE",
"223 135 OFFCURVE",
"162 111 CURVE SMOOTH",
"69 73 OFFCURVE",
"32 25 OFFCURVE",
"32 -82 CURVE"
);
}
);
width = 410;
}
);
unicode = 2082;
},
{
glyphname = threeinferior;
layers = (
{
layerId = "643E1A31-2BD5-4D48-BA91-7A3195B2D7C3";
name = Bold;
paths = (
{
closed = 1;
nodes = (
"281 -87 OFFCURVE",
"365 -49 OFFCURVE",
"365 28 CURVE SMOOTH",
"365 81 OFFCURVE",
"325 125 OFFCURVE",
"261 134 CURVE",
"320 146 OFFCURVE",
"354 176 OFFCURVE",
"354 223 CURVE SMOOTH",
"354 288 OFFCURVE",
"284 336 OFFCURVE",
"190 336 CURVE SMOOTH",
"125 336 OFFCURVE",
"60 314 OFFCURVE",
"32 276 CURVE",
"76 223 LINE",
"98 253 OFFCURVE",
"136 275 OFFCURVE",
"190 275 CURVE SMOOTH",
"236 275 OFFCURVE",
"283 255 OFFCURVE",
"283 219 CURVE SMOOTH",
"283 179 OFFCURVE",
"230 162 OFFCURVE",
"148 162 CURVE SMOOTH",
"125 162 LINE",
"125 101 LINE",
"148 101 LINE SMOOTH",
"240 101 OFFCURVE",
"297 79 OFFCURVE",
"297 38 CURVE SMOOTH",
"297 1 OFFCURVE",
"249 -21 OFFCURVE",
"190 -21 CURVE SMOOTH",
"121 -21 OFFCURVE",
"76 15 OFFCURVE",
"67 43 CURVE",
"30 -5 LINE",
"46 -58 OFFCURVE",
"108 -87 OFFCURVE",
"191 -87 CURVE SMOOTH"
);
}
);
width = 401;
}
);
unicode = 2083;
},
{
glyphname = fourinferior;
layers = (
{
layerId = "643E1A31-2BD5-4D48-BA91-7A3195B2D7C3";
name = Bold;
paths = (
{
closed = 1;
nodes = (
"312 -82 LINE",
"312 14 LINE",
"372 14 LINE",
"372 80 LINE",
"312 80 LINE",
"312 331 LINE",
"266 331 LINE",
"22 79 LINE",
"22 14 LINE",
"246 14 LINE",
"246 -82 LINE"
);
},
{
closed = 1;
nodes = (
"248 247 LINE",
"248 80 LINE",
"89 80 LINE"
);
}
);
width = 400;
}
);
unicode = 2084;
},
{
glyphname = fiveinferior;
layers = (
{
layerId = "643E1A31-2BD5-4D48-BA91-7A3195B2D7C3";
name = Bold;
paths = (
{
closed = 1;
nodes = (
"162 184 OFFCURVE",
"133 175 OFFCURVE",
"115 162 CURVE",
"142 265 LINE",
"328 265 LINE",
"328 331 LINE",
"93 331 LINE",
"84 278 OFFCURVE",
"50 151 OFFCURVE",
"38 87 CURVE",
"97 87 LINE",
"116 114 OFFCURVE",
"155 133 OFFCURVE",
"192 133 CURVE SMOOTH",
"238 133 OFFCURVE",
"289 107 OFFCURVE",
"289 54 CURVE SMOOTH",
"289 5 OFFCURVE",
"244 -24 OFFCURVE",
"187 -24 CURVE SMOOTH",
"136 -24 OFFCURVE",
"93 -3 OFFCURVE",
"68 28 CURVE",
"27 -15 LINE",
"55 -59 OFFCURVE",
"115 -87 OFFCURVE",
"183 -87 CURVE SMOOTH",
"282 -87 OFFCURVE",
"357 -31 OFFCURVE",
"357 51 CURVE SMOOTH",
"357 130 OFFCURVE",
"288 184 OFFCURVE",
"198 184 CURVE SMOOTH"
);
}
);
width = 387;
}
);
unicode = 2085;
},
{
glyphname = sixinferior;
layers = (
{
layerId = "643E1A31-2BD5-4D48-BA91-7A3195B2D7C3";
name = Bold;
paths = (
{
closed = 1;
nodes = (
"387 133 OFFCURVE",
"315 194 OFFCURVE",
"216 194 CURVE SMOOTH",
"170 194 OFFCURVE",
"120 175 OFFCURVE",
"99 144 CURVE",
"100 225 OFFCURVE",
"147 271 OFFCURVE",
"219 271 CURVE SMOOTH",
"264 271 OFFCURVE",
"307 252 OFFCURVE",
"326 222 CURVE",
"366 268 LINE",
"336 310 OFFCURVE",
"282 334 OFFCURVE",
"221 334 CURVE SMOOTH",
"109 334 OFFCURVE",
"37 253 OFFCURVE",
"37 100 CURVE SMOOTH",
"37 -19 OFFCURVE",
"107 -87 OFFCURVE",
"212 -87 CURVE SMOOTH",
"311 -87 OFFCURVE",
"387 -24 OFFCURVE",
"387 56 CURVE SMOOTH"
);
},
{
closed = 1;
nodes = (
"154 -27 OFFCURVE",
"103 11 OFFCURVE",
"103 56 CURVE SMOOTH",
"103 100 OFFCURVE",
"152 136 OFFCURVE",
"213 136 CURVE SMOOTH",
"274 136 OFFCURVE",
"323 100 OFFCURVE",
"323 55 CURVE SMOOTH",
"323 11 OFFCURVE",
"274 -27 OFFCURVE",
"214 -27 CURVE SMOOTH"
);
}
);
width = 417;
}
);
unicode = 2086;
},
{
glyphname = seveninferior;
layers = (
{
layerId = "643E1A31-2BD5-4D48-BA91-7A3195B2D7C3";
name = Bold;
paths = (
{
closed = 1;
nodes = (
"54 -82 LINE",
"129 -82 LINE",
"373 331 LINE",
"25 331 LINE",
"25 265 LINE",
"268 265 LINE"
);
}
);
width = 376;
}
);
unicode = 2087;
},
{
glyphname = eightinferior;
layers = (
{
layerId = "643E1A31-2BD5-4D48-BA91-7A3195B2D7C3";
name = Bold;
paths = (
{
closed = 1;
nodes = (
"377 87 OFFCURVE",
"340 120 OFFCURVE",
"289 140 CURVE",
"330 154 OFFCURVE",
"361 183 OFFCURVE",
"361 222 CURVE SMOOTH",
"361 289 OFFCURVE",
"280 331 OFFCURVE",
"206 331 CURVE SMOOTH",
"131 331 OFFCURVE",
"50 288 OFFCURVE",
"50 221 CURVE SMOOTH",
"50 180 OFFCURVE",
"84 154 OFFCURVE",
"122 140 CURVE",
"76 121 OFFCURVE",
"34 91 OFFCURVE",
"34 39 CURVE SMOOTH",
"34 -31 OFFCURVE",
"108 -87 OFFCURVE",
"205 -87 CURVE SMOOTH",
"298 -87 OFFCURVE",
"377 -36 OFFCURVE",
"377 37 CURVE SMOOTH"
);
},
{
closed = 1;
nodes = (
"310 5 OFFCURVE",
"258 -21 OFFCURVE",
"207 -21 CURVE SMOOTH",
"157 -21 OFFCURVE",
"102 3 OFFCURVE",
"102 43 CURVE SMOOTH",
"102 83 OFFCURVE",
"152 109 OFFCURVE",
"206 109 CURVE SMOOTH",
"256 109 OFFCURVE",
"310 85 OFFCURVE",
"310 44 CURVE SMOOTH"
);
},
{
closed = 1;
nodes = (
"117 247 OFFCURVE",
"159 267 OFFCURVE",
"206 267 CURVE SMOOTH",
"251 267 OFFCURVE",
"295 247 OFFCURVE",
"295 216 CURVE SMOOTH",
"295 183 OFFCURVE",
"247 164 OFFCURVE",
"206 164 CURVE SMOOTH",
"164 164 OFFCURVE",
"117 183 OFFCURVE",
"117 215 CURVE SMOOTH"
);
}
);
width = 412;
}
);
unicode = 2088;
},
{
glyphname = nineinferior;
layers = (
{
layerId = "643E1A31-2BD5-4D48-BA91-7A3195B2D7C3";
name = Bold;
paths = (
{
closed = 1;
nodes = (
"30 113 OFFCURVE",
"103 52 OFFCURVE",
"200 52 CURVE SMOOTH",
"248 52 OFFCURVE",
"298 72 OFFCURVE",
"318 102 CURVE",
"317 22 OFFCURVE",
"269 -24 OFFCURVE",
"199 -24 CURVE SMOOTH",
"152 -24 OFFCURVE",
"111 -5 OFFCURVE",
"91 25 CURVE",
"51 -21 LINE",
"81 -63 OFFCURVE",
"136 -87 OFFCURVE",
"196 -87 CURVE SMOOTH",
"309 -87 OFFCURVE",
"381 -6 OFFCURVE",
"381 147 CURVE SMOOTH",
"381 265 OFFCURVE",
"310 334 OFFCURVE",
"205 334 CURVE SMOOTH",
"106 334 OFFCURVE",
"30 271 OFFCURVE",
"30 191 CURVE SMOOTH"
);
},
{
closed = 1;
nodes = (
"264 273 OFFCURVE",
"314 235 OFFCURVE",
"314 191 CURVE SMOOTH",
"314 147 OFFCURVE",
"265 111 OFFCURVE",
"205 111 CURVE SMOOTH",
"145 111 OFFCURVE",
"94 147 OFFCURVE",
"94 191 CURVE SMOOTH",
"94 235 OFFCURVE",
"144 273 OFFCURVE",
"204 273 CURVE SMOOTH"
);
}
);
width = 417;
}
);
unicode = 2089;
},
{
glyphname = colonmonetary;
layers = (
{
layerId = "643E1A31-2BD5-4D48-BA91-7A3195B2D7C3";
name = Bold;
paths = (
{
closed = 1;
nodes = (
"219 -120 LINE",
"272 -120 LINE",
"272 -8 LINE",
"283 -9 OFFCURVE",
"294 -10 OFFCURVE",
"306 -10 CURVE SMOOTH",
"315 -10 OFFCURVE",
"323 -9 OFFCURVE",
"332 -9 CURVE",
"332 -120 LINE",
"385 -120 LINE",
"385 0 LINE",
"457 20 OFFCURVE",
"511 66 OFFCURVE",
"536 124 CURVE",
"429 156 LINE",
"413 116 OFFCURVE",
"359 84 OFFCURVE",
"304 84 CURVE SMOOTH",
"218 84 OFFCURVE",
"148 161 OFFCURVE",
"148 262 CURVE SMOOTH",
"148 365 OFFCURVE",
"216 438 OFFCURVE",
"303 438 CURVE SMOOTH",
"356 438 OFFCURVE",
"401 412 OFFCURVE",
"426 368 CURVE",
"533 402 LINE",
"504 459 OFFCURVE",
"453 502 OFFCURVE",
"385 521 CURVE",
"385 645 LINE",
"332 645 LINE",
"332 531 LINE",
"323 531 OFFCURVE",
"314 532 OFFCURVE",
"305 532 CURVE SMOOTH",
"293 532 OFFCURVE",
"282 531 OFFCURVE",
"272 530 CURVE",
"272 645 LINE",
"219 645 LINE",
"219 519 LINE",
"104 485 OFFCURVE",
"35 381 OFFCURVE",
"35 262 CURVE SMOOTH",
"35 144 OFFCURVE",
"105 39 OFFCURVE",
"219 3 CURVE"
);
}
);
width = 563;
}
);
unicode = 20A1;
},
{
glyphname = franc;
layers = (
{
layerId = "643E1A31-2BD5-4D48-BA91-7A3195B2D7C3";
name = Bold;
paths = (
{
closed = 1;
nodes = (
"229 0 LINE",
"229 116 LINE",
"344 116 LINE",
"344 195 LINE",
"229 195 LINE",
"229 306 LINE",
"530 306 LINE",
"530 399 LINE",
"229 399 LINE",
"229 611 LINE",
"589 611 LINE",
"589 710 LINE",
"116 710 LINE",
"116 195 LINE",
"30 195 LINE",
"30 116 LINE",
"116 116 LINE",
"116 0 LINE"
);
}
);
width = 611;
}
);
unicode = 20A3;
},
{
glyphname = lira;
layers = (
{
layerId = "643E1A31-2BD5-4D48-BA91-7A3195B2D7C3";
name = Bold;
paths = (
{
closed = 1;
nodes = (
"48 350 LINE",
"148 350 LINE",
"155 333 OFFCURVE",
"160 315 OFFCURVE",
"163 297 CURVE",
"48 297 LINE",
"48 230 LINE",
"162 230 LINE",
"152 178 OFFCURVE",
"117 128 OFFCURVE",
"53 71 CURVE",
"79 -8 LINE",
"118 4 OFFCURVE",
"165 12 OFFCURVE",
"199 12 CURVE SMOOTH",
"262 12 OFFCURVE",
"317 -15 OFFCURVE",
"377 -15 CURVE SMOOTH",
"415 -15 OFFCURVE",
"457 -4 OFFCURVE",
"490 14 CURVE",
"463 96 LINE",
"431 85 OFFCURVE",
"408 79 OFFCURVE",
"383 79 CURVE SMOOTH",
"336 79 OFFCURVE",
"296 97 OFFCURVE",
"245 97 CURVE SMOOTH",
"221 97 OFFCURVE",
"197 93 OFFCURVE",
"170 86 CURVE",
"222 141 OFFCURVE",
"248 184 OFFCURVE",
"258 230 CURVE",
"404 230 LINE",
"404 297 LINE",
"260 297 LINE",
"258 316 OFFCURVE",
"254 333 OFFCURVE",
"248 350 CURVE",
"404 350 LINE",
"404 417 LINE",
"218 417 LINE",
"197 456 OFFCURVE",
"177 492 OFFCURVE",
"177 530 CURVE SMOOTH",
"177 584 OFFCURVE",
"218 625 OFFCURVE",
"273 625 CURVE SMOOTH",
"324 625 OFFCURVE",
"381 592 OFFCURVE",
"413 542 CURVE",
"472 610 LINE",
"426 675 OFFCURVE",
"352 715 OFFCURVE",
"275 715 CURVE SMOOTH",
"166 715 OFFCURVE",
"77 637 OFFCURVE",
"77 540 CURVE SMOOTH",
"77 495 OFFCURVE",
"95 456 OFFCURVE",
"116 417 CURVE",
"48 417 LINE"
);
}
);
width = 516;
}
);
unicode = 20A4;
},
{
glyphname = uni20A6;
layers = (
{
layerId = "643E1A31-2BD5-4D48-BA91-7A3195B2D7C3";
name = Bold;
paths = (
{
closed = 1;
nodes = (
"819 455 LINE",
"733 455 LINE",
"733 709 LINE",
"620 709 LINE",
"620 455 LINE",
"416 455 LINE",
"214 710 LINE",
"126 710 LINE",
"126 455 LINE",
"37 455 LINE",
"37 388 LINE",
"126 388 LINE",
"126 305 LINE",
"37 305 LINE",
"37 239 LINE",
"126 239 LINE",
"126 0 LINE",
"238 0 LINE",
"238 239 LINE",
"447 239 LINE",
"640 0 LINE",
"733 0 LINE",
"733 239 LINE",
"819 239 LINE",
"819 305 LINE",
"733 305 LINE",
"733 388 LINE",
"819 388 LINE"
);
},
{
closed = 1;
nodes = (
"238 388 LINE",
"328 388 LINE",
"394 305 LINE",
"238 305 LINE"
);
},
{
closed = 1;
nodes = (
"469 388 LINE",
"620 388 LINE",
"620 305 LINE",
"535 305 LINE"
);
},
{
closed = 1;
nodes = (
"238 500 LINE",
"274 455 LINE",
"238 455 LINE"
);
},
{
closed = 1;
nodes = (
"587 239 LINE",
"620 239 LINE",
"620 198 LINE"
);
}
);
width = 857;
}
);
unicode = 20A6;
},
{
glyphname = uni20A9;
layers = (
{
layerId = "643E1A31-2BD5-4D48-BA91-7A3195B2D7C3";
name = Bold;
paths = (
{
closed = 1;
nodes = (
"39 261 LINE",
"234 261 LINE",
"342 0 LINE",
"438 0 LINE",
"571 318 LINE",
"703 0 LINE",
"799 0 LINE",
"906 261 LINE",
"1103 261 LINE",
"1103 328 LINE",
"934 328 LINE",
"966 406 LINE",
"1103 406 LINE",
"1103 472 LINE",
"993 472 LINE",
"1092 710 LINE",
"969 710 LINE",
"878 472 LINE",
"673 472 LINE",
"763 707 LINE",
"658 707 LINE",
"570 466 LINE",
"483 707 LINE",
"377 707 LINE",
"467 472 LINE",
"262 472 LINE",
"171 710 LINE",
"49 710 LINE",
"147 472 LINE",
"39 472 LINE",
"39 406 LINE",
"174 406 LINE",
"206 328 LINE",
"39 328 LINE"
);
},
{
closed = 1;
nodes = (
"499 391 LINE",
"473 328 LINE",
"317 328 LINE",
"287 406 LINE",
"493 406 LINE"
);
},
{
closed = 1;
nodes = (
"647 406 LINE",
"853 406 LINE",
"823 328 LINE",
"667 328 LINE",
"642 391 LINE"
);
},
{
closed = 1;
nodes = (
"694 261 LINE",
"798 261 LINE",
"748 130 LINE"
);
},
{
closed = 1;
nodes = (
"343 261 LINE",
"446 261 LINE",
"393 130 LINE"
);
}
);
width = 1143;
}
);
unicode = 20A9;
},
{
glyphname = Euro;
layers = (
{
layerId = "643E1A31-2BD5-4D48-BA91-7A3195B2D7C3";
name = Bold;
paths = (
{
closed = 1;
nodes = (
"78 431 LINE",
"52 369 LINE",
"124 369 LINE",
"124 360 LINE SMOOTH",
"124 344 OFFCURVE",
"125 328 OFFCURVE",
"127 313 CURVE",
"59 313 LINE",
"33 251 LINE",
"140 251 LINE",
"183 112 OFFCURVE",
"304 -6 OFFCURVE",
"463 -6 CURVE SMOOTH",
"575 -6 OFFCURVE",
"705 53 OFFCURVE",
"749 159 CURVE",
"656 212 LINE",
"619 129 OFFCURVE",
"536 95 OFFCURVE",
"467 95 CURVE SMOOTH",
"369 95 OFFCURVE",
"292 161 OFFCURVE",
"257 251 CURVE",
"475 251 LINE",
"501 313 LINE",
"241 313 LINE",
"239 327 OFFCURVE",
"238 341 OFFCURVE",
"238 356 CURVE SMOOTH",
"238 369 LINE",
"509 369 LINE",
"534 431 LINE",
"247 431 LINE",
"272 528 OFFCURVE",
"346 613 OFFCURVE",
"464 613 CURVE SMOOTH",
"532 613 OFFCURVE",
"611 586 OFFCURVE",
"650 500 CURVE",
"738 559 LINE",
"692 650 OFFCURVE",
"596 714 OFFCURVE",
"468 714 CURVE SMOOTH",
"281 714 OFFCURVE",
"160 578 OFFCURVE",
"131 431 CURVE"
);
}
);
width = 797;
}
);
unicode = 20AC;
},
{
glyphname = uni20B9;
layers = (
{
layerId = "643E1A31-2BD5-4D48-BA91-7A3195B2D7C3";
name = Bold;
paths = (
{
closed = 1;
nodes = (
"479 575 LINE",
"358 575 LINE",
"347 600 OFFCURVE",
"331 623 OFFCURVE",
"312 643 CURVE",
"479 643 LINE",
"479 710 LINE",
"42 710 LINE",
"42 615 LINE",
"153 615 LINE SMOOTH",
"182 615 OFFCURVE",
"211 600 OFFCURVE",
"232 575 CURVE",
"42 575 LINE",
"42 508 LINE",
"263 508 LINE",
"265 498 OFFCURVE",
"266 489 OFFCURVE",
"266 479 CURVE SMOOTH",
"266 405 OFFCURVE",
"222 342 OFFCURVE",
"159 342 CURVE SMOOTH",
"65 342 LINE",
"283 0 LINE",
"410 0 LINE",
"237 270 LINE",
"324 297 OFFCURVE",
"380 384 OFFCURVE",
"380 479 CURVE SMOOTH",
"380 488 OFFCURVE",
"379 498 OFFCURVE",
"378 508 CURVE",
"479 508 LINE"
);
}
);
width = 516;
}
);
unicode = 20B9;
},
{
glyphname = uni2113;
layers = (
{
layerId = "643E1A31-2BD5-4D48-BA91-7A3195B2D7C3";
name = Bold;
paths = (
{
closed = 1;
nodes = (
"174 82 OFFCURVE",
"150 105 OFFCURVE",
"150 144 CURVE SMOOTH",
"150 232 LINE",
"244 322 OFFCURVE",
"333 503 OFFCURVE",
"333 610 CURVE SMOOTH",
"333 687 OFFCURVE",
"280 740 OFFCURVE",
"203 740 CURVE SMOOTH",
"124 740 OFFCURVE",
"63 684 OFFCURVE",
"63 610 CURVE SMOOTH",
"63 103 LINE SMOOTH",
"63 34 OFFCURVE",
"106 -7 OFFCURVE",
"178 -7 CURVE SMOOTH",
"209 -7 OFFCURVE",
"254 2 OFFCURVE",
"283 14 CURVE",
"267 94 LINE",
"249 87 OFFCURVE",
"228 82 OFFCURVE",
"213 82 CURVE SMOOTH"
);
},
{
closed = 1;
nodes = (
"253 527 OFFCURVE",
"204 411 OFFCURVE",
"150 339 CURVE",
"150 601 LINE SMOOTH",
"150 637 OFFCURVE",
"172 662 OFFCURVE",
"204 662 CURVE SMOOTH",
"235 662 OFFCURVE",
"253 638 OFFCURVE",
"253 595 CURVE SMOOTH"
);
}
);
width = 329;
}
);
unicode = 2113;
},
{
glyphname = afii61352;
layers = (
{
layerId = "643E1A31-2BD5-4D48-BA91-7A3195B2D7C3";
name = Bold;
paths = (
{
closed = 1;
nodes = (
"598 0 LINE",
"691 0 LINE",
"691 709 LINE",
"578 709 LINE",
"578 198 LINE",
"172 710 LINE",
"84 710 LINE",
"84 0 LINE",
"197 0 LINE",
"197 500 LINE"
);
},
{
closed = 1;
nodes = (
"1070 342 OFFCURVE",
"1141 428 OFFCURVE",
"1141 526 CURVE SMOOTH",
"1141 627 OFFCURVE",
"1070 712 OFFCURVE",
"957 712 CURVE SMOOTH",
"844 712 OFFCURVE",
"773 627 OFFCURVE",
"773 526 CURVE SMOOTH",
"773 428 OFFCURVE",
"844 342 OFFCURVE",
"957 342 CURVE SMOOTH"
);
},
{
closed = 1;
nodes = (
"858 591 OFFCURVE",
"902 639 OFFCURVE",
"957 639 CURVE SMOOTH",
"1012 639 OFFCURVE",
"1056 592 OFFCURVE",
"1056 527 CURVE SMOOTH",
"1056 462 OFFCURVE",
"1012 414 OFFCURVE",
"957 414 CURVE SMOOTH",
"902 414 OFFCURVE",
"858 462 OFFCURVE",
"858 526 CURVE SMOOTH"
);
}
);
width = 1156;
}
);
unicode = 2116;
},
{
glyphname = servicemark;
layers = (
{
layerId = "643E1A31-2BD5-4D48-BA91-7A3195B2D7C3";
name = Bold;
paths = (
{
closed = 1;
nodes = (
"523 542 LINE",
"455 710 LINE",
"349 710 LINE",
"349 416 LINE",
"422 416 LINE",
"422 614 LINE",
"493 458 LINE",
"553 458 LINE",
"624 614 LINE",
"624 416 LINE",
"697 416 LINE",
"697 710 LINE",
"590 710 LINE"
);
},
{
closed = 1;
nodes = (
"292 682 LINE",
"259 702 OFFCURVE",
"221 715 OFFCURVE",
"178 715 CURVE SMOOTH",
"109 715 OFFCURVE",
"58 681 OFFCURVE",
"58 624 CURVE SMOOTH",
"58 571 OFFCURVE",
"92 551 OFFCURVE",
"163 534 CURVE SMOOTH",
"218 521 OFFCURVE",
"232 513 OFFCURVE",
"232 494 CURVE SMOOTH",
"232 480 OFFCURVE",
"215 472 OFFCURVE",
"184 472 CURVE SMOOTH",
"141 472 OFFCURVE",
"101 488 OFFCURVE",
"79 506 CURVE",
"47 452 LINE",
"84 427 OFFCURVE",
"134 411 OFFCURVE",
"183 411 CURVE SMOOTH",
"254 411 OFFCURVE",
"306 439 OFFCURVE",
"306 498 CURVE SMOOTH",
"306 556 OFFCURVE",
"265 577 OFFCURVE",
"192 594 CURVE SMOOTH",
"139 606 OFFCURVE",
"129 615 OFFCURVE",
"129 631 CURVE SMOOTH",
"129 646 OFFCURVE",
"145 656 OFFCURVE",
"177 656 CURVE SMOOTH",
"212 656 OFFCURVE",
"244 641 OFFCURVE",
"265 625 CURVE"
);
}
);
width = 763;
}
);
leftKerningGroup = servicemark;
rightKerningGroup = servicemark;
unicode = 2120;
},
{
glyphname = trademark;
layers = (
{
layerId = "643E1A31-2BD5-4D48-BA91-7A3195B2D7C3";
name = Bold;
paths = (
{
closed = 1;
nodes = (
"325 712 LINE",
"62 712 LINE",
"62 639 LINE",
"157 639 LINE",
"157 416 LINE",
"230 416 LINE",
"230 639 LINE",
"325 639 LINE"
);
},
{
closed = 1;
nodes = (
"545 542 LINE",
"477 710 LINE",
"371 710 LINE",
"371 416 LINE",
"444 416 LINE",
"444 614 LINE",
"516 458 LINE",
"575 458 LINE",
"647 614 LINE",
"647 416 LINE",
"720 416 LINE",
"720 710 LINE",
"613 710 LINE"
);
}
);
width = 793;
}
);
leftKerningGroup = trademark;
unicode = 2122;
},
{
glyphname = Omega;
layers = (
{
layerId = "643E1A31-2BD5-4D48-BA91-7A3195B2D7C3";
name = Bold;
paths = (
{
closed = 1;
nodes = (
"41 0 LINE",
"339 0 LINE",
"339 90 LINE",
"231 127 OFFCURVE",
"164 251 OFFCURVE",
"164 367 CURVE SMOOTH",
"164 489 OFFCURVE",
"248 614 OFFCURVE",
"383 614 CURVE SMOOTH",
"519 614 OFFCURVE",
"603 489 OFFCURVE",
"603 367 CURVE SMOOTH",
"603 251 OFFCURVE",
"536 127 OFFCURVE",
"428 90 CURVE",
"428 0 LINE",
"726 0 LINE",
"726 90 LINE",
"553 90 LINE",
"654 146 OFFCURVE",
"716 248 OFFCURVE",
"716 367 CURVE SMOOTH",
"716 550 OFFCURVE",
"573 715 OFFCURVE",
"383 715 CURVE SMOOTH",
"194 715 OFFCURVE",
"51 550 OFFCURVE",
"51 367 CURVE SMOOTH",
"51 248 OFFCURVE",
"113 146 OFFCURVE",
"214 90 CURVE",
"41 90 LINE"
);
}
);
width = 767;
}
);
leftKerningGroup = uni03A9;
rightKerningGroup = uni03A9;
unicode = 2126;
},
{
glyphname = estimated;
layers = (
{
layerId = "643E1A31-2BD5-4D48-BA91-7A3195B2D7C3";
name = Bold;
paths = (
{
closed = 1;
nodes = (
"247 31 OFFCURVE",
"192 60 OFFCURVE",
"154 105 CURVE",
"154 251 LINE",
"577 251 LINE",
"577 406 OFFCURVE",
"467 532 OFFCURVE",
"307 532 CURVE SMOOTH",
"148 532 OFFCURVE",
"39 407 OFFCURVE",
"39 260 CURVE SMOOTH",
"39 115 OFFCURVE",
"146 -10 OFFCURVE",
"307 -10 CURVE SMOOTH",
"409 -10 OFFCURVE",
"480 26 OFFCURVE",
"528 73 CURVE",
"499 104 LINE",
"461 65 OFFCURVE",
"400 31 OFFCURVE",
"307 31 CURVE SMOOTH"
);
},
{
closed = 1;
nodes = (
"368 491 OFFCURVE",
"424 461 OFFCURVE",
"462 412 CURVE",
"462 295 LINE",
"154 295 LINE",
"154 413 LINE",
"192 461 OFFCURVE",
"247 491 OFFCURVE",
"307 491 CURVE SMOOTH"
);
}
);
width = 603;
}
);
unicode = 212E;
},
{
color = 4;
glyphname = onethird;
lastChange = "2014-12-04 11:12:48 +0000";
layers = (
{
components = (
{
name = onesuperior;
transform = "{1, 0, 0, 1, 13, -83}";
},
{
name = threesuperior;
transform = "{1, 0, 0, 1, 522, -395}";
}
);
layerId = "643E1A31-2BD5-4D48-BA91-7A3195B2D7C3";
name = Bold;
paths = (
{
closed = 1;
nodes = (
"174 -6 LINE",
"444 342 LINE",
"720 671 LINE",
"668 716 LINE",
"404 373 LINE",
"123 40 LINE"
);
}
);
width = 922;
}
);
unicode = 2153;
},
{
glyphname = three.denominator;
layers = (
{
layerId = "643E1A31-2BD5-4D48-BA91-7A3195B2D7C3";
name = Bold;
paths = (
{
closed = 1;
nodes = (
"281 -5 OFFCURVE",
"365 33 OFFCURVE",
"365 110 CURVE SMOOTH",
"365 163 OFFCURVE",
"325 207 OFFCURVE",
"261 216 CURVE",
"320 228 OFFCURVE",
"354 258 OFFCURVE",
"354 306 CURVE SMOOTH",
"354 370 OFFCURVE",
"284 419 OFFCURVE",
"190 419 CURVE SMOOTH",
"125 419 OFFCURVE",
"60 396 OFFCURVE",
"32 358 CURVE",
"76 305 LINE",
"98 336 OFFCURVE",
"136 357 OFFCURVE",
"190 357 CURVE SMOOTH",
"236 357 OFFCURVE",
"283 337 OFFCURVE",
"283 301 CURVE SMOOTH",
"283 262 OFFCURVE",
"230 244 OFFCURVE",
"148 244 CURVE SMOOTH",
"125 244 LINE",
"125 183 LINE",
"148 183 LINE SMOOTH",
"240 183 OFFCURVE",
"297 161 OFFCURVE",
"297 120 CURVE SMOOTH",
"297 83 OFFCURVE",
"249 62 OFFCURVE",
"190 62 CURVE SMOOTH",
"121 62 OFFCURVE",
"76 98 OFFCURVE",
"67 125 CURVE",
"30 78 LINE",
"46 25 OFFCURVE",
"108 -5 OFFCURVE",
"191 -5 CURVE SMOOTH"
);
}
);
width = 401;
}
);
},
{
color = 4;
glyphname = twothirds;
lastChange = "2014-12-04 11:12:51 +0000";
layers = (
{
components = (
{
name = twosuperior;
transform = "{1, 0, 0, 1, 0, -84}";
},
{
name = threesuperior;
transform = "{1, 0, 0, 1, 541, -395}";
}
);
layerId = "643E1A31-2BD5-4D48-BA91-7A3195B2D7C3";
name = Bold;
paths = (
{
closed = 1;
nodes = (
"233 -6 LINE",
"503 342 LINE",
"779 671 LINE",
"727 716 LINE",
"463 373 LINE",
"182 40 LINE"
);
}
);
width = 940;
}
);
unicode = 2154;
},
{
glyphname = two.numerator;
layers = (
{
layerId = "643E1A31-2BD5-4D48-BA91-7A3195B2D7C3";
name = Bold;
paths = (
{
closed = 1;
nodes = (
"361 313 LINE",
"361 378 LINE",
"140 378 LINE",
"140 411 OFFCURVE",
"161 448 OFFCURVE",
"235 472 CURVE SMOOTH",
"289 489 OFFCURVE",
"370 518 OFFCURVE",
"370 603 CURVE SMOOTH",
"370 680 OFFCURVE",
"316 731 OFFCURVE",
"213 731 CURVE SMOOTH",
"114 731 OFFCURVE",
"52 685 OFFCURVE",
"36 663 CURVE",
"79 615 LINE",
"101 637 OFFCURVE",
"142 666 OFFCURVE",
"203 666 CURVE SMOOTH",
"263 666 OFFCURVE",
"295 641 OFFCURVE",
"295 604 CURVE SMOOTH",
"295 548 OFFCURVE",
"223 530 OFFCURVE",
"161 505 CURVE SMOOTH",
"69 468 OFFCURVE",
"32 420 OFFCURVE",
"32 313 CURVE"
);
}
);
width = 406;
}
);
},
{
color = 4;
glyphname = oneeighth;
lastChange = "2014-12-04 11:12:48 +0000";
layers = (
{
components = (
{
name = onesuperior;
transform = "{1, 0, 0, 1, 12, -81}";
},
{
name = eightsuperior;
transform = "{1, 0, 0, 1, 506, -399}";
}
);
layerId = "643E1A31-2BD5-4D48-BA91-7A3195B2D7C3";
name = Bold;
paths = (
{
closed = 1;
nodes = (
"186 -6 LINE",
"456 342 LINE",
"732 671 LINE",
"680 716 LINE",
"416 373 LINE",
"135 40 LINE"
);
}
);
width = 919;
}
);
unicode = 215B;
},
{
glyphname = eight.denominator;
layers = (
{
layerId = "643E1A31-2BD5-4D48-BA91-7A3195B2D7C3";
name = Bold;
paths = (
{
closed = 1;
nodes = (
"377 169 OFFCURVE",
"340 202 OFFCURVE",
"289 222 CURVE",
"330 236 OFFCURVE",
"361 265 OFFCURVE",
"361 304 CURVE SMOOTH",
"361 371 OFFCURVE",
"280 413 OFFCURVE",
"206 413 CURVE SMOOTH",
"131 413 OFFCURVE",
"50 370 OFFCURVE",
"50 303 CURVE SMOOTH",
"50 262 OFFCURVE",
"84 236 OFFCURVE",
"122 222 CURVE",
"76 204 OFFCURVE",
"34 173 OFFCURVE",
"34 121 CURVE SMOOTH",
"34 51 OFFCURVE",
"108 -5 OFFCURVE",
"205 -5 CURVE SMOOTH",
"298 -5 OFFCURVE",
"377 46 OFFCURVE",
"377 119 CURVE SMOOTH"
);
},
{
closed = 1;
nodes = (
"310 87 OFFCURVE",
"258 61 OFFCURVE",
"207 61 CURVE SMOOTH",
"157 61 OFFCURVE",
"102 85 OFFCURVE",
"102 125 CURVE SMOOTH",
"102 165 OFFCURVE",
"152 191 OFFCURVE",
"206 191 CURVE SMOOTH",
"256 191 OFFCURVE",
"310 167 OFFCURVE",
"310 126 CURVE SMOOTH"
);
},
{
closed = 1;
nodes = (
"117 329 OFFCURVE",
"159 349 OFFCURVE",
"206 349 CURVE SMOOTH",
"251 349 OFFCURVE",
"295 329 OFFCURVE",
"295 298 CURVE SMOOTH",
"295 266 OFFCURVE",
"247 246 OFFCURVE",
"206 246 CURVE SMOOTH",
"164 246 OFFCURVE",
"117 265 OFFCURVE",
"117 297 CURVE SMOOTH"
);
}
);
width = 412;
}
);
},
{
glyphname = threeeighths;
layers = (
{
layerId = "643E1A31-2BD5-4D48-BA91-7A3195B2D7C3";
name = Bold;
paths = (
{
closed = 1;
nodes = (
"291 306 OFFCURVE",
"375 345 OFFCURVE",
"375 423 CURVE SMOOTH",
"375 476 OFFCURVE",
"335 520 OFFCURVE",
"271 529 CURVE",
"330 540 OFFCURVE",
"364 571 OFFCURVE",
"364 617 CURVE SMOOTH",
"364 682 OFFCURVE",
"294 731 OFFCURVE",
"200 731 CURVE SMOOTH",
"135 731 OFFCURVE",
"70 709 OFFCURVE",
"42 670 CURVE",
"86 617 LINE",
"108 648 OFFCURVE",
"146 669 OFFCURVE",
"200 669 CURVE SMOOTH",
"246 669 OFFCURVE",
"293 650 OFFCURVE",
"293 613 CURVE SMOOTH",
"293 574 OFFCURVE",
"240 556 OFFCURVE",
"158 556 CURVE SMOOTH",
"135 556 LINE",
"135 495 LINE",
"158 495 LINE SMOOTH",
"250 495 OFFCURVE",
"307 474 OFFCURVE",
"307 433 CURVE SMOOTH",
"307 396 OFFCURVE",
"259 374 OFFCURVE",
"200 374 CURVE SMOOTH",
"131 374 OFFCURVE",
"86 410 OFFCURVE",
"77 437 CURVE",
"40 389 LINE",
"56 337 OFFCURVE",
"118 306 OFFCURVE",
"201 306 CURVE SMOOTH"
);
},
{
closed = 1;
nodes = (
"215 -6 LINE",
"485 342 LINE",
"761 671 LINE",
"709 716 LINE",
"445 373 LINE",
"164 40 LINE"
);
},
{
closed = 1;
nodes = (
"891 169 OFFCURVE",
"854 202 OFFCURVE",
"803 222 CURVE",
"844 236 OFFCURVE",
"875 265 OFFCURVE",
"875 304 CURVE SMOOTH",
"875 371 OFFCURVE",
"794 413 OFFCURVE",
"720 413 CURVE SMOOTH",
"645 413 OFFCURVE",
"564 370 OFFCURVE",
"564 303 CURVE SMOOTH",
"564 262 OFFCURVE",
"598 236 OFFCURVE",
"636 222 CURVE",
"590 204 OFFCURVE",
"548 173 OFFCURVE",
"548 121 CURVE SMOOTH",
"548 51 OFFCURVE",
"622 -5 OFFCURVE",
"719 -5 CURVE SMOOTH",
"812 -5 OFFCURVE",
"891 46 OFFCURVE",
"891 119 CURVE SMOOTH"
);
},
{
closed = 1;
nodes = (
"824 87 OFFCURVE",
"772 61 OFFCURVE",
"721 61 CURVE SMOOTH",
"671 61 OFFCURVE",
"616 85 OFFCURVE",
"616 125 CURVE SMOOTH",
"616 165 OFFCURVE",
"666 191 OFFCURVE",
"720 191 CURVE SMOOTH",
"770 191 OFFCURVE",
"824 167 OFFCURVE",
"824 126 CURVE SMOOTH"
);
},
{
closed = 1;
nodes = (
"631 329 OFFCURVE",
"673 349 OFFCURVE",
"720 349 CURVE SMOOTH",
"765 349 OFFCURVE",
"809 329 OFFCURVE",
"809 298 CURVE SMOOTH",
"809 266 OFFCURVE",
"761 246 OFFCURVE",
"720 246 CURVE SMOOTH",
"678 246 OFFCURVE",
"631 265 OFFCURVE",
"631 297 CURVE SMOOTH"
);
}
);
width = 926;
}
);
unicode = 215C;
},
{
glyphname = fiveeighths;
layers = (
{
layerId = "643E1A31-2BD5-4D48-BA91-7A3195B2D7C3";
name = Bold;
paths = (
{
closed = 1;
nodes = (
"170 583 OFFCURVE",
"141 574 OFFCURVE",
"123 561 CURVE",
"150 664 LINE",
"336 664 LINE",
"336 730 LINE",
"101 730 LINE",
"92 677 OFFCURVE",
"58 550 OFFCURVE",
"46 486 CURVE",
"105 486 LINE",
"124 513 OFFCURVE",
"163 532 OFFCURVE",
"200 532 CURVE SMOOTH",
"246 532 OFFCURVE",
"297 506 OFFCURVE",
"297 453 CURVE SMOOTH",
"297 404 OFFCURVE",
"252 376 OFFCURVE",
"195 376 CURVE SMOOTH",
"144 376 OFFCURVE",
"101 395 OFFCURVE",
"76 427 CURVE",
"35 384 LINE",
"63 340 OFFCURVE",
"123 311 OFFCURVE",
"191 311 CURVE SMOOTH",
"290 311 OFFCURVE",
"365 368 OFFCURVE",
"365 451 CURVE SMOOTH",
"365 529 OFFCURVE",
"296 583 OFFCURVE",
"206 583 CURVE SMOOTH"
);
},
{
closed = 1;
nodes = (
"214 -6 LINE",
"484 342 LINE",
"760 671 LINE",
"708 716 LINE",
"444 373 LINE",
"163 40 LINE"
);
},
{
closed = 1;
nodes = (
"901 169 OFFCURVE",
"864 202 OFFCURVE",
"813 222 CURVE",
"854 236 OFFCURVE",
"885 265 OFFCURVE",
"885 304 CURVE SMOOTH",
"885 371 OFFCURVE",
"804 413 OFFCURVE",
"730 413 CURVE SMOOTH",
"655 413 OFFCURVE",
"574 370 OFFCURVE",
"574 303 CURVE SMOOTH",
"574 262 OFFCURVE",
"608 236 OFFCURVE",
"646 222 CURVE",
"600 204 OFFCURVE",
"558 173 OFFCURVE",
"558 121 CURVE SMOOTH",
"558 51 OFFCURVE",
"632 -5 OFFCURVE",
"729 -5 CURVE SMOOTH",
"822 -5 OFFCURVE",
"901 46 OFFCURVE",
"901 119 CURVE SMOOTH"
);
},
{
closed = 1;
nodes = (
"834 87 OFFCURVE",
"782 61 OFFCURVE",
"731 61 CURVE SMOOTH",
"681 61 OFFCURVE",
"626 85 OFFCURVE",
"626 125 CURVE SMOOTH",
"626 165 OFFCURVE",
"676 191 OFFCURVE",
"730 191 CURVE SMOOTH",
"780 191 OFFCURVE",
"834 167 OFFCURVE",
"834 126 CURVE SMOOTH"
);
},
{
closed = 1;
nodes = (
"641 329 OFFCURVE",
"683 349 OFFCURVE",
"730 349 CURVE SMOOTH",
"775 349 OFFCURVE",
"819 329 OFFCURVE",
"819 298 CURVE SMOOTH",
"819 266 OFFCURVE",
"771 246 OFFCURVE",
"730 246 CURVE SMOOTH",
"688 246 OFFCURVE",
"641 265 OFFCURVE",
"641 297 CURVE SMOOTH"
);
}
);
width = 936;
}
);
unicode = 215D;
},
{
glyphname = five.numerator;
layers = (
{
layerId = "643E1A31-2BD5-4D48-BA91-7A3195B2D7C3";
name = Bold;
paths = (
{
closed = 1;
nodes = (
"162 583 OFFCURVE",
"133 574 OFFCURVE",
"115 561 CURVE",
"142 664 LINE",
"328 664 LINE",
"328 730 LINE",
"93 730 LINE",
"84 677 OFFCURVE",
"50 550 OFFCURVE",
"38 486 CURVE",
"97 486 LINE",
"116 513 OFFCURVE",
"155 532 OFFCURVE",
"192 532 CURVE SMOOTH",
"238 532 OFFCURVE",
"289 506 OFFCURVE",
"289 453 CURVE SMOOTH",
"289 404 OFFCURVE",
"244 376 OFFCURVE",
"187 376 CURVE SMOOTH",
"136 376 OFFCURVE",
"93 395 OFFCURVE",
"68 427 CURVE",
"27 384 LINE",
"55 340 OFFCURVE",
"115 311 OFFCURVE",
"183 311 CURVE SMOOTH",
"282 311 OFFCURVE",
"357 368 OFFCURVE",
"357 451 CURVE SMOOTH",
"357 529 OFFCURVE",
"288 583 OFFCURVE",
"198 583 CURVE SMOOTH"
);
}
);
width = 387;
}
);
},
{
glyphname = seveneighths;
layers = (
{
layerId = "643E1A31-2BD5-4D48-BA91-7A3195B2D7C3";
name = Bold;
paths = (
{
closed = 1;
nodes = (
"136 -6 LINE",
"406 342 LINE",
"682 671 LINE",
"630 716 LINE",
"366 373 LINE",
"85 40 LINE"
);
},
{
closed = 1;
nodes = (
"864 169 OFFCURVE",
"827 202 OFFCURVE",
"776 222 CURVE",
"817 236 OFFCURVE",
"848 265 OFFCURVE",
"848 304 CURVE SMOOTH",
"848 371 OFFCURVE",
"767 413 OFFCURVE",
"693 413 CURVE SMOOTH",
"618 413 OFFCURVE",
"537 370 OFFCURVE",
"537 303 CURVE SMOOTH",
"537 262 OFFCURVE",
"571 236 OFFCURVE",
"609 222 CURVE",
"563 204 OFFCURVE",
"521 173 OFFCURVE",
"521 121 CURVE SMOOTH",
"521 51 OFFCURVE",
"595 -5 OFFCURVE",
"692 -5 CURVE SMOOTH",
"785 -5 OFFCURVE",
"864 46 OFFCURVE",
"864 119 CURVE SMOOTH"
);
},
{
closed = 1;
nodes = (
"797 87 OFFCURVE",
"745 61 OFFCURVE",
"694 61 CURVE SMOOTH",
"644 61 OFFCURVE",
"589 85 OFFCURVE",
"589 125 CURVE SMOOTH",
"589 165 OFFCURVE",
"639 191 OFFCURVE",
"693 191 CURVE SMOOTH",
"743 191 OFFCURVE",
"797 167 OFFCURVE",
"797 126 CURVE SMOOTH"
);
},
{
closed = 1;
nodes = (
"604 329 OFFCURVE",
"646 349 OFFCURVE",
"693 349 CURVE SMOOTH",
"738 349 OFFCURVE",
"782 329 OFFCURVE",
"782 298 CURVE SMOOTH",
"782 266 OFFCURVE",
"734 246 OFFCURVE",
"693 246 CURVE SMOOTH",
"651 246 OFFCURVE",
"604 265 OFFCURVE",
"604 297 CURVE SMOOTH"
);
},
{
closed = 1;
nodes = (
"70 318 LINE",
"145 318 LINE",
"389 730 LINE",
"41 730 LINE",
"41 664 LINE",
"283 664 LINE"
);
}
);
width = 900;
}
);
unicode = 215E;
},
{
glyphname = seven.numerator;
layers = (
{
layerId = "643E1A31-2BD5-4D48-BA91-7A3195B2D7C3";
name = Bold;
paths = (
{
closed = 1;
nodes = (
"54 318 LINE",
"129 318 LINE",
"373 730 LINE",
"25 730 LINE",
"25 664 LINE",
"267 664 LINE"
);
}
);
width = 376;
}
);
},
{
glyphname = partialdiff;
layers = (
{
layerId = "643E1A31-2BD5-4D48-BA91-7A3195B2D7C3";
name = Bold;
paths = (
{
closed = 1;
nodes = (
"412 -10 OFFCURVE",
"522 133 OFFCURVE",
"522 394 CURVE SMOOTH",
"522 617 OFFCURVE",
"442 715 OFFCURVE",
"294 715 CURVE SMOOTH",
"216 715 OFFCURVE",
"142 688 OFFCURVE",
"95 640 CURVE",
"156 575 LINE",
"181 603 OFFCURVE",
"233 622 OFFCURVE",
"282 622 CURVE SMOOTH",
"363 622 OFFCURVE",
"416 571 OFFCURVE",
"419 428 CURVE SMOOTH",
"419 407 OFFCURVE",
"419 382 OFFCURVE",
"417 355 CURVE",
"396 405 OFFCURVE",
"341 436 OFFCURVE",
"273 436 CURVE SMOOTH",
"140 436 OFFCURVE",
"23 326 OFFCURVE",
"23 197 CURVE SMOOTH",
"23 81 OFFCURVE",
"117 -10 OFFCURVE",
"248 -10 CURVE SMOOTH"
);
},
{
closed = 1;
nodes = (
"182 80 OFFCURVE",
"128 135 OFFCURVE",
"128 204 CURVE SMOOTH",
"128 284 OFFCURVE",
"197 350 OFFCURVE",
"275 350 CURVE SMOOTH",
"345 350 OFFCURVE",
"400 297 OFFCURVE",
"400 227 CURVE SMOOTH",
"400 149 OFFCURVE",
"330 80 OFFCURVE",
"252 80 CURVE SMOOTH"
);
}
);
width = 567;
}
);
unicode = 2202;
},
{
glyphname = Delta;
layers = (
{
layerId = "643E1A31-2BD5-4D48-BA91-7A3195B2D7C3";
name = Bold;
paths = (
{
closed = 1;
nodes = (
"358 710 LINE",
"266 710 LINE",
"7 85 LINE",
"7 0 LINE",
"616 0 LINE",
"616 85 LINE"
);
},
{
closed = 1;
nodes = (
"127 99 LINE",
"312 582 LINE",
"499 99 LINE"
);
}
);
width = 623;
}
);
unicode = 2206;
},
{
glyphname = product;
layers = (
{
layerId = "643E1A31-2BD5-4D48-BA91-7A3195B2D7C3";
name = Bold;
paths = (
{
closed = 1;
nodes = (
"506 -90 LINE",
"613 -90 LINE",
"613 613 LINE",
"693 613 LINE",
"693 710 LINE",
"32 710 LINE",
"32 613 LINE",
"112 613 LINE",
"112 -90 LINE",
"218 -90 LINE",
"218 613 LINE",
"506 613 LINE"
);
}
);
width = 725;
}
);
unicode = 220F;
},
{
glyphname = summation;
layers = (
{
layerId = "643E1A31-2BD5-4D48-BA91-7A3195B2D7C3";
name = Bold;
paths = (
{
closed = 1;
nodes = (
"507 710 LINE",
"39 710 LINE",
"39 639 LINE",
"251 356 LINE",
"32 76 LINE",
"32 0 LINE",
"519 0 LINE",
"519 97 LINE",
"160 97 LINE",
"160 101 LINE",
"365 369 LINE",
"179 619 LINE",
"179 623 LINE",
"507 623 LINE"
);
}
);
width = 554;
}
);
unicode = 2211;
},
{
glyphname = minus;
layers = (
{
layerId = "643E1A31-2BD5-4D48-BA91-7A3195B2D7C3";
name = Bold;
paths = (
{
closed = 1;
nodes = (
"468 271 LINE",
"468 360 LINE",
"64 360 LINE",
"64 271 LINE"
);
}
);
width = 532;
}
);
unicode = 2212;
},
{
glyphname = uni2215;
layers = (
{
layerId = "643E1A31-2BD5-4D48-BA91-7A3195B2D7C3";
name = Bold;
paths = (
{
closed = 1;
nodes = (
"52 -6 LINE",
"621 663 LINE",
"557 716 LINE",
"-12 47 LINE"
);
}
);
width = 608;
}
);
unicode = 2215;
},
{
color = 4;
glyphname = uni2219;
lastChange = "2014-12-26 21:44:54 +0000";
layers = (
{
layerId = "643E1A31-2BD5-4D48-BA91-7A3195B2D7C3";
name = Bold;
paths = (
{
closed = 1;
nodes = (
"148 235 OFFCURVE",
"182 269 OFFCURVE",
"182 311 CURVE SMOOTH",
"182 352 OFFCURVE",
"148 386 OFFCURVE",
"107 386 CURVE SMOOTH",
"65 386 OFFCURVE",
"31 352 OFFCURVE",
"31 311 CURVE SMOOTH",
"31 269 OFFCURVE",
"65 235 OFFCURVE",
"107 235 CURVE SMOOTH"
);
}
);
width = 213;
}
);
unicode = 2219;
},
{
glyphname = radical;
layers = (
{
layerId = "643E1A31-2BD5-4D48-BA91-7A3195B2D7C3";
name = Bold;
paths = (
{
closed = 1;
nodes = (
"9 293 LINE",
"101 293 LINE",
"186 0 LINE",
"312 0 LINE",
"464 790 LINE",
"363 790 LINE",
"251 88 LINE",
"186 371 LINE",
"9 371 LINE"
);
}
);
width = 499;
}
);
unicode = 221A;
},
{
glyphname = infinity;
layers = (
{
layerId = "643E1A31-2BD5-4D48-BA91-7A3195B2D7C3";
name = Bold;
paths = (
{
closed = 1;
nodes = (
"112 526 OFFCURVE",
"41 448 OFFCURVE",
"41 352 CURVE SMOOTH",
"41 256 OFFCURVE",
"123 177 OFFCURVE",
"206 177 CURVE SMOOTH",
"286 177 OFFCURVE",
"324 215 OFFCURVE",
"352 258 CURVE",
"381 215 OFFCURVE",
"419 177 OFFCURVE",
"493 177 CURVE SMOOTH",
"587 177 OFFCURVE",
"658 255 OFFCURVE",
"658 351 CURVE SMOOTH",
"658 447 OFFCURVE",
"594 526 OFFCURVE",
"494 526 CURVE SMOOTH",
"416 526 OFFCURVE",
"380 484 OFFCURVE",
"350 436 CURVE",
"320 484 OFFCURVE",
"283 526 OFFCURVE",
"206 526 CURVE SMOOTH"
);
},
{
closed = 1;
nodes = (
"170 262 OFFCURVE",
"127 289 OFFCURVE",
"127 352 CURVE SMOOTH",
"127 414 OFFCURVE",
"170 440 OFFCURVE",
"210 440 CURVE SMOOTH",
"265 440 OFFCURVE",
"291 399 OFFCURVE",
"316 350 CURVE",
"291 302 OFFCURVE",
"264 262 OFFCURVE",
"210 262 CURVE SMOOTH"
);
},
{
closed = 1;
nodes = (
"437 262 OFFCURVE",
"410 300 OFFCURVE",
"387 346 CURVE",
"409 397 OFFCURVE",
"434 440 OFFCURVE",
"490 440 CURVE SMOOTH",
"530 440 OFFCURVE",
"573 414 OFFCURVE",
"573 352 CURVE SMOOTH",
"573 289 OFFCURVE",
"530 262 OFFCURVE",
"490 262 CURVE SMOOTH"
);
}
);
width = 700;
}
);
unicode = 221E;
},
{
glyphname = integral;
layers = (
{
layerId = "643E1A31-2BD5-4D48-BA91-7A3195B2D7C3";
name = Bold;
paths = (
{
closed = 1;
nodes = (
"136 -16 LINE SMOOTH",
"138 -54 OFFCURVE",
"115 -78 OFFCURVE",
"82 -78 CURVE SMOOTH",
"67 -78 OFFCURVE",
"47 -73 OFFCURVE",
"30 -65 CURVE",
"8 -143 LINE",
"42 -157 OFFCURVE",
"90 -167 OFFCURVE",
"125 -167 CURVE SMOOTH",
"201 -167 OFFCURVE",
"243 -123 OFFCURVE",
"239 -48 CURVE SMOOTH",
"200 669 LINE SMOOTH",
"198 708 OFFCURVE",
"220 731 OFFCURVE",
"254 731 CURVE SMOOTH",
"268 731 OFFCURVE",
"289 726 OFFCURVE",
"306 718 CURVE",
"328 796 LINE",
"295 810 OFFCURVE",
"246 820 OFFCURVE",
"211 820 CURVE SMOOTH",
"135 820 OFFCURVE",
"92 771 OFFCURVE",
"96 701 CURVE SMOOTH"
);
}
);
width = 336;
}
);
unicode = 222B;
},
{
glyphname = approxequal;
layers = (
{
layerId = "643E1A31-2BD5-4D48-BA91-7A3195B2D7C3";
name = Bold;
paths = (
{
closed = 1;
nodes = (
"335 386 LINE",
"326 374 OFFCURVE",
"310 362 OFFCURVE",
"282 362 CURVE SMOOTH",
"233 362 OFFCURVE",
"210 407 OFFCURVE",
"151 407 CURVE SMOOTH",
"104 407 OFFCURVE",
"75 380 OFFCURVE",
"58 351 CURVE",
"108 307 LINE",
"115 320 OFFCURVE",
"129 332 OFFCURVE",
"155 332 CURVE SMOOTH",
"198 332 OFFCURVE",
"225 289 OFFCURVE",
"285 289 CURVE SMOOTH",
"334 289 OFFCURVE",
"365 316 OFFCURVE",
"384 346 CURVE"
);
},
{
closed = 1;
nodes = (
"335 242 LINE",
"326 230 OFFCURVE",
"310 219 OFFCURVE",
"282 219 CURVE SMOOTH",
"233 219 OFFCURVE",
"210 264 OFFCURVE",
"151 264 CURVE SMOOTH",
"104 264 OFFCURVE",
"75 237 OFFCURVE",
"58 208 CURVE",
"108 164 LINE",
"115 177 OFFCURVE",
"129 189 OFFCURVE",
"155 189 CURVE SMOOTH",
"198 189 OFFCURVE",
"225 146 OFFCURVE",
"285 146 CURVE SMOOTH",
"334 146 OFFCURVE",
"365 171 OFFCURVE",
"384 198 CURVE"
);
}
);
width = 442;
}
);
unicode = 2248;
},
{
glyphname = notequal;
layers = (
{
layerId = "643E1A31-2BD5-4D48-BA91-7A3195B2D7C3";
name = Bold;
paths = (
{
closed = 1;
nodes = (
"82 315 LINE",
"228 315 LINE",
"187 237 LINE",
"82 237 LINE",
"82 164 LINE",
"148 164 LINE",
"97 66 LINE",
"141 42 LINE",
"205 164 LINE",
"391 164 LINE",
"391 237 LINE",
"243 237 LINE",
"284 315 LINE",
"391 315 LINE",
"391 388 LINE",
"323 388 LINE",
"375 487 LINE",
"331 511 LINE",
"266 388 LINE",
"82 388 LINE"
);
}
);
width = 473;
}
);
unicode = 2260;
},
{
glyphname = lessequal;
layers = (
{
layerId = "643E1A31-2BD5-4D48-BA91-7A3195B2D7C3";
name = Bold;
paths = (
{
closed = 1;
nodes = (
"396 40 LINE",
"396 129 LINE",
"54 129 LINE",
"54 40 LINE"
);
},
{
closed = 1;
nodes = (
"54 344 LINE",
"393 186 LINE",
"393 294 LINE",
"192 381 LINE",
"393 471 LINE",
"393 576 LINE",
"54 412 LINE"
);
}
);
width = 460;
}
);
unicode = 2264;
},
{
glyphname = greaterequal;
layers = (
{
layerId = "643E1A31-2BD5-4D48-BA91-7A3195B2D7C3";
name = Bold;
paths = (
{
closed = 1;
nodes = (
"407 40 LINE",
"407 129 LINE",
"65 129 LINE",
"65 40 LINE"
);
},
{
closed = 1;
nodes = (
"407 412 LINE",
"67 576 LINE",
"67 471 LINE",
"268 381 LINE",
"67 294 LINE",
"67 186 LINE",
"407 344 LINE"
);
}
);
width = 460;
}
);
unicode = 2265;
},
{
glyphname = lozenge;
layers = (
{
layerId = "643E1A31-2BD5-4D48-BA91-7A3195B2D7C3";
name = Bold;
paths = (
{
closed = 1;
nodes = (
"211 730 LINE",
"25 366 LINE",
"211 0 LINE",
"331 0 LINE",
"517 366 LINE",
"331 730 LINE"
);
},
{
closed = 1;
nodes = (
"279 78 LINE",
"131 375 LINE",
"270 649 LINE",
"418 354 LINE"
);
}
);
width = 542;
}
);
unicode = 25CA;
},
{
color = 4;
glyphname = f_f;
lastChange = "2014-12-08 10:58:46 +0000";
layers = (
{
layerId = "643E1A31-2BD5-4D48-BA91-7A3195B2D7C3";
name = Bold;
paths = (
{
closed = 1;
nodes = (
"582 646 OFFCURVE",
"603 636 OFFCURVE",
"621 626 CURVE",
"645 708 LINE",
"617 720 OFFCURVE",
"582 740 OFFCURVE",
"527 740 CURVE SMOOTH",
"464 740 OFFCURVE",
"420 714 OFFCURVE",
"390 675 CURVE",
"355 691 OFFCURVE",
"313 703 OFFCURVE",
"267 703 CURVE SMOOTH",
"157 703 OFFCURVE",
"96 618 OFFCURVE",
"96 518 CURVE SMOOTH",
"96 460 LINE",
"26 460 LINE",
"26 375 LINE",
"96 375 LINE",
"96 0 LINE",
"206 0 LINE",
"206 375 LINE",
"347 375 LINE",
"347 0 LINE",
"457 0 LINE",
"457 375 LINE",
"604 375 LINE",
"604 460 LINE",
"457 460 LINE",
"457 534 LINE SMOOTH",
"457 590 OFFCURVE",
"483 646 OFFCURVE",
"548 646 CURVE SMOOTH"
);
},
{
closed = 1;
nodes = (
"206 460 LINE",
"206 520 LINE SMOOTH",
"206 569 OFFCURVE",
"229 609 OFFCURVE",
"288 609 CURVE SMOOTH",
"309 609 OFFCURVE",
"339 605 OFFCURVE",
"359 593 CURVE",
"350 576 OFFCURVE",
"347 479 OFFCURVE",
"347 460 CURVE"
);
}
);
width = 620;
}
);
leftKerningGroup = f;
rightKerningGroup = f;
unicode = FB00;
},
{
color = 4;
glyphname = f_i;
lastChange = "2014-12-08 10:58:46 +0000";
layers = (
{
layerId = "643E1A31-2BD5-4D48-BA91-7A3195B2D7C3";
name = Bold;
paths = (
{
closed = 1;
nodes = (
"96 0 LINE",
"206 0 LINE",
"206 375 LINE",
"370 375 LINE",
"370 0 LINE",
"480 0 LINE",
"480 460 LINE",
"206 460 LINE",
"206 534 LINE SMOOTH",
"206 590 OFFCURVE",
"237 646 OFFCURVE",
"306 646 CURVE SMOOTH",
"354 646 OFFCURVE",
"394 633 OFFCURVE",
"425 606 CURVE",
"477 682 LINE",
"433 712 OFFCURVE",
"374 740 OFFCURVE",
"299 740 CURVE SMOOTH",
"167 740 OFFCURVE",
"96 640 OFFCURVE",
"96 531 CURVE SMOOTH",
"96 460 LINE",
"26 460 LINE",
"26 375 LINE",
"96 375 LINE"
);
}
);
width = 546;
}
);
leftKerningGroup = f;
rightKerningGroup = i;
unicode = FB01;
},
{
color = 4;
glyphname = f_l;
lastChange = "2014-12-08 10:58:46 +0000";
layers = (
{
layerId = "643E1A31-2BD5-4D48-BA91-7A3195B2D7C3";
name = Bold;
paths = (
{
closed = 1;
nodes = (
"616 104 LINE",
"615 104 OFFCURVE",
"582 91 OFFCURVE",
"558 91 CURVE SMOOTH",
"523 91 OFFCURVE",
"507 125 OFFCURVE",
"507 151 CURVE SMOOTH",
"507 559 LINE SMOOTH",
"507 666 OFFCURVE",
"440 740 OFFCURVE",
"301 740 CURVE SMOOTH",
"170 740 OFFCURVE",
"96 665 OFFCURVE",
"96 540 CURVE SMOOTH",
"96 460 LINE",
"26 460 LINE",
"26 375 LINE",
"96 375 LINE",
"96 0 LINE",
"206 0 LINE",
"206 375 LINE",
"302 375 LINE",
"302 460 LINE",
"206 460 LINE",
"206 523 LINE SMOOTH",
"206 595 OFFCURVE",
"235 646 OFFCURVE",
"303 646 CURVE SMOOTH",
"377 646 OFFCURVE",
"397 591 OFFCURVE",
"397 536 CURVE SMOOTH",
"397 98 LINE SMOOTH",
"397 41 OFFCURVE",
"442 -7 OFFCURVE",
"518 -7 CURVE SMOOTH",
"573 -7 OFFCURVE",
"631 12 OFFCURVE",
"633 15 CURVE"
);
}
);
width = 630;
}
);
leftKerningGroup = f;
rightKerningGroup = l;
unicode = FB02;
},
{
color = 4;
glyphname = f_f_i;
lastChange = "2014-12-08 10:58:46 +0000";
layers = (
{
layerId = "643E1A31-2BD5-4D48-BA91-7A3195B2D7C3";
name = Bold;
paths = (
{
closed = 1;
nodes = (
"96 0 LINE",
"206 0 LINE",
"206 375 LINE",
"347 375 LINE",
"347 0 LINE",
"457 0 LINE",
"457 375 LINE",
"620 375 LINE",
"620 0 LINE",
"731 0 LINE",
"731 460 LINE",
"457 460 LINE",
"457 534 LINE SMOOTH",
"457 590 OFFCURVE",
"486 646 OFFCURVE",
"559 646 CURVE SMOOTH",
"604 646 OFFCURVE",
"653 625 OFFCURVE",
"682 600 CURVE",
"728 682 LINE",
"680 712 OFFCURVE",
"618 740 OFFCURVE",
"548 740 CURVE SMOOTH",
"477 740 OFFCURVE",
"424 714 OFFCURVE",
"390 675 CURVE",
"355 691 OFFCURVE",
"313 703 OFFCURVE",
"267 703 CURVE SMOOTH",
"157 703 OFFCURVE",
"96 613 OFFCURVE",
"96 518 CURVE SMOOTH",
"96 460 LINE",
"26 460 LINE",
"26 375 LINE",
"96 375 LINE"
);
},
{
closed = 1;
nodes = (
"206 460 LINE",
"206 520 LINE SMOOTH",
"206 566 OFFCURVE",
"229 609 OFFCURVE",
"288 609 CURVE SMOOTH",
"309 609 OFFCURVE",
"339 605 OFFCURVE",
"359 593 CURVE",
"350 576 OFFCURVE",
"347 479 OFFCURVE",
"347 460 CURVE"
);
}
);
width = 796;
}
);
leftKerningGroup = f;
rightKerningGroup = i;
unicode = FB03;
},
{
color = 4;
glyphname = f_f_l;
lastChange = "2014-12-08 10:58:46 +0000";
layers = (
{
layerId = "643E1A31-2BD5-4D48-BA91-7A3195B2D7C3";
name = Bold;
paths = (
{
closed = 1;
nodes = (
"825 -7 OFFCURVE",
"883 12 OFFCURVE",
"885 15 CURVE",
"869 104 LINE",
"867 104 OFFCURVE",
"834 91 OFFCURVE",
"810 91 CURVE SMOOTH",
"774 91 OFFCURVE",
"759 125 OFFCURVE",
"759 151 CURVE SMOOTH",
"759 559 LINE SMOOTH",
"759 666 OFFCURVE",
"692 740 OFFCURVE",
"554 740 CURVE SMOOTH",
"481 740 OFFCURVE",
"425 718 OFFCURVE",
"390 675 CURVE",
"355 691 OFFCURVE",
"318 703 OFFCURVE",
"270 703 CURVE SMOOTH",
"163 703 OFFCURVE",
"96 618 OFFCURVE",
"96 518 CURVE SMOOTH",
"96 460 LINE",
"26 460 LINE",
"26 375 LINE",
"96 375 LINE",
"96 0 LINE",
"206 0 LINE",
"206 375 LINE",
"349 375 LINE",
"349 0 LINE",
"459 0 LINE",
"459 375 LINE",
"554 375 LINE",
"554 460 LINE",
"459 460 LINE",
"459 519 LINE SMOOTH",
"459 588 OFFCURVE",
"485 646 OFFCURVE",
"555 646 CURVE SMOOTH",
"629 646 OFFCURVE",
"649 590 OFFCURVE",
"649 538 CURVE SMOOTH",
"649 98 LINE SMOOTH",
"649 41 OFFCURVE",
"695 -7 OFFCURVE",
"771 -7 CURVE SMOOTH"
);
},
{
closed = 1;
nodes = (
"206 460 LINE",
"206 522 LINE SMOOTH",
"206 565 OFFCURVE",
"235 609 OFFCURVE",
"293 609 CURVE SMOOTH",
"313 609 OFFCURVE",
"338 606 OFFCURVE",
"358 594 CURVE",
"351 579 OFFCURVE",
"349 482 OFFCURVE",
"349 460 CURVE"
);
}
);
width = 883;
}
);
leftKerningGroup = f;
rightKerningGroup = l;
unicode = FB04;
},
{
glyphname = eight.numerator;
layers = (
{
layerId = "643E1A31-2BD5-4D48-BA91-7A3195B2D7C3";
name = Bold;
paths = (
{
closed = 1;
nodes = (
"377 485 OFFCURVE",
"340 519 OFFCURVE",
"289 538 CURVE",
"330 553 OFFCURVE",
"361 581 OFFCURVE",
"361 621 CURVE SMOOTH",
"361 688 OFFCURVE",
"280 730 OFFCURVE",
"206 730 CURVE SMOOTH",
"131 730 OFFCURVE",
"50 687 OFFCURVE",
"50 620 CURVE SMOOTH",
"50 579 OFFCURVE",
"84 552 OFFCURVE",
"122 538 CURVE",
"76 520 OFFCURVE",
"34 490 OFFCURVE",
"34 438 CURVE SMOOTH",
"34 368 OFFCURVE",
"108 311 OFFCURVE",
"205 311 CURVE SMOOTH",
"298 311 OFFCURVE",
"377 363 OFFCURVE",
"377 436 CURVE SMOOTH"
);
},
{
closed = 1;
nodes = (
"310 404 OFFCURVE",
"258 378 OFFCURVE",
"207 378 CURVE SMOOTH",
"157 378 OFFCURVE",
"102 402 OFFCURVE",
"102 443 CURVE SMOOTH",
"102 482 OFFCURVE",
"152 508 OFFCURVE",
"206 508 CURVE SMOOTH",
"256 508 OFFCURVE",
"310 484 OFFCURVE",
"310 443 CURVE SMOOTH"
);
},
{
closed = 1;
nodes = (
"117 646 OFFCURVE",
"159 666 OFFCURVE",
"206 666 CURVE SMOOTH",
"251 666 OFFCURVE",
"295 647 OFFCURVE",
"295 615 CURVE SMOOTH",
"295 582 OFFCURVE",
"247 563 OFFCURVE",
"206 563 CURVE SMOOTH",
"164 563 OFFCURVE",
"117 581 OFFCURVE",
"117 615 CURVE SMOOTH"
);
}
);
width = 412;
}
);
},
{
glyphname = w.alt;
layers = (
{
layerId = "643E1A31-2BD5-4D48-BA91-7A3195B2D7C3";
name = Bold;
paths = (
{
closed = 1;
nodes = (
"550 106 LINE",
"474 300 LINE",
"564 522 LINE",
"474 522 LINE",
"415 358 LINE",
"355 522 LINE",
"265 522 LINE",
"356 300 LINE",
"280 106 LINE",
"111 523 LINE",
"6 523 LINE",
"227 0 LINE",
"318 0 LINE",
"415 243 LINE",
"512 0 LINE",
"603 0 LINE",
"823 523 LINE",
"718 523 LINE"
);
}
);
width = 830;
}
);
leftKerningGroup = w;
rightKerningGroup = w;
},
{
glyphname = y.alt;
layers = (
{
layerId = "643E1A31-2BD5-4D48-BA91-7A3195B2D7C3";
name = Bold;
paths = (
{
closed = 1;
nodes = (
"429 523 LINE",
"284 97 LINE",
"123 523 LINE",
"9 523 LINE",
"224 0 LINE",
"187 -85 OFFCURVE",
"140 -210 OFFCURVE",
"138 -213 CURVE",
"264 -213 LINE",
"533 523 LINE"
);
}
);
width = 549;
}
);
leftKerningGroup = y.alt;
rightKerningGroup = y.alt;
},
{
glyphname = zero.denominator;
layers = (
{
layerId = "643E1A31-2BD5-4D48-BA91-7A3195B2D7C3";
name = Bold;
paths = (
{
closed = 1;
nodes = (
"365 -5 OFFCURVE",
"443 103 OFFCURVE",
"443 204 CURVE SMOOTH",
"443 294 OFFCURVE",
"373 413 OFFCURVE",
"239 413 CURVE SMOOTH",
"112 413 OFFCURVE",
"34 303 OFFCURVE",
"34 204 CURVE SMOOTH",
"34 111 OFFCURVE",
"103 -5 OFFCURVE",
"239 -5 CURVE SMOOTH"
);
},
{
closed = 1;
nodes = (
"103 264 OFFCURVE",
"145 347 OFFCURVE",
"239 347 CURVE SMOOTH",
"326 347 OFFCURVE",
"375 271 OFFCURVE",
"375 204 CURVE SMOOTH",
"375 144 OFFCURVE",
"332 61 OFFCURVE",
"239 61 CURVE SMOOTH",
"149 61 OFFCURVE",
"103 137 OFFCURVE",
"103 204 CURVE SMOOTH"
);
}
);
width = 476;
}
);
},
{
glyphname = zero.numerator;
layers = (
{
layerId = "643E1A31-2BD5-4D48-BA91-7A3195B2D7C3";
name = Bold;
paths = (
{
closed = 1;
nodes = (
"365 311 OFFCURVE",
"443 420 OFFCURVE",
"443 520 CURVE SMOOTH",
"443 611 OFFCURVE",
"373 730 OFFCURVE",
"239 730 CURVE SMOOTH",
"112 730 OFFCURVE",
"34 620 OFFCURVE",
"34 520 CURVE SMOOTH",
"34 428 OFFCURVE",
"103 311 OFFCURVE",
"239 311 CURVE SMOOTH"
);
},
{
closed = 1;
nodes = (
"103 581 OFFCURVE",
"145 663 OFFCURVE",
"239 663 CURVE SMOOTH",
"326 663 OFFCURVE",
"375 587 OFFCURVE",
"375 520 CURVE SMOOTH",
"375 461 OFFCURVE",
"332 378 OFFCURVE",
"239 378 CURVE SMOOTH",
"149 378 OFFCURVE",
"103 454 OFFCURVE",
"103 520 CURVE SMOOTH"
);
}
);
width = 476;
}
);
},
{
glyphname = five.denominator;
layers = (
{
layerId = "643E1A31-2BD5-4D48-BA91-7A3195B2D7C3";
name = Bold;
paths = (
{
closed = 1;
nodes = (
"162 266 OFFCURVE",
"134 257 OFFCURVE",
"115 244 CURVE",
"142 347 LINE",
"329 347 LINE",
"329 414 LINE",
"93 414 LINE",
"84 361 OFFCURVE",
"50 233 OFFCURVE",
"38 169 CURVE",
"97 169 LINE",
"116 196 OFFCURVE",
"155 215 OFFCURVE",
"193 215 CURVE SMOOTH",
"238 215 OFFCURVE",
"289 189 OFFCURVE",
"289 136 CURVE SMOOTH",
"289 87 OFFCURVE",
"244 58 OFFCURVE",
"187 58 CURVE SMOOTH",
"136 58 OFFCURVE",
"94 79 OFFCURVE",
"68 110 CURVE",
"27 67 LINE",
"55 23 OFFCURVE",
"115 -5 OFFCURVE",
"183 -5 CURVE SMOOTH",
"282 -5 OFFCURVE",
"358 52 OFFCURVE",
"358 133 CURVE SMOOTH",
"358 212 OFFCURVE",
"288 266 OFFCURVE",
"198 266 CURVE SMOOTH"
);
}
);
width = 387;
}
);
},
{
glyphname = four.numerator;
layers = (
{
layerId = "643E1A31-2BD5-4D48-BA91-7A3195B2D7C3";
name = Bold;
paths = (
{
closed = 1;
nodes = (
"312 318 LINE",
"312 413 LINE",
"372 413 LINE",
"372 479 LINE",
"312 479 LINE",
"312 730 LINE",
"266 730 LINE",
"22 478 LINE",
"22 413 LINE",
"246 413 LINE",
"246 318 LINE"
);
},
{
closed = 1;
nodes = (
"248 646 LINE",
"248 479 LINE",
"89 479 LINE"
);
}
);
width = 400;
}
);
},
